<mxfile host="app.diagrams.net" agent="Mozilla/5.0 (Windows NT 10.0; Win64; x64; rv:135.0) Gecko/20100101 Firefox/135.0" version="26.0.16">
  <diagram name="Page-1" id="3_q_bGE4Z-Se7FsiGyFn">
    <mxGraphModel dx="2607" dy="1371" grid="0" gridSize="18" guides="1" tooltips="1" connect="1" arrows="1" fold="1" page="1" pageScale="1" pageWidth="850" pageHeight="1100" background="#FFFFFF" math="0" shadow="0">
      <root>
        <mxCell id="0" />
        <mxCell id="1" parent="0" />
        <mxCell id="TFH7p9IeiASmlbd_Yw0B-1" value="&lt;font style=&quot;font-size: 28px;&quot;&gt;EVENT NAME&lt;/font&gt;" style="rounded=0;whiteSpace=wrap;html=1;strokeColor=none;" parent="1" vertex="1">
          <mxGeometry x="6" y="24" width="830" height="98" as="geometry" />
        </mxCell>
        <mxCell id="TFH7p9IeiASmlbd_Yw0B-2" value="" style="shape=table;startSize=0;container=1;collapsible=0;childLayout=tableLayout;fontSize=16;strokeColor=none;" parent="1" vertex="1">
          <mxGeometry x="132" y="126" width="581" height="321" as="geometry" />
        </mxCell>
        <mxCell id="TFH7p9IeiASmlbd_Yw0B-3" value="" style="shape=tableRow;horizontal=0;startSize=0;swimlaneHead=0;swimlaneBody=0;strokeColor=inherit;top=0;left=0;bottom=0;right=0;collapsible=0;dropTarget=0;fillColor=none;points=[[0,0.5],[1,0.5]];portConstraint=eastwest;fontSize=16;" parent="TFH7p9IeiASmlbd_Yw0B-2" vertex="1">
          <mxGeometry width="581" height="34" as="geometry" />
        </mxCell>
        <mxCell id="TFH7p9IeiASmlbd_Yw0B-4" value="Event No." style="shape=partialRectangle;html=1;whiteSpace=wrap;connectable=0;strokeColor=inherit;overflow=hidden;fillColor=none;top=0;left=0;bottom=0;right=0;pointerEvents=1;fontSize=19;" parent="TFH7p9IeiASmlbd_Yw0B-3" vertex="1">
          <mxGeometry width="144" height="34" as="geometry">
            <mxRectangle width="144" height="34" as="alternateBounds" />
          </mxGeometry>
        </mxCell>
        <mxCell id="TFH7p9IeiASmlbd_Yw0B-5" value="Race No." style="shape=partialRectangle;html=1;whiteSpace=wrap;connectable=0;strokeColor=inherit;overflow=hidden;fillColor=none;top=0;left=0;bottom=0;right=0;pointerEvents=1;fontSize=19;" parent="TFH7p9IeiASmlbd_Yw0B-3" vertex="1">
          <mxGeometry x="144" width="147" height="34" as="geometry">
            <mxRectangle width="147" height="34" as="alternateBounds" />
          </mxGeometry>
        </mxCell>
        <mxCell id="TFH7p9IeiASmlbd_Yw0B-6" value="Horse No." style="shape=partialRectangle;html=1;whiteSpace=wrap;connectable=0;strokeColor=inherit;overflow=hidden;fillColor=none;top=0;left=0;bottom=0;right=0;pointerEvents=1;fontSize=19;" parent="TFH7p9IeiASmlbd_Yw0B-3" vertex="1">
          <mxGeometry x="291" width="146" height="34" as="geometry">
            <mxRectangle width="146" height="34" as="alternateBounds" />
          </mxGeometry>
        </mxCell>
        <mxCell id="X9fpeLWt1j-jbo-fKKKr-1" value="Ref. No" style="shape=partialRectangle;html=1;whiteSpace=wrap;connectable=0;strokeColor=inherit;overflow=hidden;fillColor=none;top=0;left=0;bottom=0;right=0;pointerEvents=1;fontSize=19;" vertex="1" parent="TFH7p9IeiASmlbd_Yw0B-3">
          <mxGeometry x="437" width="144" height="34" as="geometry">
            <mxRectangle width="144" height="34" as="alternateBounds" />
          </mxGeometry>
        </mxCell>
        <mxCell id="TFH7p9IeiASmlbd_Yw0B-7" value="" style="shape=tableRow;horizontal=0;startSize=0;swimlaneHead=0;swimlaneBody=0;strokeColor=inherit;top=0;left=0;bottom=0;right=0;collapsible=0;dropTarget=0;fillColor=none;points=[[0,0.5],[1,0.5]];portConstraint=eastwest;fontSize=16;" parent="TFH7p9IeiASmlbd_Yw0B-2" vertex="1">
          <mxGeometry y="34" width="581" height="31" as="geometry" />
        </mxCell>
        <mxCell id="TFH7p9IeiASmlbd_Yw0B-8" value="1" style="shape=partialRectangle;html=1;whiteSpace=wrap;connectable=0;strokeColor=inherit;overflow=hidden;fillColor=none;top=0;left=0;bottom=0;right=0;pointerEvents=1;fontSize=19;align=center;" parent="TFH7p9IeiASmlbd_Yw0B-7" vertex="1">
          <mxGeometry width="144" height="31" as="geometry">
            <mxRectangle width="144" height="31" as="alternateBounds" />
          </mxGeometry>
        </mxCell>
        <mxCell id="TFH7p9IeiASmlbd_Yw0B-9" value="7" style="shape=partialRectangle;html=1;whiteSpace=wrap;connectable=0;strokeColor=inherit;overflow=hidden;fillColor=none;top=0;left=0;bottom=0;right=0;pointerEvents=1;fontSize=19;align=center;" parent="TFH7p9IeiASmlbd_Yw0B-7" vertex="1">
          <mxGeometry x="144" width="147" height="31" as="geometry">
            <mxRectangle width="147" height="31" as="alternateBounds" />
          </mxGeometry>
        </mxCell>
        <mxCell id="TFH7p9IeiASmlbd_Yw0B-10" value="5" style="shape=partialRectangle;html=1;whiteSpace=wrap;connectable=0;strokeColor=inherit;overflow=hidden;fillColor=none;top=0;left=0;bottom=0;right=0;pointerEvents=1;fontSize=19;align=center;" parent="TFH7p9IeiASmlbd_Yw0B-7" vertex="1">
          <mxGeometry x="291" width="146" height="31" as="geometry">
            <mxRectangle width="146" height="31" as="alternateBounds" />
          </mxGeometry>
        </mxCell>
        <mxCell id="X9fpeLWt1j-jbo-fKKKr-2" value="00023" style="shape=partialRectangle;html=1;whiteSpace=wrap;connectable=0;strokeColor=inherit;overflow=hidden;fillColor=none;top=0;left=0;bottom=0;right=0;pointerEvents=1;fontSize=19;align=center;" vertex="1" parent="TFH7p9IeiASmlbd_Yw0B-7">
          <mxGeometry x="437" width="144" height="31" as="geometry">
            <mxRectangle width="144" height="31" as="alternateBounds" />
          </mxGeometry>
        </mxCell>
        <mxCell id="TFH7p9IeiASmlbd_Yw0B-11" value="" style="shape=tableRow;horizontal=0;startSize=0;swimlaneHead=0;swimlaneBody=0;strokeColor=inherit;top=0;left=0;bottom=0;right=0;collapsible=0;dropTarget=0;fillColor=none;points=[[0,0.5],[1,0.5]];portConstraint=eastwest;fontSize=16;" parent="TFH7p9IeiASmlbd_Yw0B-2" vertex="1">
          <mxGeometry y="65" width="581" height="28" as="geometry" />
        </mxCell>
        <mxCell id="TFH7p9IeiASmlbd_Yw0B-12" value="1" style="shape=partialRectangle;html=1;whiteSpace=wrap;connectable=0;strokeColor=inherit;overflow=hidden;fillColor=none;top=0;left=0;bottom=0;right=0;pointerEvents=1;fontSize=19;align=center;" parent="TFH7p9IeiASmlbd_Yw0B-11" vertex="1">
          <mxGeometry width="144" height="28" as="geometry">
            <mxRectangle width="144" height="28" as="alternateBounds" />
          </mxGeometry>
        </mxCell>
        <mxCell id="TFH7p9IeiASmlbd_Yw0B-13" value="4" style="shape=partialRectangle;html=1;whiteSpace=wrap;connectable=0;strokeColor=inherit;overflow=hidden;fillColor=none;top=0;left=0;bottom=0;right=0;pointerEvents=1;fontSize=19;align=center;" parent="TFH7p9IeiASmlbd_Yw0B-11" vertex="1">
          <mxGeometry x="144" width="147" height="28" as="geometry">
            <mxRectangle width="147" height="28" as="alternateBounds" />
          </mxGeometry>
        </mxCell>
        <mxCell id="TFH7p9IeiASmlbd_Yw0B-14" value="11" style="shape=partialRectangle;html=1;whiteSpace=wrap;connectable=0;strokeColor=inherit;overflow=hidden;fillColor=none;top=0;left=0;bottom=0;right=0;pointerEvents=1;fontSize=19;align=center;" parent="TFH7p9IeiASmlbd_Yw0B-11" vertex="1">
          <mxGeometry x="291" width="146" height="28" as="geometry">
            <mxRectangle width="146" height="28" as="alternateBounds" />
          </mxGeometry>
        </mxCell>
        <mxCell id="X9fpeLWt1j-jbo-fKKKr-3" value="00024" style="shape=partialRectangle;html=1;whiteSpace=wrap;connectable=0;strokeColor=inherit;overflow=hidden;fillColor=none;top=0;left=0;bottom=0;right=0;pointerEvents=1;fontSize=19;align=center;" vertex="1" parent="TFH7p9IeiASmlbd_Yw0B-11">
          <mxGeometry x="437" width="144" height="28" as="geometry">
            <mxRectangle width="144" height="28" as="alternateBounds" />
          </mxGeometry>
        </mxCell>
        <mxCell id="TFH7p9IeiASmlbd_Yw0B-17" style="shape=tableRow;horizontal=0;startSize=0;swimlaneHead=0;swimlaneBody=0;strokeColor=inherit;top=0;left=0;bottom=0;right=0;collapsible=0;dropTarget=0;fillColor=none;points=[[0,0.5],[1,0.5]];portConstraint=eastwest;fontSize=16;" parent="TFH7p9IeiASmlbd_Yw0B-2" vertex="1">
          <mxGeometry y="93" width="581" height="28" as="geometry" />
        </mxCell>
        <mxCell id="TFH7p9IeiASmlbd_Yw0B-18" value="2" style="shape=partialRectangle;html=1;whiteSpace=wrap;connectable=0;strokeColor=inherit;overflow=hidden;fillColor=none;top=0;left=0;bottom=0;right=0;pointerEvents=1;fontSize=19;align=center;" parent="TFH7p9IeiASmlbd_Yw0B-17" vertex="1">
          <mxGeometry width="144" height="28" as="geometry">
            <mxRectangle width="144" height="28" as="alternateBounds" />
          </mxGeometry>
        </mxCell>
        <mxCell id="TFH7p9IeiASmlbd_Yw0B-19" value="1" style="shape=partialRectangle;html=1;whiteSpace=wrap;connectable=0;strokeColor=inherit;overflow=hidden;fillColor=none;top=0;left=0;bottom=0;right=0;pointerEvents=1;fontSize=19;align=center;" parent="TFH7p9IeiASmlbd_Yw0B-17" vertex="1">
          <mxGeometry x="144" width="147" height="28" as="geometry">
            <mxRectangle width="147" height="28" as="alternateBounds" />
          </mxGeometry>
        </mxCell>
        <mxCell id="TFH7p9IeiASmlbd_Yw0B-20" value="1" style="shape=partialRectangle;html=1;whiteSpace=wrap;connectable=0;strokeColor=inherit;overflow=hidden;fillColor=none;top=0;left=0;bottom=0;right=0;pointerEvents=1;fontSize=19;align=center;" parent="TFH7p9IeiASmlbd_Yw0B-17" vertex="1">
          <mxGeometry x="291" width="146" height="28" as="geometry">
            <mxRectangle width="146" height="28" as="alternateBounds" />
          </mxGeometry>
        </mxCell>
        <mxCell id="X9fpeLWt1j-jbo-fKKKr-4" value="00025" style="shape=partialRectangle;html=1;whiteSpace=wrap;connectable=0;strokeColor=inherit;overflow=hidden;fillColor=none;top=0;left=0;bottom=0;right=0;pointerEvents=1;fontSize=19;align=center;" vertex="1" parent="TFH7p9IeiASmlbd_Yw0B-17">
          <mxGeometry x="437" width="144" height="28" as="geometry">
            <mxRectangle width="144" height="28" as="alternateBounds" />
          </mxGeometry>
        </mxCell>
        <mxCell id="TFH7p9IeiASmlbd_Yw0B-21" style="shape=tableRow;horizontal=0;startSize=0;swimlaneHead=0;swimlaneBody=0;strokeColor=inherit;top=0;left=0;bottom=0;right=0;collapsible=0;dropTarget=0;fillColor=none;points=[[0,0.5],[1,0.5]];portConstraint=eastwest;fontSize=16;" parent="TFH7p9IeiASmlbd_Yw0B-2" vertex="1">
          <mxGeometry y="121" width="581" height="28" as="geometry" />
        </mxCell>
        <mxCell id="TFH7p9IeiASmlbd_Yw0B-22" value="1" style="shape=partialRectangle;html=1;whiteSpace=wrap;connectable=0;strokeColor=inherit;overflow=hidden;fillColor=none;top=0;left=0;bottom=0;right=0;pointerEvents=1;fontSize=19;align=center;" parent="TFH7p9IeiASmlbd_Yw0B-21" vertex="1">
          <mxGeometry width="144" height="28" as="geometry">
            <mxRectangle width="144" height="28" as="alternateBounds" />
          </mxGeometry>
        </mxCell>
        <mxCell id="TFH7p9IeiASmlbd_Yw0B-23" value="2" style="shape=partialRectangle;html=1;whiteSpace=wrap;connectable=0;strokeColor=inherit;overflow=hidden;fillColor=none;top=0;left=0;bottom=0;right=0;pointerEvents=1;fontSize=19;align=center;" parent="TFH7p9IeiASmlbd_Yw0B-21" vertex="1">
          <mxGeometry x="144" width="147" height="28" as="geometry">
            <mxRectangle width="147" height="28" as="alternateBounds" />
          </mxGeometry>
        </mxCell>
        <mxCell id="TFH7p9IeiASmlbd_Yw0B-24" value="6" style="shape=partialRectangle;html=1;whiteSpace=wrap;connectable=0;strokeColor=inherit;overflow=hidden;fillColor=none;top=0;left=0;bottom=0;right=0;pointerEvents=1;fontSize=19;align=center;" parent="TFH7p9IeiASmlbd_Yw0B-21" vertex="1">
          <mxGeometry x="291" width="146" height="28" as="geometry">
            <mxRectangle width="146" height="28" as="alternateBounds" />
          </mxGeometry>
        </mxCell>
        <mxCell id="X9fpeLWt1j-jbo-fKKKr-5" value="00026" style="shape=partialRectangle;html=1;whiteSpace=wrap;connectable=0;strokeColor=inherit;overflow=hidden;fillColor=none;top=0;left=0;bottom=0;right=0;pointerEvents=1;fontSize=19;align=center;" vertex="1" parent="TFH7p9IeiASmlbd_Yw0B-21">
          <mxGeometry x="437" width="144" height="28" as="geometry">
            <mxRectangle width="144" height="28" as="alternateBounds" />
          </mxGeometry>
        </mxCell>
        <mxCell id="TFH7p9IeiASmlbd_Yw0B-25" style="shape=tableRow;horizontal=0;startSize=0;swimlaneHead=0;swimlaneBody=0;strokeColor=inherit;top=0;left=0;bottom=0;right=0;collapsible=0;dropTarget=0;fillColor=none;points=[[0,0.5],[1,0.5]];portConstraint=eastwest;fontSize=16;" parent="TFH7p9IeiASmlbd_Yw0B-2" vertex="1">
          <mxGeometry y="149" width="581" height="31" as="geometry" />
        </mxCell>
        <mxCell id="TFH7p9IeiASmlbd_Yw0B-26" value="2" style="shape=partialRectangle;html=1;whiteSpace=wrap;connectable=0;strokeColor=inherit;overflow=hidden;fillColor=none;top=0;left=0;bottom=0;right=0;pointerEvents=1;fontSize=19;align=center;" parent="TFH7p9IeiASmlbd_Yw0B-25" vertex="1">
          <mxGeometry width="144" height="31" as="geometry">
            <mxRectangle width="144" height="31" as="alternateBounds" />
          </mxGeometry>
        </mxCell>
        <mxCell id="TFH7p9IeiASmlbd_Yw0B-27" value="2" style="shape=partialRectangle;html=1;whiteSpace=wrap;connectable=0;strokeColor=inherit;overflow=hidden;fillColor=none;top=0;left=0;bottom=0;right=0;pointerEvents=1;fontSize=19;align=center;" parent="TFH7p9IeiASmlbd_Yw0B-25" vertex="1">
          <mxGeometry x="144" width="147" height="31" as="geometry">
            <mxRectangle width="147" height="31" as="alternateBounds" />
          </mxGeometry>
        </mxCell>
        <mxCell id="TFH7p9IeiASmlbd_Yw0B-28" value="12" style="shape=partialRectangle;html=1;whiteSpace=wrap;connectable=0;strokeColor=inherit;overflow=hidden;fillColor=none;top=0;left=0;bottom=0;right=0;pointerEvents=1;fontSize=19;align=center;" parent="TFH7p9IeiASmlbd_Yw0B-25" vertex="1">
          <mxGeometry x="291" width="146" height="31" as="geometry">
            <mxRectangle width="146" height="31" as="alternateBounds" />
          </mxGeometry>
        </mxCell>
        <mxCell id="X9fpeLWt1j-jbo-fKKKr-6" value="00027" style="shape=partialRectangle;html=1;whiteSpace=wrap;connectable=0;strokeColor=inherit;overflow=hidden;fillColor=none;top=0;left=0;bottom=0;right=0;pointerEvents=1;fontSize=19;align=center;" vertex="1" parent="TFH7p9IeiASmlbd_Yw0B-25">
          <mxGeometry x="437" width="144" height="31" as="geometry">
            <mxRectangle width="144" height="31" as="alternateBounds" />
          </mxGeometry>
        </mxCell>
        <mxCell id="TFH7p9IeiASmlbd_Yw0B-29" style="shape=tableRow;horizontal=0;startSize=0;swimlaneHead=0;swimlaneBody=0;strokeColor=inherit;top=0;left=0;bottom=0;right=0;collapsible=0;dropTarget=0;fillColor=none;points=[[0,0.5],[1,0.5]];portConstraint=eastwest;fontSize=16;" parent="TFH7p9IeiASmlbd_Yw0B-2" vertex="1">
          <mxGeometry y="180" width="581" height="25" as="geometry" />
        </mxCell>
        <mxCell id="TFH7p9IeiASmlbd_Yw0B-30" value="2" style="shape=partialRectangle;html=1;whiteSpace=wrap;connectable=0;strokeColor=inherit;overflow=hidden;fillColor=none;top=0;left=0;bottom=0;right=0;pointerEvents=1;fontSize=19;align=center;" parent="TFH7p9IeiASmlbd_Yw0B-29" vertex="1">
          <mxGeometry width="144" height="25" as="geometry">
            <mxRectangle width="144" height="25" as="alternateBounds" />
          </mxGeometry>
        </mxCell>
        <mxCell id="TFH7p9IeiASmlbd_Yw0B-31" value="8" style="shape=partialRectangle;html=1;whiteSpace=wrap;connectable=0;strokeColor=inherit;overflow=hidden;fillColor=none;top=0;left=0;bottom=0;right=0;pointerEvents=1;fontSize=19;align=center;" parent="TFH7p9IeiASmlbd_Yw0B-29" vertex="1">
          <mxGeometry x="144" width="147" height="25" as="geometry">
            <mxRectangle width="147" height="25" as="alternateBounds" />
          </mxGeometry>
        </mxCell>
        <mxCell id="TFH7p9IeiASmlbd_Yw0B-32" value="3" style="shape=partialRectangle;html=1;whiteSpace=wrap;connectable=0;strokeColor=inherit;overflow=hidden;fillColor=none;top=0;left=0;bottom=0;right=0;pointerEvents=1;fontSize=19;align=center;" parent="TFH7p9IeiASmlbd_Yw0B-29" vertex="1">
          <mxGeometry x="291" width="146" height="25" as="geometry">
            <mxRectangle width="146" height="25" as="alternateBounds" />
          </mxGeometry>
        </mxCell>
        <mxCell id="X9fpeLWt1j-jbo-fKKKr-7" value="00028" style="shape=partialRectangle;html=1;whiteSpace=wrap;connectable=0;strokeColor=inherit;overflow=hidden;fillColor=none;top=0;left=0;bottom=0;right=0;pointerEvents=1;fontSize=19;align=center;" vertex="1" parent="TFH7p9IeiASmlbd_Yw0B-29">
          <mxGeometry x="437" width="144" height="25" as="geometry">
            <mxRectangle width="144" height="25" as="alternateBounds" />
          </mxGeometry>
        </mxCell>
        <mxCell id="TFH7p9IeiASmlbd_Yw0B-33" style="shape=tableRow;horizontal=0;startSize=0;swimlaneHead=0;swimlaneBody=0;strokeColor=inherit;top=0;left=0;bottom=0;right=0;collapsible=0;dropTarget=0;fillColor=none;points=[[0,0.5],[1,0.5]];portConstraint=eastwest;fontSize=16;" parent="TFH7p9IeiASmlbd_Yw0B-2" vertex="1">
          <mxGeometry y="205" width="581" height="30" as="geometry" />
        </mxCell>
        <mxCell id="TFH7p9IeiASmlbd_Yw0B-34" value="1" style="shape=partialRectangle;html=1;whiteSpace=wrap;connectable=0;strokeColor=inherit;overflow=hidden;fillColor=none;top=0;left=0;bottom=0;right=0;pointerEvents=1;fontSize=19;align=center;" parent="TFH7p9IeiASmlbd_Yw0B-33" vertex="1">
          <mxGeometry width="144" height="30" as="geometry">
            <mxRectangle width="144" height="30" as="alternateBounds" />
          </mxGeometry>
        </mxCell>
        <mxCell id="TFH7p9IeiASmlbd_Yw0B-35" value="5" style="shape=partialRectangle;html=1;whiteSpace=wrap;connectable=0;strokeColor=inherit;overflow=hidden;fillColor=none;top=0;left=0;bottom=0;right=0;pointerEvents=1;fontSize=19;align=center;" parent="TFH7p9IeiASmlbd_Yw0B-33" vertex="1">
          <mxGeometry x="144" width="147" height="30" as="geometry">
            <mxRectangle width="147" height="30" as="alternateBounds" />
          </mxGeometry>
        </mxCell>
        <mxCell id="TFH7p9IeiASmlbd_Yw0B-36" value="10" style="shape=partialRectangle;html=1;whiteSpace=wrap;connectable=0;strokeColor=inherit;overflow=hidden;fillColor=none;top=0;left=0;bottom=0;right=0;pointerEvents=1;fontSize=19;align=center;" parent="TFH7p9IeiASmlbd_Yw0B-33" vertex="1">
          <mxGeometry x="291" width="146" height="30" as="geometry">
            <mxRectangle width="146" height="30" as="alternateBounds" />
          </mxGeometry>
        </mxCell>
        <mxCell id="X9fpeLWt1j-jbo-fKKKr-8" value="00029" style="shape=partialRectangle;html=1;whiteSpace=wrap;connectable=0;strokeColor=inherit;overflow=hidden;fillColor=none;top=0;left=0;bottom=0;right=0;pointerEvents=1;fontSize=19;align=center;" vertex="1" parent="TFH7p9IeiASmlbd_Yw0B-33">
          <mxGeometry x="437" width="144" height="30" as="geometry">
            <mxRectangle width="144" height="30" as="alternateBounds" />
          </mxGeometry>
        </mxCell>
        <mxCell id="TFH7p9IeiASmlbd_Yw0B-37" style="shape=tableRow;horizontal=0;startSize=0;swimlaneHead=0;swimlaneBody=0;strokeColor=inherit;top=0;left=0;bottom=0;right=0;collapsible=0;dropTarget=0;fillColor=none;points=[[0,0.5],[1,0.5]];portConstraint=eastwest;fontSize=16;" parent="TFH7p9IeiASmlbd_Yw0B-2" vertex="1">
          <mxGeometry y="235" width="581" height="29" as="geometry" />
        </mxCell>
        <mxCell id="TFH7p9IeiASmlbd_Yw0B-38" value="1" style="shape=partialRectangle;html=1;whiteSpace=wrap;connectable=0;strokeColor=inherit;overflow=hidden;fillColor=none;top=0;left=0;bottom=0;right=0;pointerEvents=1;fontSize=19;" parent="TFH7p9IeiASmlbd_Yw0B-37" vertex="1">
          <mxGeometry width="144" height="29" as="geometry">
            <mxRectangle width="144" height="29" as="alternateBounds" />
          </mxGeometry>
        </mxCell>
        <mxCell id="TFH7p9IeiASmlbd_Yw0B-39" value="12" style="shape=partialRectangle;html=1;whiteSpace=wrap;connectable=0;strokeColor=inherit;overflow=hidden;fillColor=none;top=0;left=0;bottom=0;right=0;pointerEvents=1;fontSize=19;" parent="TFH7p9IeiASmlbd_Yw0B-37" vertex="1">
          <mxGeometry x="144" width="147" height="29" as="geometry">
            <mxRectangle width="147" height="29" as="alternateBounds" />
          </mxGeometry>
        </mxCell>
        <mxCell id="TFH7p9IeiASmlbd_Yw0B-40" value="6" style="shape=partialRectangle;html=1;whiteSpace=wrap;connectable=0;strokeColor=inherit;overflow=hidden;fillColor=none;top=0;left=0;bottom=0;right=0;pointerEvents=1;fontSize=19;" parent="TFH7p9IeiASmlbd_Yw0B-37" vertex="1">
          <mxGeometry x="291" width="146" height="29" as="geometry">
            <mxRectangle width="146" height="29" as="alternateBounds" />
          </mxGeometry>
        </mxCell>
        <mxCell id="X9fpeLWt1j-jbo-fKKKr-9" value="00030" style="shape=partialRectangle;html=1;whiteSpace=wrap;connectable=0;strokeColor=inherit;overflow=hidden;fillColor=none;top=0;left=0;bottom=0;right=0;pointerEvents=1;fontSize=19;" vertex="1" parent="TFH7p9IeiASmlbd_Yw0B-37">
          <mxGeometry x="437" width="144" height="29" as="geometry">
            <mxRectangle width="144" height="29" as="alternateBounds" />
          </mxGeometry>
        </mxCell>
        <mxCell id="TFH7p9IeiASmlbd_Yw0B-41" style="shape=tableRow;horizontal=0;startSize=0;swimlaneHead=0;swimlaneBody=0;strokeColor=inherit;top=0;left=0;bottom=0;right=0;collapsible=0;dropTarget=0;fillColor=none;points=[[0,0.5],[1,0.5]];portConstraint=eastwest;fontSize=16;" parent="TFH7p9IeiASmlbd_Yw0B-2" vertex="1">
          <mxGeometry y="264" width="581" height="28" as="geometry" />
        </mxCell>
        <mxCell id="TFH7p9IeiASmlbd_Yw0B-42" value="1" style="shape=partialRectangle;html=1;whiteSpace=wrap;connectable=0;strokeColor=inherit;overflow=hidden;fillColor=none;top=0;left=0;bottom=0;right=0;pointerEvents=1;fontSize=19;" parent="TFH7p9IeiASmlbd_Yw0B-41" vertex="1">
          <mxGeometry width="144" height="28" as="geometry">
            <mxRectangle width="144" height="28" as="alternateBounds" />
          </mxGeometry>
        </mxCell>
        <mxCell id="TFH7p9IeiASmlbd_Yw0B-43" value="3" style="shape=partialRectangle;html=1;whiteSpace=wrap;connectable=0;strokeColor=inherit;overflow=hidden;fillColor=none;top=0;left=0;bottom=0;right=0;pointerEvents=1;fontSize=19;" parent="TFH7p9IeiASmlbd_Yw0B-41" vertex="1">
          <mxGeometry x="144" width="147" height="28" as="geometry">
            <mxRectangle width="147" height="28" as="alternateBounds" />
          </mxGeometry>
        </mxCell>
        <mxCell id="TFH7p9IeiASmlbd_Yw0B-44" value="5" style="shape=partialRectangle;html=1;whiteSpace=wrap;connectable=0;strokeColor=inherit;overflow=hidden;fillColor=none;top=0;left=0;bottom=0;right=0;pointerEvents=1;fontSize=19;" parent="TFH7p9IeiASmlbd_Yw0B-41" vertex="1">
          <mxGeometry x="291" width="146" height="28" as="geometry">
            <mxRectangle width="146" height="28" as="alternateBounds" />
          </mxGeometry>
        </mxCell>
        <mxCell id="X9fpeLWt1j-jbo-fKKKr-10" value="00031" style="shape=partialRectangle;html=1;whiteSpace=wrap;connectable=0;strokeColor=inherit;overflow=hidden;fillColor=none;top=0;left=0;bottom=0;right=0;pointerEvents=1;fontSize=19;" vertex="1" parent="TFH7p9IeiASmlbd_Yw0B-41">
          <mxGeometry x="437" width="144" height="28" as="geometry">
            <mxRectangle width="144" height="28" as="alternateBounds" />
          </mxGeometry>
        </mxCell>
        <mxCell id="TFH7p9IeiASmlbd_Yw0B-45" style="shape=tableRow;horizontal=0;startSize=0;swimlaneHead=0;swimlaneBody=0;strokeColor=inherit;top=0;left=0;bottom=0;right=0;collapsible=0;dropTarget=0;fillColor=none;points=[[0,0.5],[1,0.5]];portConstraint=eastwest;fontSize=16;" parent="TFH7p9IeiASmlbd_Yw0B-2" vertex="1">
          <mxGeometry y="292" width="581" height="29" as="geometry" />
        </mxCell>
        <mxCell id="TFH7p9IeiASmlbd_Yw0B-46" value="2" style="shape=partialRectangle;html=1;whiteSpace=wrap;connectable=0;strokeColor=inherit;overflow=hidden;fillColor=none;top=0;left=0;bottom=0;right=0;pointerEvents=1;fontSize=19;" parent="TFH7p9IeiASmlbd_Yw0B-45" vertex="1">
          <mxGeometry width="144" height="29" as="geometry">
            <mxRectangle width="144" height="29" as="alternateBounds" />
          </mxGeometry>
        </mxCell>
        <mxCell id="TFH7p9IeiASmlbd_Yw0B-47" value="6" style="shape=partialRectangle;html=1;whiteSpace=wrap;connectable=0;strokeColor=inherit;overflow=hidden;fillColor=none;top=0;left=0;bottom=0;right=0;pointerEvents=1;fontSize=19;" parent="TFH7p9IeiASmlbd_Yw0B-45" vertex="1">
          <mxGeometry x="144" width="147" height="29" as="geometry">
            <mxRectangle width="147" height="29" as="alternateBounds" />
          </mxGeometry>
        </mxCell>
        <mxCell id="TFH7p9IeiASmlbd_Yw0B-48" value="8" style="shape=partialRectangle;html=1;whiteSpace=wrap;connectable=0;strokeColor=inherit;overflow=hidden;fillColor=none;top=0;left=0;bottom=0;right=0;pointerEvents=1;fontSize=19;" parent="TFH7p9IeiASmlbd_Yw0B-45" vertex="1">
          <mxGeometry x="291" width="146" height="29" as="geometry">
            <mxRectangle width="146" height="29" as="alternateBounds" />
          </mxGeometry>
        </mxCell>
        <mxCell id="X9fpeLWt1j-jbo-fKKKr-11" value="00032" style="shape=partialRectangle;html=1;whiteSpace=wrap;connectable=0;strokeColor=inherit;overflow=hidden;fillColor=none;top=0;left=0;bottom=0;right=0;pointerEvents=1;fontSize=19;" vertex="1" parent="TFH7p9IeiASmlbd_Yw0B-45">
          <mxGeometry x="437" width="144" height="29" as="geometry">
            <mxRectangle width="144" height="29" as="alternateBounds" />
          </mxGeometry>
        </mxCell>
        <mxCell id="X9fpeLWt1j-jbo-fKKKr-14" value="" style="endArrow=none;dashed=1;html=1;rounded=0;" edge="1" parent="1">
          <mxGeometry width="50" height="50" relative="1" as="geometry">
            <mxPoint x="2" y="549" as="sourcePoint" />
            <mxPoint x="848" y="549" as="targetPoint" />
          </mxGeometry>
        </mxCell>
        <mxCell id="X9fpeLWt1j-jbo-fKKKr-80" value="" style="shape=image;verticalLabelPosition=bottom;labelBackgroundColor=default;verticalAlign=top;imageAspect=0;image=data:image/png,iVBORw0KGgoAAAANSUhEUgAAAJYAAAHCCAYAAAANaTC3AAAAAXNSR0IArs4c6QAAAARnQU1BAACxjwv8YQUAAAAJcEhZcwAAD2EAAA9hAag/p2kAAEhSSURBVHhe7d0HuG1XUQfw2DtFBSFKF5AuEEAQpCMQkK7ShVBCLwEkhCoI0iGhKEi1gDQBCVIEhSCIvSsWFHtBURADqOj8wlt4ODnn3VPWOmevdWe+b7578/LeKXvPnvKf/8w6JiUlJSUlJSUlJSUlJSUlJSUlJSUlJSUlJSUlJSUlJSUlJSVlFPny0K8K/brQr/AHKSnbyvlDjw/9gdDHhD449Lah3xz6paEpKWvL14beJfTZoa8MfV3oG0JPD31G6LVD/Z2UlLXkEqGPDH1j6JtD3xLKsH469B2hLwm9WehXh6akrCyXD31B6OtD3xb6M6GPDv2J0J8MfVPoC0OvEvpFoSkpK8kVQ3koBvXk0O8MlcB/R+hLQ98ayrgYm1wsJWUluW7o00J/PPT5oUJjkW8P/dHQYnj3Cr1waErKQvni0C/73K/H3ChUHvXuUMZ12dAiQt9NQl8dKgdjZCeEni80JeVsArP6ks/9eswtQ0uO9bzQbwudFXDD7ULlWb8Z+muh1w/9ytCUlC8QHosSofBVob8Y+mOhFwmdF8Z159APhPp77wkVFhOGSDmbFMO6QehrQ38hlFf61tBFAm64Q+hPhf5uKIzrjqElpKaknCUFOpCgMyieCI6lKlwmjOgeobAu/0bovFZoovMpZ5MLhj43VHhjWDcPLd5skfh/Nw49LVQ1KSTCuORtKSmfF0n4U0IZFrzqB0PPGXqQfGOo/OwJoYzs9qFfH5qS8nn53tDfCWVYLw69VOiqIkeDc70/9NTQK4em90o5Sy4e+orQt4fCrG4RerRwOCsXC5XI/3zor4f+Uqh2EHzsAqGoOKu+Vspggn/10NCfC9V81pQ+R+hBogDg3e4fCplXAIAkfiXUawmR3xcqb1MUnDdU6E1DO0QiXwKSnhH6xFDV3qqih/iA0JeF8ly8ltCIHfH0UIYFiIWFgSh4s2uEMspzhSZkMbB8Q+jjQ+FZPA8Ptg4AyusxTo1sOdevhjJUr3PPUOFVHxKyf9NQxoZUCL5gaAwZhsZTpkcbSIQ1XuVFoYwLlOBmr3uTeS9AqlAomWcscq3vDmVccjK4F0M8T6gQie91YugpoQ8K9feuGqrhzbhL+ymlUzl36ONCoesYpE8KBSusK4wRHYdnYjyMlh4bymvNc+qFQu/j7/9wKKNG0/H+PJ4cTrUJc0vCYafCg7w8VP8Qws77bDpcwZjmoQfeZxlSzyBxwXg4OZgw+axQVScj49H82WVCLxeaRtaJ8BxyLSDpU0N/NlS1912h+whHPo9Kkvf7ntBHhP5Q6P1CMTLuE4p54e9kuJyg8CrCjJsHSQeSQuJ5LKHI9M7XhO5TGI5QjdnqM50cit3KwB4b+v2h3xKaBjYBEeKU/LcJVc2Z0BECJd54V+AD5D43jeFNpVoTAn1uHgy88d5QnhXtB5yBiJiV5R7Ejbl06K1DJerPCYW6gwjcpD8OhUO9L1QSDzCdIrlPwv+QUNx8HhYGB+LgdY2tCespOxBhwtOs9Fd5vSbUEy/kYYf+UejfHdHfCEVXZnR6ifsOhcuE1wWLwOA8BL915KcWleb6JUMVESmNhGFIgpXuenmGUz3h7wz989B/Dv2b0H8K/ctQDWl/V8jpIayoJk1za0l5ICig1yAuTCwb45WFUcCPYETaKwxJuGM4DItR/UXof4QyKE885FyPbxX6zNTEWoCHh+KW8braS/hm8kQN8ZQKIvTBhHClfiS0oOqe5F8+8vNDoZ8M/dvQPwjFDD0utGcRHu2eUIjoV8q/5F63Ck3sa0vxdF4hFOZjXpAXKmP0LjbPZfKZcf1L6O+FQt1hQiOIvOpqob43toUqVwpw39BvCk3ZQOA9QE1ApydV2GM4DIrH4q2EiD8M9ef+P6BxxDwEp1+byAP1wVAeWc6VjIo1xFOqxMbqVIa7iCZwqLzKhWVYvBVCn9AoQV808tWTHFT1XSgUZMJzowRhU6zCN0sJkU9J0u8UCjkHGMotgJ1CoN/lUJ5c4YE309jdtA84JUHFAaEAcZd9H+Hv3qG6CKrjTORXEG4dvVg4g09hcQp3fvJOfjc+D5OS0Grkan+Mgu/w0jhfDAf95jqhBjvmvx9jkkOCJlIOEEYlSUUzwUrgrfTQGBM44U9CNW7hU7Ad7IURn1bXAdTg++ko6Cf6XVWcsqagnwgDGrLQcwYlnzJxw6D8mcpPJaTnJ/SN4qWWie/HI0nQYXEa1GCGXAewosip8JJsf+GpwAa/HcqotGQk6e8K1f3XZD6MOYUEXVNaMx1oKl0YIadsJtB0PTCVjsrPGiJNY9AB5Bx8IEHXL9NHO8ztDA+UVk8hCwqT2ZxeIIwKvddC2meGFsBT4xUIyEsxKkg7DCfpI5+7BroJUgYFDCCY98prc0RcCMMIMCpeikEZEkVvkUtpz0jaLesQJkfPp9YVnorHwj0TGpEG8xqFGExQUnvygH0wKpUeWEHiDkp4VOjsuseULxTVI8xLY1q7i1c/1NtyNE89bThGPJWcCkkP65PHQtQDeuaO0INFzgl9h+0hCZpxPJTNaZUMBifIwIADKOGvQpHz/BQGJfHpqVYX1/SuoVpb8tOTQg/V+kt5laFPX9zTxVsBPvX+5FTaNMht87tDpybCzdTyGfmqIsf1pEJkjxy0jQSV2JOl0oNVlZ6f3ApDAU51pdCpCmPSXimzgFMSn821lZti1IoAWkLDY12+oP6fKkYjmWHJqdBdAKAazVMn5Rl4wEfXVtLHnBp3Xr6lHSYCfCzUDAC27bAJPaPS6zIJ7InyNAE/eSvouj+/eujUsRh4kSRZBashrs0yNY8Aoef5RQD5qwcY1WY4KXmVp1zlV2AF1R9+uj9jVD0MZ+rRCS9COa/A41oCMrUHAifNA/xnofLYu4UiTA4lOvLCh0pPI9kX5a1gVZaZSTJ7atOgSBvZ94AYcMBqhR9NTfC0NPF5LJ8RYbKHh3cl8YTbSixJV/XxTryVJ15I8WV7bCiXRbhuGkDXbqypHfrEi1qhVOYtgdAGe4cQTeOHhQobmsp+Yi0ARnmqnoE8HsFgg+KDZzBJMzXsqEAQPieMy4ab7k89EwKxO4VAhD2V3++Hiv2azr1jLFpSynqjZoZjhfupgbq81vVCFRrUfTCT2G2VqIdlFxUQtIyKF3gB5HBsaO/i0E3DDEL8maG+o9J+alUiSAQgraGvSsQi6XbgRFluQSwU3cmmXLEnRv+Pe546rHCQKDZUWuW7CfPaUQxtk62Bs9IC0Xe8ns8J22JcWLhT3V+xVFz0a4ZKGiW2qkBfyloesELvSLCHwrEoKloe+K9D/y2UR5A7bpsgM6zaLSOvhZ0L2/rTUMUUmk1Xws0qx3krs388lZAor7KuusUTuStxw30/84sowvhjsKKPhiImWoArRG7zHf1bmFNtry5SGHZFnnRP0Gy6mfBxMVBnYVSoL/IqT4knuZdNL8tExWeXKAp1YWb4broHknc3TCgEBm/78DBOo12bvM6yfyNSWEfp3nggDPjyWl3cEw1aLlcFqFUjBLrgSvHuYvqMyJvgcUp3bFdAL+jEDi5ww0dCMQrkLjWmklXUqrnawLFcS09WnuWhMPDaBSKv6+9pFhLw17VtAHOewB5RX6GPUd0wVEuKF2ZAwjzoxCGaknaVoaa0zXs1Snlex74K09CbeK1l1xq7hKdyX4RwQxkKrcmLYVMgnCYzwh6P5b/LfvReRHiAs2FbqP48KFiuFrp9IlT3wC4uBiUZ9t8a0nLIWnL3UJ5+ExAZ3LNIfD5eV0HF43pAfO5Jt9QYjgshVHgi9NE84UDSngYsfY+y4cYEskkYXkouZffWx0N5KUbmp1CPCiQ5rikeUgaN97VJHrTIWORZknZh0HcSxjFLJr3uyQ0BimpvqAYZlR4VNkBPhqV3KaRJxCXovgtvxTMxKtCCKhAzw1Mv1GtM1w718lXvz3Ntkp/6PIsM0iS1dKXkibyWFGay4ktoehrXEiY8yXIQrnfKQ5VugFB90VDeQWjwHWBwjEm4k0/9a+h/hjKqT4VK2C0/g7a3CCWMyUg9EHZTCGNRvqfHia+lOhQS/TSAMelURTmOteBptg6bmmB2w6bwwRkR2AB+w9hBA8BOs41G+1F7/a6fyUsxKknuh0MZlt2mNgZa8Y0F65CCVo10YUtfDyPE9plNWCCu+bzXsmyEYancgbruEQhl0sMXqg4hRN+MCodcrkO8lyWUq8gmOYanVQjWzceXQnVRXqO4oO0IYZqy8hjNZGGnzDQqPORUcii7I/y0LFdOIn8Ejlov1PJmMAqGzgBsS960vzd/7RQlqkE93FLl6iVOelTfhQaQyrPcJFgW1F0CvE3j+SBvxxMxIuGMEUm85Xs4U8IVUh7aiFaGnIJX5aH87qktW5ZVs1TuQT0cwMRyjK82lSpXYr2L1hQA07XTDrMMZZ0HjIcr1fjsv/OAm5z2gOhxwrU0pic9w+lLKGklnG4MRFpIscBCn7CWuFDyGtWbhSLAS+/pgunfCWW8jqeRx5TvwdX8rlpVVPACvBR+mGqPcbnQQE/GxSsVg7T6W7jwPbRFhCb4T+2EfV6kEL6PXEiFuk449CALpXC4+QdT9S5vFOoZGLhEf3fS4ktYZagE5wVUVW40JHmTkFbEv5UbCQk8kjWS2BK8jzyO8kBCGe8ihEh8vTdDEc7kE7wPfI3BUMYnjyorvP0bSbNcS0UrB3NzIOq+g7DhKWdg/rul51JtMnyfkedfx6u4VpJyn9E9mTUuBQeDcj2Ed4bLCLe5PzsRHxCu46b74KpDLl1F4klaFUj0OnICrQgnprqpXgdWhsfNKzEgPyXTnm6hj8G4WHqVtPwdeYXEFSmPUQovUHV5FsV2tUdeFSZfXOSRGLb8jAFjOJjqbuW5tHbKg+E7aeSv6rVcO/u0tNjmm9pCLAKmNIA396DIP3cR3rcWF9tFd7PlKryBL6D14UschG2ptrhnp2IxFnuyGItwJkQJZ4zFfzMyCbgciMeRP3kvN4NxWzyCHybvEl4k9N5fvuGCC6s8khLfxfXnPv98CCH+vqdbGBXuQRO82qK/u63wlEIw78IQXLd1knhpgsJJte7zFeNSGVp/5Hry3vJhLauanYOm4obxCkpmT4Z8yxdxkZad0eyG8lIWXciDGJR/Kw9wIfzOA6lo/D8GJfmElwm/LhDP45R5lRvPqeemqBBaahgAI3TDeUCey3u7ibWFp1HB8VoeEPAGT7qqeEA8TCp1D2q53ryez+9aMioPvZySIXcjjEucZyS+iEpRziCZdqN9Sd6DMSl5PZGMgJHwTCVf8m/dRH/mJ0/B+wlrLpKn2b9DtPM6PE8JUVoWDLxm64IhCYU+n89j5VLtUyIYlocQ1wtEAjVf16somlyr0mx2TdwTE9NAXgWW12bA3Q228hLyJB9evoV1KSlVoem2y5uc+K7y4XGEMt6AMblxjFA4hDupzBDtuHh5F+OUtzHQYkiLxMWsLTcJ5Y2FZQYvP6uZpzBU18I1cx3kWEf7jovEghV5pYevnNoKFlJBy7HK9JQ2T7dro3glwxS+EOBR303lqCrzZwyIQblRjMp/S9RVYG6apBNhUI4kHwKCtshtVhVGpAgQlqnKVL5VS4Txksu5Jkbm1v2+cD0PJCzMw2vbtGvnoVRFl0qZ9+167lCcd/HlS3qK/xj6D6EqH3/GLcubbKlz0zSEPbnFI+3TkBYJQy8rmTwMYAoPUA2RIypQXCfXZZNQJXR6WBU51npjN8jT/M7g5LyoynK47gdaGZfKBFVW8uhAAF/QEy8Xgx8JcZLkRQn+lMTnw9niWRgBD6t9tG7ImhcPkIY4g1BVA2kPqqQXic9RoAUPKRqTvIuR8mBgFkWQbomKeQiR93hKIOcPPvKTd9qmr7gPgTfxsDAzuZa2jz/bVBiVsFdaL4wCWr5J/ua1dAq8hkqZus4iQOGc4WSpCj3Mw8nUQtw64rMDIxkVSEVodPM2pSlLrnkoMIPiQP4jfG16jXhQOaAEXmVZcjVVMnReeHRW9qQJf4dVVFQqK9WbkCg/3BRwBA1ICwC+wuy225AVAUIdg5e0WywshFMGy1NpWG8bvlMaiDBlzK1QUVRhIJZNpIRA0ApIY1vOl74hSEeVDe+T286yUtOgJiyefpCISst4lZaSvGhdzpYck9dTJfv32jHb3nj5FARe6wv+J+dSPKVMSOQmy3IdRgBvwuhgHLzEukm8niZvBWOSXNdY6sa4Je3CIY6afHDqm6kPpfAgi2AQ7SgJN8xJONRVWAcw1dP0b1GhrSkACEPLtxWGJUFHCIBX8VpT3k59aIXHYljznksCDBficbBV4UNC0CqJN2PlSRgkQNTNV1nW2K+giDClrcLU3sFsmPRkzmGWRYalXC9JMuAX6Is0uEqeJWTqOGix8Fo8HShgkWdcV7TAFBOAUgUGtkPN1lNKZZk3LN7FTZPL8FhYGWCHg1o8vBUP5d8wSoi4KexaLRYzirhpmv5+8looOCmdiJCnlGdQ2jBCIg92EJ1GHiVZl/TzLAyKB6vVgRCiheWy1pJXlMyndCIMS2sKQGpYgaEAOY/G+iz/xs3WEgKIyolq0nyEaN7QbGRZEQBySOlEhEYhTWXISFR32jxHY5cyLOHJxIxGdovpH4O5hmwZlIa/vRM8a0onwrAwVdFQqL4hIzOcsUzQV5DteBSDDzWJgkXQwFGTylITPDjN55SORFKM6oJNACSFGxlwXSSSerRmjFoJdY1tgIvkgaHIlHZPlOFcXYKUjsTZOrwUo5I3ScadwLEINhCOtG54K9yrdds/q4gCgNEKf/ZO/Huo/M8cQkpHomnMS2GUakjrGaKpzBuWBjUDxKAVMo26tfBWWBeqVAaFDi7HYsw1WkUpOxRoOaDTzdQ35Lks95gVTFB8Kwg7T4LO0mophzE6oY+3AjdI4IVqEERKR2JIF5cK5MCo3ERUlVmP5e/ArezfYoBG3lt4KwK+YEwSdkaMeQG07Y2le+hF7oL3bsBW3w+SDowshqXRrBnM6IQnQCoi3ir9xHUFFmZtE8OCYSkS5HMOJU3pTNCA9eRM7Mid7JSQmPMQ1JQ2jMtWGzfbHggG0MKwIPqMHJ4GcYeVCcHb8PFT9iRyGh5JCwWWBfxEBWZUFpDwYIzKzdbuMecHdmgRCnlPfUte0dCrsKxCzTDYoRitwn03ZGoQFFOBx9IIRrKzfYf6/7AkIbLGoQPzwguacWRMZTMPpkWtmceUHYv8BW4E+LRGAOSAYixhl1epzCTQ5icNMqAN29FQW4Q7nHkcLBQeFaoB2JRORYsGc5RhoanIp9BgGFjJdYTDAlDiSq2zQWYV4QWFX94SSCvfswOiBhs1ZU+iLyh5550KdYYCQv8+FHCqUV0mbxhB7c3LMDGsCgi7sMvI9TBbIPspOxLsBB7LvgT9QmGPQfFUQqP1TC0HGRQB9u3zlDb0MHDeMiGGzsXmZixSbRNot6avVgogVAvH7tSaXKt5EVZBDGjRQqDkXc53ENkwZeKiByifEYLQVICgvBbowUCD6rCVwMIMZMDOYGiQfaszQRqtkP2UHYlZQKg7L8VjublCIpZD6415KM1wKzhZ2VYN0th01D9lIsIr4D5pnSDWaaVYjWlVY2s2ASxMs1txwEMWDK3FbtSUHYrqziQ0INJp8ZJ14VBupSIrvcIWYg+DFZsS9VIoAGCtJ2oZelN2IDwSfrswVA5OkFcZlGhBN54VzFMNb+8L9Rd+tZQwV0tu5WdL405pIKZwlPSoKbAjN9WIPE81u9WlhVihrQotmxF5KrQYBj2LWzGqTOA7EoQ5yTqmghsLjLT3XcO5NSDp9W1S1mCW0wm7wqH3n4cX0qg6Egg3aMHkC8PSj5PXqMRq7FxYJozEiJgTMuyAh5VR3or30pdM6VQYjkZyOeBJoo45ag1Rq4SZQSEFagkxIJ7SvCCjlrQzbDhW7bnElB0JNoJ9nnIpWJWkWWPZ6RRufEuB7POSwq7w51T9M0OdaosC3Yo7n9JYeCO4FKwIXiUE+V1eozJslcsg58mbClcepCAEUywK79/VWTgp/y9uLrKc8MdTYCxInI17SdZbwQqMldFgpwJAVZ9UCATCattoJWWC3qEo103TKOvlVLyGMIh6jMjXElYQehm0qk+CjtfFqOV1EHZH77VsbKc0FAQ+WJU9CxJlHkuj96TQFgzQIiCFckIF2o1ZRKGXCoPOGZLXpbfqUC4RappG2EPeKyfc47C3nHhR3TnrmpfEBDUIC9k3H6gHKYmHYyWBr0PR3GVAiHM4TjyGMSrJsq17rYQHMphhtZGcTpEg/DIwyz0MSIA2krnQochbcKgYlBsqp1GNqcwk0i3xIsm683m8N9JgYSwwLp6TtyqHW6Z0JpBtzV0eqngqochYlemaVuK1jcYDPxmyNg2qsxyPoeF2mbjJvKpD0VhW8UnUi1Eh7LU+4pYXNE3thAveyXtaGmI0Xm6nue3smzSqDkW7xlnTDKpAC5J1XPKWIKjXxQLFTFAF8lA8pEQdVuXPWyP7KY3Ezb13KDQbYa8sKpNjGYRoGQIh64oCeJU+oBAoHCIP+kxpVB2Lm4c3DtUus4AMy4n5LQ824iXxtxg0DwXWQMHxWTScc9i0Uzk21Nk1bqKG7kdDDZrKa0ANaMetGJimaxxQyUMJeaZs0GGwJxxQmUbVqdiwZymtmypZhhlhD0iYeY/7h7YEIeFV2BHgBMYl9AmJ1k5a9ZjSoWgc2//JO7ix2iRoMNonWjZaJkc7AGAbkc+hwRgo5SU/EiqnMsls30MOmXYqSnshTrhR3oMU4EYASUZl/4E5wRZVoLAqn3NokrCnsSyvUgUa48odoR2LHQpAUOwEXkqyjpYi/MmvbN9rwVpgqOb9FARgBeEXe8EcoJ+tB1tTGooqTMjBo0IpFgIZlLYNzMpij1qnb80Ko5KMO8uGdxJ+GZYKkCFnTtW5oMEIgUp8+RRIQfjTkzMPqBdYe6UioxLi9B+Bn97Te5kF1OiWb6V0LBgB8hinSCDJgRQ0drEIDJoak2+R45QeoFyKV/Tetu6hxrTkdKXsSK4d6pCi2a13whLPZWma00drY1aYEt4XMwLz1IkV+FWgjDSqAQRmxaB4JcalAuRBsAbkOTxK7QWwAFDj7lZhm+yxVZmXhFk5SzBlALlcqDD46FDeipfirSTQmAPYojWF58ObAisIs2g4DAvXCuW4xX73lB0L3AqaLa8xsawChCGpzIQmTeaaN1qyjrpcltuqOiXr8DGrG1svC0nZkWBl4jYJQZq9wp/ZQB4LJaU20m141BApbMx7wcbsBbXEP3nqgwjvYaeCkMdTQdmFJlPEbnxtnpVNyLcLFW6NbOn/wcbkdvK8lEHEmYHCkJCnH6eFYuhTj05SXfN0CPiXPe56gN5TqJW0O/gy+38DibCDEWrXAU+FFcqgzAbyJNgFtYTXg9hrXjMqlabtxXZWOSwgZSCxRhENBhtUT5CnwiRQ8j88tGa+Yx02I8IC5akKQ8Lm4pSBhJeAVcmlzONBvP3OsISqmm0UDWs4mLBXjMpEjUq05b6slB0LtBt7AYHPflArstFiDEnwXPCsWrOBXkdeZbKHIQu5hi9yx/qAgppycqgch6fyE4fdkMTLQmvuksJKgOSb6AFf4KofH1rLcFMmIqgpbrRBT8Akg1INyq+EKAS/WiLMAUF5Ko1sGJkGc5L1BhPoOZ6Vqkz1pxoUBg1I8CjA0Fprf7wXlgRvqNpkVEKvodJWwxcpexJgpwO+MQnkUkh8jEsIhHw78LuWYKEyJK8PxbcZ5oTQRNYHE4kyb2EfqNYNiEHCXnIsFVqtZBqoKodTYX4mFB3GFpgk7A0qwhPyHPKewVNVIM4VNkEtDrukXHKuXSNv+1Qow5LX5WHegwrmgCFToYnH0hs0iOpokFrCK1lyK4fD55JbGca4TGjKgGKrsQO2bb3jSVSDci1L9WtRYlCMNZi9LoT9v0MZlUowD0UaUDAKUH3lVvqAJpol0/cLrUX/lZ9dMRT4afDCuNb/hn42FG6WleCAAvnmrfQFPx3Ka2Fq1kymcbp4Jisc5W7yKj8xQ3N5/2DCS8ih7hAqYeepGJbfjXfVYmoWzMocogZ2GYv3u+ZzouyDiTF4ACjvpAqEW1Gbjmvyn4zE427hdDEouJj3dYBAngoxmEDQDZ5KpDFCEfhgSrArG2RqJezaNmjGDkKSqDMqRgzJv2VorfdJmYiYuoGm2ykFVgAvuPFm9mrlPEIc0NUQBlhBtel9MBgQ+VouZEvZg/ASVigyKkxQSbtkWiJ9+dBaFRoDxVWHjeFZyamEQqdUAF0ztxpMTCzjP/FOkHWhiTeBftcyKij6tUIR9hgsLwV4VQlafeRwpJSBhJfA1pSwmxF0w3krOZahhVpeRLWHDYESg3Yj3Go4+2/eshZLImUiYmfoqaGASjkWzEoohC/V4loVeEEVKARK1HlFHktD29h8ymCCpSAUnRZqGFQIxNzEaqiVTHudU0Kh9+YRkfhwungs08w5HziYYCg4dgRQybjcaB4LL8o+0Rph0GvYkWX7jKQdXiXUeh/Jux1XyWUfTMztWbJhIS1vovS33IOx1YIYNJO1bhQFqMxlDpFxGcxQOKQMJLyEFY+24D0zlLcSBkEO/ryGt/Iedr7zhnaEojgLswW74hkTaR9MhEEnyLu5bnppq4AYauVWaDHWHJ0eCgDVczSQoU3kd/tDk8w3mCDSwZRUfyU8yYGwOWu1VbAhtIgYkxALyVcJqgxhWbhdKQMJ0FP/D7yAc8Vbuek4WLX2IgiDjBSSz4iEwE+GmqI2haNXmEeQDCboL0h7QpThCIbFwACVtUKT6ZoTQxmW9+GxhECcdgCp+cEERQcToCieuTyn5FZoLDXbKt7Da9r0Z102hV3xVjyY9k7KYGLrsIRdA1huBbRUCdb0IGAECbvWDcWZh7YzZrldctoHE7mPIVSMAnmVGw5PQpupJaAK3CoDEjwWYwJn8FYW0upNZhgcTORX9k4h8PEgvImwWHPi2GtB1CXoBiUYr0lqIVcVaqws0fbBRO7DQ0G+AaLyHkl2TXFiRdnExzOqBsughEZ0zdH8lImIJR9Kf4blhkPAGVtNsTobms+AYVjYDLArLApzhAmKDigPD5XraKvYyOdQo5oixNlFahufHE645RUZmKT9UqEpg4ncR95TuOZ+Yh7UFIm7ChOnnVHBrTAZIO6O0TUMmzKYODpX6BMCVWkqttprghQH9wrlobwPr8iwMBsYXMqAYuwKyc5YF09iKW1tMYL/uFDJOqPyXgxLGMwWzoDCkzimBMxg+YYw2AL9VgigycirGC8AVpP7AaGZtA8oqDDvCS1j83Kh2tUgsZkPpCAM/lcoAxYGrxSaMqCY2yvTzQwLS7S2B8GaQGnGRsVi+J9QXstm5TykckBxw+FKKjM3GoZ1q9Da4n1QZbRwGBZvBXk3VlZroUjKhETlB1cSBnkRFWHNrXxFhFcAKFqMUGiMTFhEkak1+JoyIblQqDxHGFSpYTO0aKsIrdpDQi7D0husvV05ZUICBC3JtJttZrAFUCncPSaUR2TA2jg1d8GnTESEHwMNwqA1jBTLAPOghRjQkE/JreRYPKNkPmUwcaMl6QBKuRX8CpPTYZYtxNEkLw/VI0RDNuVsyVrKYGIwwhmDwh/DEp5w0FvdbK+L0SDsQvgNwqLQpAwkWAYIdcp9uZUwWDClc4a2EMs9YFhCoT6karB2LzJlz8Kw7hiq5Nd4ZlgYDU8LlXfVFu8nxGo+85AOB7dhJvGrwcTQqQpNr86JDzhYxukfFtpiz6dCgSGX3VfWefOYLd4rZY8iccfYZFiW1ZaBBuV/C745AxL6NLkl74DRPBV1QLFsw3prLAPUYGFQvuUI3hYouFxKoVAwLB7rEqEpg4mWDdRbjuVmqwpBDVgGLbyI5Wl2YGGNMmTLQFqwJ1L2KAzHIZbG5t3oMtousb5OaAuxT8sCEN7Ke8rvah46kDIBYVhOmZC0gxrgSkbp8d3tq2ohvNObQ3lIGJaw6LCAlIGEYTloSYWGe8W4KMNiAC1CIXD03aFyOoRC/PaEGgYThnPrUJtkUGUYFQPTbhEiWxiWtZN6g7yj0frjQrP5PJio+uxnAFRqBlv+gcpi/Ao63sKwnD1oZ7tCwfs40aLGusmUCYkb6mi40iOUuMOXnhoKW2oBN8jdTFhL3OVXPGPKYMJwbOzjqRhWmZRxOBLSXwuPpdpEyWFYjw/NM50HFIZz41BtHN4KfiXfOjm01QiWnRAMGdzg5PvcfzWgMCwNYAbFg8h7gJa3DW3hrYghCoaM2WBNUoKjAwrjuWmo/Qkmc+RXeoXyq1biaF8eC3bGsPQqUwYThsWD2E2lKhSe/F5za9+8mM4RbnnJu4Qmq2FAYVg3DxWa4FfUkSOmlFuJMIvVADdTOOQ4/YDCsCTvVjS60X6CAlr27pwnLZfjIe8amoY1oJQcy0kT8h43W57VElsSCr0Hkp+qMFH3AYVh3SBUXqX5rH8HFb9uaCvRQmJYmtCYpC3ozyl7lpJjaeMg+DEuodBikFYir2JYgFinXpwjNGUwYVhwLPQVC0AcOMl7GVRtlfvI6SDv3hP92YxhymCipaNKQ0VG7jOoKrFmWC1bOowK5GAVt5O/UgYTTejbh7rJOFifPaISbD28FoalCS1xl89ZC9nqfVL2KDyWoQmhyY2GZwFJzRS2uuG49E74krw7XPOqoS1YFCl7FDcU8m4aGWiJ3YB8Z2FHq5EsBusUfL1Jw6oOgkr0fTBhOFYXCU28FeNSIT43tBWDVE71rlAeUvhFTc7x+sGE4ZS9DfjnMCz5lu0vrQzLqu0yTHFG6J1CW+2ISNmTMByhqVSEbjZ18pbpnRZi/MscI+9o4RqGw3lDUwYTByUxJAxSFSGvZYoGLNDCYxn1en6oHKscb5IHBgwoGJx2VakG9QpLiLpJaItqTT6F+mzJmzwL7/3CoSmDCaKd7TIM6lWhxrJ4LQ3iFtUaRB/iLq+D9lu6Jhwn5DCYlBvNsPTwcLL08U4KbdHWYUAIfs7QEQ7fFwrLyhGwwUQeBUtSFYIBJPESa0MPLSgt3s/iNT1JuyJQoSH9iWUNJm40aEFIen1oOZHilNBWZwbyUPI4jAqoP8ghsawBxaSMI95eG1q4UjbCOLCphdiHBRz1Xoz4saGJZQ0oIACj7wZIVWq8lv0KFw9tIajPrwhlVFTR0OJolZQ9i4TaxheeA/LuzEAY031CW1RrKlFnTMvpwA7IhS3OREyZiOC/vzEUk1QCL+9qQR1WbTJi3koCL89yvEry3weVS4YyJkApNWTRYgReBcgrWkYC3pDTodAkm3RQUZlJqnkrI/BCVIuJHYbl3GnvhaqDWfHeUMMVCZQOKKAHXCzVGgReIm/NUW1hPKZ1jPaXk1zRlREMszocVF4SKu+RZwmHeOm1wUsGjD0heWdYjBjX3mruZDoMKoYr3GwehCeRzLdYPlsOG+cVvZ9JbKH3sqEpAwrYwRiYik2eZey+BTcLo+HFoXqGDIvyWpL63EAzqNipwLiEKAZmyX9tUW2CHDS8tXZ4R+EX4p9H+A4qWi6MCkcLgPmC0NrVGs+oMoTwMyjVofeUdwnHWR0OKJrPBizADm446nLtzXsKAqwG5/ioQrEqGBbsDI2nVQM8Zc+CMsyoeC0GxghqisrQjKHigDFJ3hnW6aGo0hcJTRlQcN4h4242A5No16a2CLnoOTwWkFSFKPTylvcIzXA4oBhw4EnkP4wLmOlQgZriSLsHhkLdLdXlGbV37OoyItaKtpOyR+GdoPC8ljCF7YCuXLNR7D0eHvr+UDtJQRs8l5zuRaFXDxUyUwYSHPRHhhqHLxM1oICavCnvIXfjGW1RNmABOwNBmD3UO0xm6YByzVB7HYCY8izLPCwRqdniuUroW0LhZt7L+8DOeDEVo7nHlMEEOo7Ogi/FkwiLzwi1O6uWYJN6Dx7rnaHCobArHKoYW+5DTdmTWOMouTb4IKGWyAMwbQGs5bUQCZ2YbwyMlxJ6hV1MVhM8tfO6lAkI47ll6MtC3XQ3XFhkCLXaLiAF42DwKwn8B0J5R3kdw3p1qH0PKYOJPMsIvrAkFMp/3GyblWsNmRraUBhYEiLPcoiB/qGTX08NzXA4oDh13vQOj1KGTN1wAGatNg82g60zDj1nWMIhiANwyqD1FGtzwlL2LHAkORVcyQGZkmu5lv2h6DQ10HHvAXxFMgQ9fDCU8QqNeGG81rlDUwYThzYZsqDYCMKUqu2eobXyHyg8Gg0evDyLqg6h8W8NbXm+T8qeBHdKqHpeqN1WbjbVP7T3oQY6LtTpT6InqxD1C1GjNcFVpQ41SBR+MBHuLP7nsZ4ZCnOyKca6I6ex1uKpA0N5LYvfVKFCLgIgzyVMtqBIp+xZNKUtTAOQqgrRiFWJrwx1jEkNb4L85wgW8IYEXiKvveO9NMGh9CmDiVCldyf8nRb6oVBYkxsORGUUgMxtJ6cxGnhB1aAWEs8ogQdFPCe01VEsKXsUeBKjsq5bEs+TuOkOWwKY8ihwL0a2qTDg64XyhO8IVRkKiQzMDvqa7aSUiQiDOTH0haFvCmVYAFP4k/lDRvf00G1HuPQPecG3hao+vQ/vKO9ykGZu/xtQrDsSkoRE5DzQgwoRPACDYnAnhG5Dd2E4x4XajYpKo42kES7f8r6JaQ0o8qg7hwJMMT+FKeqmF+NSPW7rtYza3y307aEGWfUpFQuSehVqeq0B5fyhKkTVIYPSNOa1wA8wqNeF2vmwbRsGqRDZUEhEWcYuZWQ8ZostOCkTEEelPDlU3iPPoipFXkuSrb/IALcRhmkhGzapkCgcou/gbQFmc9hiQIFbyYP08QpXS6iCPfFaqjrGty2+xTPdPxTLVP9QvgWgRd3JzTSDinxLyNM0lgNR8AAvxqsY1d8GeiC8kl6litPrQuEZl/6h0zNSBhXtHEwHYUo45L3wqUAQwiHoYFsBujoJVmEgpxMWwRBCZJ6CP7A4jhdvvZx5KIlXvUHPAaY12j0AWDmdcIinxcAYl8Z1yqCizYJCg0rMa0Hj3XQhEtBZw6uAFxiRQVYkQGEX6+EpoduG25SJyhVCrTrSggELuOnAUyHLcrVa1OJzhVoYIo8DzHp9WJpDnlIGE2FOj9BOeEi55NpNN2Xjd0aggquxPcZ7XTpU2JXLeQ+JvKPpclnbgMJo0JexEoQ/0IPeXhm+wAqt5bWEXaQ/nC3vwTNaigv6qJHLpUxMgKGgh3kwU1jkVSDotSo42JaQCC/jEXkw5ytmD3FQ4TUYkP6eG46rxWvxLHCnWl6rhESMCgm8KtSImvnE7CEOKKoztJaXhsKyJNalgazdgzdfa1Ofds/1Q/UleUStJJz8TOQHFZv4AKMMC+vTUIRKEb7FazmrsFYuZOYRydAGQEtFeC58MJ4xmaYDirH800PhWpJ5gGaBIBzGVHMoQm5Xhl1hZ9B5lJ5cNTmgSNJtWuatVIQmqLFAeS7VXM2FaiXfMpZmYQmKjRCscQ33ShlMbhDqKGCMUtWbCrHAAxL8mriTfEtDGo7GkIVc84k+g405KQMJT/KQUD1DORDvpb+n3fOaUOP5tbwWkW/dKlR/ksfiGSX2zmDMrYCDia3ItsjgbCH/8VYMC0TgDOra64m8Hr49w5VrMTDMC6TATOYHEiFK41ijGDouRPFaoAdEwJoL3AgPaC7xoaH6lsDa94QaslWN1nyvlD0LXEnVBpXntcrghRAJGuDVagpiILgBeKoypbj5OPoYrQmgDiLaLDcKhTe9PBQEAeMy8CoHUr3Jj2oKz8RDqRR5SbRmjFaeLHfHDySIgBB5Y2O8h/wH5gTUtBn5GqE1E3kiYb9hqPxOQs+YVYy3CM3Vk4OIm8xrWR6CBfrhUEblZsuFnNvTooEMiHVEsBbTG0J5L17yLqF5kusgYkZQ6W/AAo+KIgEyMNCAfQ0tkmuce8yH4im1mbyvYdj0XAMI7wGwtLHG7geNY+wHVGM5kEUjFwutLZJ5++odrcJjmfSB0Mv3GHlSbQYQY/duJu+kt4f5IKnmRfx06kXtRJ6oBK2aRJ/WCfDeWj8M/DahyT7tXIQ6M4I21mi/yLEKb8vNlmRLuFtMODMua79VhowLSIvDZWEvT5oHb3YuPBLPxHsASgs3XogyPiaRbwUJqDwvGQrjEg4ZM5QexmXRSE77dC7nC9Ur5DkYF8PitTSr0Wx4tFb9vQKg6gRYB8DAdAGg9HqNuee0c7F+23SPAQzsTz1EhoUrr3qD2NfGtooIyVB4C3OFQ9uZDX1I8HHJWuR5KTsWM4m8Ba6WdZCgB14MC7Ul1oQzhmoDoIWryfc0rOV5ugFZLXYuvAfAUr6Ds6WPyMiwIo4PbXnyl5D8gFBGDIqwxUaFKv+zvTmJgp2LcS5n88h5hCSTPao22BZ2aKuQ6HVVigxJuwe2ZjcEI7OSUn8zEfrO5aKhcCUruHkNiLzfkQXPE9pKwBBwNbOJ+FsIiYoKrSYIPXji2NCUjgUhT4UmmReWcOV5D5SbllAA+vK9QssACMPGemXouPuq1DSujgXLU8sHV573wDhlXIwNYbAFcFqEV0RIhKdR3DEe61WhDE7FWGPXV8qeRMIs5wE5uLlmBRkYaKDlMKp8y/QQgJZB6V/K+eBqPKjq0bmJOZzRsWCVOk+HccG25D1+f2JoS6Iej+nkWEYkmQdB4I0hJQJSEQcZXwsWRsoORMhDsZFAu6H6iQ7g5MHkOy1XcesZajnZP8G48Lh4Ld5LWESzBlOkdCqqNWxP+JbtNSaptX54MnlYy92j2jpYGBJ4gC2PqY/JwLEibheaXqtjAY4q991gux8Yl2Qel8pu01Y3V77FKyED4osJh0BbqwJQfRQTQnIrfC1lByJZxkbQ0+M1gKeqNAl+y2RevmWPPJ4+r8WorAnQGRCShcTkcXUuoAAVmQpROFSlGaG3OHfb0y8OEgeAWo+knwiZp0KiHMxcZA7Cdi68g6qQ5+C15F5aPva/t2q7CHW4+vcOBUNI5sv6S4WFY4wdydISX0vZgQAogadyLWGJ58JI0DBuyQBlYPI9Ez9yLh7Le8v9LNbNwzkHEDdR28Wud2wI41w8GWS+dVhivMiAciwhEfyAgWpjdNJsBhAMUOi44+xQm+VAjwnFSm09Qs+4MDFUp5J6uR426jy1OSvGTuXyodB4YcmEj2RamDR10zrnUTAgAyIFet9SpUr0izCsNK4OhWfiuRgTOjO1WYYnsz255U3ltYC0rw2FzPspLAJOWwK3KTsSngkDFIAJ4/JTfw/dBUGwpWgr3Sn0CaHyvDJKduXQlAHEjZTn6CWCAfC4IOMS+tY0F5PbqlLNafmW3yXyyYAYQExXI+PBlSTyzvHR22NckuyWvHXh2BYdnkoo1Go6JXTbg9ZTJiDgB8MQkmh05s+EwrleEYpirN/XEobQUyzT1T6D7YFCZI6QdS6GIYQ9qLgtgUIhYiBGBKoLo5ut1mqLPM98pJP1tZwUDyeF2hWR0rGoDHkJJT/eFFoLnrxkHiMB89QQakHmGUJtbyLcakqj9JRWE5S+5ehaSmORzwBHEQJ5LB4DxsTA9BVNWLvh5YhfodMUdk1hrAY+CvRgAFeu1ZKQmNJYHNQkt3HMCWMyxqVpbOIHxVhCD4awSdCiNTshWixcc8QK6IO3YsjPDs0kvmNhQLyUHEtOZdAUtVjJz8BM3EDnVY0Flcezqi2lSa295PNYT6lwSMC0U9EftGtLGGQ8PBdKMyjA3ivhyZwgZN7fkey72S2QeXsoYFmgB8bsp/0QydnqUErIY1RCIg+FgcAzuaG22QiRsC1sCORA3qUFrRkvTM/QVI/iwWomJ3C0JiOmNBD73AGkeFKMSmPadmaGRUwwC0uQ8cJIuGBoCy+C3aBwYFSwNMWD+cTMtToUB4/Lq+RXZ4RiHMwaFjErqIcI3+LZeLlWYlSfUeGLlf7lY0MzHHYmjEh5D8fSM7T+CMtgNofiSdCIje0zMDe6RQJPVKkM6sxQOBqmq+UmeSJGZyIUogdjFwhzwp7tMfOC7aCXx2v5u9DyFgk8JimQVM+SYVGG5XOmdCSqLpgRLpZ8xkEBBhzmhRFpSmv5UAOpLfacqkY1pRnUx0NtKdReUqGmdCTm/uRNZaeVClGbZ5GYcBY23WhYE1CzhdeSZ/GMci0KepALpnQk9wwFJ/BUtvHJsazcXiY8hxEu4YlRtujnCXuSdvlVSeJ9zpROhLcR0oCgKkLGgi5jFnCZCH9yIB7FhA3AtPYAhkTdgl7eSq6FhOhzpnQiDAJjk6FgNviJ6XCB0GXi31g/aYTMv8GdEiJrei69SGi/PMsB66a3Hxaa0onAhh4cakoHMEo1mw/aWSq30m5hiPjxAExeppbnQqORywFk5Vf0UaEpE5X5RFtYs9lYAxoHC06FcHcQ55wBCU0SfkwE+Q8vB6WvIVil6DNCrd6lzoCFbSkTFEj6vGEBORHsCi2YB8IYXYXIh1VaGtSMwFDGlUJriCEOG3JUqDyoSR4nYaRMTBgULzNvWHp+mA1IfoXZAIlfpcHs9fCn5FnG5XkwoGkNmouczXYc3DAHqiMBtly5lLKhMILZ3l8RoetZoUIggBQXah2Em2GaCbRMDQvC2dU1SICM0/SOsIzdoMCofVp/ypbCS817qiJXDBVuhEGJO/YmY1lVvC4ajXCoz3i1UKP724qiwnolHlQYRDg8GgSSMiHhwQCcqjvJu1F7zed12zSSdobpNRAE5ULbVoc8FmOC7j8o1NKQbEJ3IhgLjwxV1TEuYXBT3hPIQkhkBLY1b3tmoeJBvxDhz5ZnGNaswS8K6ykTESU9VgNPpapjZJtSYZzjI9FWJQJMJdrbeC2fzWuBQBQTuPal+MB+EBZN8AxpYMvylh7EZ9fzY1TaOG4ilsOmxsCbWAWJ0yXhhsyjGW96jWx01r90hIrBDlRplarCQB5331BN6VacsJ2LL4d/LZfAWYLdXDi05QFILQQGhXfl5uGVQ8+h6ZsKAzJ3qDKElqswbxS6CevTawFtDcqi6agIPQSMl8H5M58X2bD7StGX5XrxsZXmuOGYlG6OygXy7EvKDTZ9SnclwsfdQ61r9F2Q9uRF21J/fW8HcmJImEVUzW2ybttDCqTV0jG1o6BgWB5guBncDeYmB4ObdStuBI63rr8uu/OPNUetl1aic/8qIs1bpbdxKl5NZePfTs3QsBHkQyo5jFEhrNYAKi/locPX8tBtsn/BA4yDL6QiHPJeKkItHS0e15vahtPtkAUP5OnW6rA76tOhjMpWFh5LK8T/8/RLgJXH8pVHhHrqXGghRjLKle872eQNhBYTOTyVG1iT8suQ4FnCKyOwV3RdgYP5fCAGFaEHledzLXHFPMxCLcztaLyxSQov4yL58OWkUp7qE6FcsC/N1dsvcGooY2JYPAAjU20xPIbo4shl8MUh3ceFSmzd5KMZWou5PZPGaMgGTxmACq5GC6YITy3/ceKYB846yHXpNBB3HomnUm0K0a6Vz659hOlgK43BVt63G1EZ2XtuKuWMUDmDL+Jp8dSgdAgdjMOFvFyoG8RLMTAX1RPFVbuBZuOEzc+GetpgMv6fVT3ARBfPa7qAJWz6b3nbOij4QWKZRzEqN11vr1YILIJuU2YUy1DGunkWD6rN5LoQD5h74roxLH1NqYcmdTdovC8ANwH2MRDeilHZuKLEnU9wGYIvrhvv6XRBPLFuHmqtUGmC2BogTMj/CWWgXr80ff0bHlBiyu0LnZ5EFZAcokaOJqR7UORVPptpYw9EbbGFhgfncfy8beg6VJpy/TEaSurg+/NYeoaunRyuHHxQ+8FoIr4U+IAxaKqaRPFk+JLc8kFfAnAnybedjkdScZl60Z1npF7Ln8ttlMrexw1wkfyEKZVhBv+fxxIWhGTeUcjyGV1oP2E4/oyxM+5lhYI/M3DqppSQLBH2GrVF4i3p5hF5LgyFdU6d8O99bw+Vz11SBTkqbEwEURh4aBkazz5p8QVUHi6GD+6EKjdCOQtGWHUflNdhgEA8ZbK9U26kRJYBceUmjoVEx30wJsamrcK4VJ4lpxNK/J0nhWqZ8GjwMwwCoCGvA9MRniW8Ln65EbPi4p8WqnynSvdtoYVlAhLgseWaUHOGxdusKtaA+56u9+x3ATt4XdfOtfGTAa7z2jsXT4bcAPWVl0Lid7M1QbdJbF0YXgyDgEFomajChD+hkKF5sgsXijfhzQCMqioh1DSMi8jY5WmMzd8xtWL7i16a12R8Qio0+lKhvJl+nXIdBOK9hEIgZoupmiJCt+/jweF51wEwbQwUGRgXmTUsfCwPnodUJJDLmphe5KEnIT4YGq7kW+w2eeInEE5iXeuDCzuMlKvHsvR+QqyT3b2XC8Vb8miUkfkcjIiByfHKZ2P8qtOPhTI4uxZ4Ov9eM5mnZUS8mZ/wNTmeMN+i0pwVeRsvK8zzsmW95CpiNXfJyeY9rweGF/SQqbY9kKLCZMXT6wlxQ5SxbiDvUdzxpnKQQbrBqiWtFU+53MxFVSAIV0JjWT7GUPwZr2PGjkeAbEvC/T/ewWdWifJq8g9hCAiqLaJa5TVbhb9Z0W/0oPj8vMyi0LxMPOClypu9fu6RlMJ39Z09eL7bpCtC5bynWshxYBEMirv1tM/SNNaVdRNjN8CN956MjaHp6EtY5VLyCR5OGe8Cy9mEPkOmvB2jknuANvxEFfZ9eDtG5jvyWC3DoO8ATIaPaR5vuvV43hg9gDBC38u98SAxtFV4+XsT7tToE2/lg5dcpFaZv60wNCHURRQihBqJO28gd2J0KkgXXogUOs376Q4AdBUhFMNTeS4v2SZvPJp4MIzG85Kgl00eTNd83rBKw5xByT/do0kn7r6E5qv8ROymkmFTK7W3AtcUXkdi7oKrlm4YCgcDbbjwchADnhJ8P42pMzRhHuzRCmqQTzFy+JXPtU4YLLLoc6nMkRA9GAorYR/wOoUHf6H4YG6KpFcIFDbcHIj05PGRGeGBVH9uqoqJ52VQwqLVjoxKWHSKPSiDR5Gf1L4xKmuYnYW0m4QphrjIGKUEXld+JbLwypNeaeTCCg2ehFKFyV9QY3oyLN8DvABKKLiZCoqHYlhG1OVcQiIYg1dWKdbmkGONglRADJt4q0X5n/Cqaa7KLPdInnnQpPbeBSLtCZajQMZVXL4IWGCyrnaBuJEwMwm6/EsCLSy6EYBF1SKPzMhQf1RWx4fWPGXLQwqvWwdiKKJKXnS9eT49QfdFNFEp6+PuosLdSoCJnl6hkAIuMRpgTZs8dfsWFxz6fbNQNwSmJCeRd4EhCh7G6OSWqs8a39NrwMo23Ze1LOfTxfDAC39nhIIy3LPJi6dcZaUkV7b7WaqanvnUQoW8C4lPGOGRhXkeTB9U/qXKgtfV8FreT1FQu1ITXnUVoO4a6IDlTVipOxdPmgTehZd7eLpdfC0dW+169FpFPDSIdrhhAGBwBK+FsGj9ou+JjAjL2zbsg0FU0jXTh5JfYZeAhDS3S3O6C1G2w67ADcJDOdqM1+ot15oXIUZryrFxQFQ3SI7FyHgApEXJ9jbf0cPHqGpDGIU/BpdThOggtD7xtaqoRuQHkGxxXGKrsQuPwQRoiVbvQtx4WJCcC1IvCYZnAR0l9tvyshjlsuR7U/FaHuzSdNZwx+LoTuA62hB6XJ5s5bkcBPUY6a7nkEjkPtgaQiKPDNsS9jE6toUdGEFNoyLaQYXyreHMW21Sbe5dtB+guXAY6C6jAjQKiRLcyeMmKwivparikeVYwEaDoFMr3T0ERvV5VqCoqr31ifpNRa4h1+J6Pc0FTNRJx+ScdNNzBVFNYV0CSuUt8pcp7pwS8oRs+aAIAh9rTfdpKp5cAJ8qSjgsgCnKii+KXtOlOz4iknjfB5PDw2PTzDYMjhZic40CSvUKYdem6oLXfpDArrAHYD6qRLiWhF5HXU+x12QeM4KHKgCpRH4dLvouhFfCIHW95VWKi1qrJychBhcQ7mBZZVoHcs2DCZU455NvKcwILjzGhpwF45QHXocyvCsxoYRnpieokAKGdh0C5wUeAxzVjGZMwqJKigcDpHratRV6qBQlwvYpMCafn+cV7mtjTtsKLNF0k2Rdp0DyPkQInBc3BLZVGJpiPrIctJpxgSF66Fnp3Z0UKrRTn3tqoVz6YRhVJV6YF93uZFhFkOlUg5JJ7AA9NmHRBWBoAFUN3ykLjMoDgs9kJYCwOCWRUjB8AyEqcYCtPHZqHrW6aCGUkMhjeeoxAxgWNsTUF1MI1zA4/UBV4ZQEqIq6w5iEP/mryrsVdXpS4snR8jAjp/z1ZMm39NrkLDhO2BFHO3tmClKbdVBDFBDPD9WzFP7wrKb4OZuJJ0gCbEpG1aIchs5LNEtoRE8xF5eymqj2EBK1mPQDGdWh8FTzokIBQaAxK9t5L8g8TIhhaY8g/NfcDjOqMCrMXe0ycI6cqveuxlYi8eW5uO8yJm/FEdBR913uBbXfZpfn6CK14J1Qp8E2qNRTQ/93LhJhuRTgDo+pLKkQDuFEOEOAVEnoFAHIfQuvjwpjQQnwWZ9yKAB0G2FcaDQGM1WE2g5osxBtVBT5l2rRxQNF1KaT9CpaM9B/k91y1a428e1KGBePBB1GCET0B5zikZvb01/0U2/OsELvRMFtpJAoYVX6f36WTX0pC4RxGc9H9C97Snks83yAPgm9MIn6YQD2MFY8vrPtfFIDe7LQX3pmh+xM5AdaD8IiZF6OZcIH1wngB+/SUGV4dg3oh40eGn0/xuO6aNMYgFABGuxIWUO0JFSLknctHx5LqwcyT/GfMDa1hRhg640v+xIeXJfCVJBlJbb12IvRS7N+ksJz2QsF6IMga1wzKEwC+ZYEv4RInC67CFBzRhHeSMhTLYNj0Io8bPPe2UNodcGhBEI3Fa0IAxkWYjAehqVCZFzYECaSIfWMS2jUFMbjHqGFYfABOdL3X+aNrS1nfAzPIO2hx67WEeAfnGt2rRBcC94lmYfWMyx5mDk/uRgOUu3lHLsWnulouaPvJxXQVzV5w7tve57hoRTuXjjgqaDywiDPxYsxLD+1Mww1wL9AFrr6I+Yi8i7GhBmi/aWKNi10mCGYrURlpLy2VgiAymMJh/AuIRKmowmrx2ifKIIbvndP65OOJjyYo108SL4vrI8Xt/B26kyQyYvQqCpSJQl/6CHvDeW9GJaLztDsUvhoqByM93JDehbFDPozjy38aXkJhfbeW1mQUkEYF/wKloP9AHpgVEIhA/M0W6vNuACqfmrQGs3qsePP454Qqq1V6NwqZeu0DzWDoZWU0KgaRBbEjGBAQFStICokWthhSpmaqTO21UPupbrVviozmYiQihP5pWbzoSLw7VokrPhavBH+uQlribynG7gqmUcgPPOIMjyVpePUpvq0MxgTTfJDOJ48klGhcsun0KJ7GpXrWoy6w7CMkmtUA1B5MSESv0vP0U+hRKgEPMJ+ptZnM13jITEGL1/ErmVceFZC/wj7LroTVRMDc7gSZqoFY26QPIunAlPoP+q3GeYQTqYSEhk4hoKCxKpvFZ9mO2yOoan65JYpexYtDug1EpyzdbAB5FvyE7/ru+17PaJwhtMPXbcFUCgH/grhFo2gxihSMuxNUNwUyboEX+JL8eqBp/vwANou9pMyKNQffc/bh6pogZ5mLrEYaq+ITGkg1wiF+zAongAGtumSXTdbcj170xnoMiMtf1+BAYfiQbWccPzlTiADCbnqDztWWyapxR0IDAh/iWcQYk4O3fToFbOQAEksCgZDJdMowfOlv9zN/8O6kNMJv2hAtugxLAcvocPYTqOyzfypM7HOGldeyY7TZUPwugk7ugqDgnQLV5JsxiWpxrxgHAyDcfGEOgNOtPD/cdGtk5SEgw/8W0h5GlLHIqxY2KHlo63DW62zbYUnAV9Y/6NNZBSNgfI4XsvsnsY4zInBGm1XFJwYKuQ5cEABwUN2sUc9ZTWBU8GBoNaatbzXqsJLyX+Aqc6YBrI6+UtvEk5W4Ay/WwfAkByMyVvxSIxyNg9LGUQkwFoh2jyAUkn7Ks1axmAhic3HQFb4F9QbDACwlK/hPjEq0zG8Fc+YkMAhEZPTWKc8DONadTEawyprxLWGhECGxWvJm+RTwhpDSo90CEV+wxh4GZ5rnWFOFBsLSfC5cO0ZVOZIKWd5JsakLcIwlPar8MHlRTjkqkjUZ/jSptBEyoACaZdUy4+AkKq3o0EMQpoGr3F1lBuDGRaqZd6UcpaUnMemYJiTvqCqUFN6mUjy4U0WatgrZTcqCCFxppTPS/FKqrbCJsVuWLYCiVHBqRiUXMyGQSNX8yh6yiEWRlUMSwVo15ZRfMS/Rcty5VPovvIwST6FjG/aQ0wZVHifEr7kS8VYtHFQT2aFR0JJEfb0D0386Ollop5yNmFYJdnGgzfNAsMS3uahBtvvUJd5NMaFnTlvfCkpZxPeyPSOvEnTeHaHqcFOW2sk9saoJO25WyplJXFGIizK+D3DsvnO4ASjkqiDIeze4rGmvE8+ZWICbhAKGY+2jNYOwBSazos5jHOEIdaUHYuVkzyWlozk3ABFGcPHdEB5QQHO1T8pa4mJFzscypG6vBQPpk1DYVe5mSVlI5Gw41NRrRoDC1o7i2jEKSkri/aOxrNwJ3FnTOtSklNSUlJSUlJSUlJSUlJSUlJSUlJSUlJSUlJSUlJSUlJSUlJSUtaTY475P3XhX2X6V17YAAAAAElFTkSuQmCC;" vertex="1" parent="1">
          <mxGeometry y="46" width="140" height="481" as="geometry" />
        </mxCell>
        <mxCell id="X9fpeLWt1j-jbo-fKKKr-81" value="" style="shape=image;verticalLabelPosition=bottom;labelBackgroundColor=default;verticalAlign=top;imageAspect=0;image=data:image/png,iVBORw0KGgoAAAANSUhEUgAAAJYAAAHCCAYAAAANaTC3AAAAAXNSR0IArs4c6QAAAARnQU1BAACxjwv8YQUAAAAJcEhZcwAAD2EAAA9hAag/p2kAAEhSSURBVHhe7d0HuG1XUQfw2DtFBSFKF5AuEEAQpCMQkK7ShVBCLwEkhCoI0iGhKEi1gDQBCVIEhSCIvSsWFHtBURADqOj8wlt4ODnn3VPWOmevdWe+b7578/LeKXvPnvKf/8w6JiUlJSUlJSUlJSUlJSUlJSUlJSUlJSUlJSUlJSUlJSUlJSVlFPny0K8K/brQr/AHKSnbyvlDjw/9gdDHhD449Lah3xz6paEpKWvL14beJfTZoa8MfV3oG0JPD31G6LVD/Z2UlLXkEqGPDH1j6JtD3xLKsH469B2hLwm9WehXh6akrCyXD31B6OtD3xb6M6GPDv2J0J8MfVPoC0OvEvpFoSkpK8kVQ3koBvXk0O8MlcB/R+hLQ98ayrgYm1wsJWUluW7o00J/PPT5oUJjkW8P/dHQYnj3Cr1waErKQvni0C/73K/H3ChUHvXuUMZ12dAiQt9NQl8dKgdjZCeEni80JeVsArP6ks/9eswtQ0uO9bzQbwudFXDD7ULlWb8Z+muh1w/9ytCUlC8QHosSofBVob8Y+mOhFwmdF8Z159APhPp77wkVFhOGSDmbFMO6QehrQ38hlFf61tBFAm64Q+hPhf5uKIzrjqElpKaknCUFOpCgMyieCI6lKlwmjOgeobAu/0bovFZoovMpZ5MLhj43VHhjWDcPLd5skfh/Nw49LVQ1KSTCuORtKSmfF0n4U0IZFrzqB0PPGXqQfGOo/OwJoYzs9qFfH5qS8nn53tDfCWVYLw69VOiqIkeDc70/9NTQK4em90o5Sy4e+orQt4fCrG4RerRwOCsXC5XI/3zor4f+Uqh2EHzsAqGoOKu+Vspggn/10NCfC9V81pQ+R+hBogDg3e4fCplXAIAkfiXUawmR3xcqb1MUnDdU6E1DO0QiXwKSnhH6xFDV3qqih/iA0JeF8ly8ltCIHfH0UIYFiIWFgSh4s2uEMspzhSZkMbB8Q+jjQ+FZPA8Ptg4AyusxTo1sOdevhjJUr3PPUOFVHxKyf9NQxoZUCL5gaAwZhsZTpkcbSIQ1XuVFoYwLlOBmr3uTeS9AqlAomWcscq3vDmVccjK4F0M8T6gQie91YugpoQ8K9feuGqrhzbhL+ymlUzl36ONCoesYpE8KBSusK4wRHYdnYjyMlh4bymvNc+qFQu/j7/9wKKNG0/H+PJ4cTrUJc0vCYafCg7w8VP8Qws77bDpcwZjmoQfeZxlSzyBxwXg4OZgw+axQVScj49H82WVCLxeaRtaJ8BxyLSDpU0N/NlS1912h+whHPo9Kkvf7ntBHhP5Q6P1CMTLuE4p54e9kuJyg8CrCjJsHSQeSQuJ5LKHI9M7XhO5TGI5QjdnqM50cit3KwB4b+v2h3xKaBjYBEeKU/LcJVc2Z0BECJd54V+AD5D43jeFNpVoTAn1uHgy88d5QnhXtB5yBiJiV5R7Ejbl06K1DJerPCYW6gwjcpD8OhUO9L1QSDzCdIrlPwv+QUNx8HhYGB+LgdY2tCespOxBhwtOs9Fd5vSbUEy/kYYf+UejfHdHfCEVXZnR6ifsOhcuE1wWLwOA8BL915KcWleb6JUMVESmNhGFIgpXuenmGUz3h7wz989B/Dv2b0H8K/ctQDWl/V8jpIayoJk1za0l5ICig1yAuTCwb45WFUcCPYETaKwxJuGM4DItR/UXof4QyKE885FyPbxX6zNTEWoCHh+KW8braS/hm8kQN8ZQKIvTBhHClfiS0oOqe5F8+8vNDoZ8M/dvQPwjFDD0utGcRHu2eUIjoV8q/5F63Ck3sa0vxdF4hFOZjXpAXKmP0LjbPZfKZcf1L6O+FQt1hQiOIvOpqob43toUqVwpw39BvCk3ZQOA9QE1ApydV2GM4DIrH4q2EiD8M9ef+P6BxxDwEp1+byAP1wVAeWc6VjIo1xFOqxMbqVIa7iCZwqLzKhWVYvBVCn9AoQV808tWTHFT1XSgUZMJzowRhU6zCN0sJkU9J0u8UCjkHGMotgJ1CoN/lUJ5c4YE309jdtA84JUHFAaEAcZd9H+Hv3qG6CKrjTORXEG4dvVg4g09hcQp3fvJOfjc+D5OS0Grkan+Mgu/w0jhfDAf95jqhBjvmvx9jkkOCJlIOEEYlSUUzwUrgrfTQGBM44U9CNW7hU7Ad7IURn1bXAdTg++ko6Cf6XVWcsqagnwgDGrLQcwYlnzJxw6D8mcpPJaTnJ/SN4qWWie/HI0nQYXEa1GCGXAewosip8JJsf+GpwAa/HcqotGQk6e8K1f3XZD6MOYUEXVNaMx1oKl0YIadsJtB0PTCVjsrPGiJNY9AB5Bx8IEHXL9NHO8ztDA+UVk8hCwqT2ZxeIIwKvddC2meGFsBT4xUIyEsxKkg7DCfpI5+7BroJUgYFDCCY98prc0RcCMMIMCpeikEZEkVvkUtpz0jaLesQJkfPp9YVnorHwj0TGpEG8xqFGExQUnvygH0wKpUeWEHiDkp4VOjsuseULxTVI8xLY1q7i1c/1NtyNE89bThGPJWcCkkP65PHQtQDeuaO0INFzgl9h+0hCZpxPJTNaZUMBifIwIADKOGvQpHz/BQGJfHpqVYX1/SuoVpb8tOTQg/V+kt5laFPX9zTxVsBPvX+5FTaNMht87tDpybCzdTyGfmqIsf1pEJkjxy0jQSV2JOl0oNVlZ6f3ApDAU51pdCpCmPSXimzgFMSn821lZti1IoAWkLDY12+oP6fKkYjmWHJqdBdAKAazVMn5Rl4wEfXVtLHnBp3Xr6lHSYCfCzUDAC27bAJPaPS6zIJ7InyNAE/eSvouj+/eujUsRh4kSRZBashrs0yNY8Aoef5RQD5qwcY1WY4KXmVp1zlV2AF1R9+uj9jVD0MZ+rRCS9COa/A41oCMrUHAifNA/xnofLYu4UiTA4lOvLCh0pPI9kX5a1gVZaZSTJ7atOgSBvZ94AYcMBqhR9NTfC0NPF5LJ8RYbKHh3cl8YTbSixJV/XxTryVJ15I8WV7bCiXRbhuGkDXbqypHfrEi1qhVOYtgdAGe4cQTeOHhQobmsp+Yi0ARnmqnoE8HsFgg+KDZzBJMzXsqEAQPieMy4ab7k89EwKxO4VAhD2V3++Hiv2azr1jLFpSynqjZoZjhfupgbq81vVCFRrUfTCT2G2VqIdlFxUQtIyKF3gB5HBsaO/i0E3DDEL8maG+o9J+alUiSAQgraGvSsQi6XbgRFluQSwU3cmmXLEnRv+Pe546rHCQKDZUWuW7CfPaUQxtk62Bs9IC0Xe8ns8J22JcWLhT3V+xVFz0a4ZKGiW2qkBfyloesELvSLCHwrEoKloe+K9D/y2UR5A7bpsgM6zaLSOvhZ0L2/rTUMUUmk1Xws0qx3krs388lZAor7KuusUTuStxw30/84sowvhjsKKPhiImWoArRG7zHf1bmFNtry5SGHZFnnRP0Gy6mfBxMVBnYVSoL/IqT4knuZdNL8tExWeXKAp1YWb4broHknc3TCgEBm/78DBOo12bvM6yfyNSWEfp3nggDPjyWl3cEw1aLlcFqFUjBLrgSvHuYvqMyJvgcUp3bFdAL+jEDi5ww0dCMQrkLjWmklXUqrnawLFcS09WnuWhMPDaBSKv6+9pFhLw17VtAHOewB5RX6GPUd0wVEuKF2ZAwjzoxCGaknaVoaa0zXs1Snlex74K09CbeK1l1xq7hKdyX4RwQxkKrcmLYVMgnCYzwh6P5b/LfvReRHiAs2FbqP48KFiuFrp9IlT3wC4uBiUZ9t8a0nLIWnL3UJ5+ExAZ3LNIfD5eV0HF43pAfO5Jt9QYjgshVHgi9NE84UDSngYsfY+y4cYEskkYXkouZffWx0N5KUbmp1CPCiQ5rikeUgaN97VJHrTIWORZknZh0HcSxjFLJr3uyQ0BimpvqAYZlR4VNkBPhqV3KaRJxCXovgtvxTMxKtCCKhAzw1Mv1GtM1w718lXvz3Ntkp/6PIsM0iS1dKXkibyWFGay4ktoehrXEiY8yXIQrnfKQ5VugFB90VDeQWjwHWBwjEm4k0/9a+h/hjKqT4VK2C0/g7a3CCWMyUg9EHZTCGNRvqfHia+lOhQS/TSAMelURTmOteBptg6bmmB2w6bwwRkR2AB+w9hBA8BOs41G+1F7/a6fyUsxKknuh0MZlt2mNgZa8Y0F65CCVo10YUtfDyPE9plNWCCu+bzXsmyEYancgbruEQhl0sMXqg4hRN+MCodcrkO8lyWUq8gmOYanVQjWzceXQnVRXqO4oO0IYZqy8hjNZGGnzDQqPORUcii7I/y0LFdOIn8Ejlov1PJmMAqGzgBsS960vzd/7RQlqkE93FLl6iVOelTfhQaQyrPcJFgW1F0CvE3j+SBvxxMxIuGMEUm85Xs4U8IVUh7aiFaGnIJX5aH87qktW5ZVs1TuQT0cwMRyjK82lSpXYr2L1hQA07XTDrMMZZ0HjIcr1fjsv/OAm5z2gOhxwrU0pic9w+lLKGklnG4MRFpIscBCn7CWuFDyGtWbhSLAS+/pgunfCWW8jqeRx5TvwdX8rlpVVPACvBR+mGqPcbnQQE/GxSsVg7T6W7jwPbRFhCb4T+2EfV6kEL6PXEiFuk449CALpXC4+QdT9S5vFOoZGLhEf3fS4ktYZagE5wVUVW40JHmTkFbEv5UbCQk8kjWS2BK8jzyO8kBCGe8ihEh8vTdDEc7kE7wPfI3BUMYnjyorvP0bSbNcS0UrB3NzIOq+g7DhKWdg/rul51JtMnyfkedfx6u4VpJyn9E9mTUuBQeDcj2Ed4bLCLe5PzsRHxCu46b74KpDLl1F4klaFUj0OnICrQgnprqpXgdWhsfNKzEgPyXTnm6hj8G4WHqVtPwdeYXEFSmPUQovUHV5FsV2tUdeFSZfXOSRGLb8jAFjOJjqbuW5tHbKg+E7aeSv6rVcO/u0tNjmm9pCLAKmNIA396DIP3cR3rcWF9tFd7PlKryBL6D14UschG2ptrhnp2IxFnuyGItwJkQJZ4zFfzMyCbgciMeRP3kvN4NxWzyCHybvEl4k9N5fvuGCC6s8khLfxfXnPv98CCH+vqdbGBXuQRO82qK/u63wlEIw78IQXLd1knhpgsJJte7zFeNSGVp/5Hry3vJhLauanYOm4obxCkpmT4Z8yxdxkZad0eyG8lIWXciDGJR/Kw9wIfzOA6lo/D8GJfmElwm/LhDP45R5lRvPqeemqBBaahgAI3TDeUCey3u7ibWFp1HB8VoeEPAGT7qqeEA8TCp1D2q53ryez+9aMioPvZySIXcjjEucZyS+iEpRziCZdqN9Sd6DMSl5PZGMgJHwTCVf8m/dRH/mJ0/B+wlrLpKn2b9DtPM6PE8JUVoWDLxm64IhCYU+n89j5VLtUyIYlocQ1wtEAjVf16somlyr0mx2TdwTE9NAXgWW12bA3Q228hLyJB9evoV1KSlVoem2y5uc+K7y4XGEMt6AMblxjFA4hDupzBDtuHh5F+OUtzHQYkiLxMWsLTcJ5Y2FZQYvP6uZpzBU18I1cx3kWEf7jovEghV5pYevnNoKFlJBy7HK9JQ2T7dro3glwxS+EOBR303lqCrzZwyIQblRjMp/S9RVYG6apBNhUI4kHwKCtshtVhVGpAgQlqnKVL5VS4Txksu5Jkbm1v2+cD0PJCzMw2vbtGvnoVRFl0qZ9+167lCcd/HlS3qK/xj6D6EqH3/GLcubbKlz0zSEPbnFI+3TkBYJQy8rmTwMYAoPUA2RIypQXCfXZZNQJXR6WBU51npjN8jT/M7g5LyoynK47gdaGZfKBFVW8uhAAF/QEy8Xgx8JcZLkRQn+lMTnw9niWRgBD6t9tG7ImhcPkIY4g1BVA2kPqqQXic9RoAUPKRqTvIuR8mBgFkWQbomKeQiR93hKIOcPPvKTd9qmr7gPgTfxsDAzuZa2jz/bVBiVsFdaL4wCWr5J/ua1dAq8hkqZus4iQOGc4WSpCj3Mw8nUQtw64rMDIxkVSEVodPM2pSlLrnkoMIPiQP4jfG16jXhQOaAEXmVZcjVVMnReeHRW9qQJf4dVVFQqK9WbkCg/3BRwBA1ICwC+wuy225AVAUIdg5e0WywshFMGy1NpWG8bvlMaiDBlzK1QUVRhIJZNpIRA0ApIY1vOl74hSEeVDe+T286yUtOgJiyefpCISst4lZaSvGhdzpYck9dTJfv32jHb3nj5FARe6wv+J+dSPKVMSOQmy3IdRgBvwuhgHLzEukm8niZvBWOSXNdY6sa4Je3CIY6afHDqm6kPpfAgi2AQ7SgJN8xJONRVWAcw1dP0b1GhrSkACEPLtxWGJUFHCIBX8VpT3k59aIXHYljznksCDBficbBV4UNC0CqJN2PlSRgkQNTNV1nW2K+giDClrcLU3sFsmPRkzmGWRYalXC9JMuAX6Is0uEqeJWTqOGix8Fo8HShgkWdcV7TAFBOAUgUGtkPN1lNKZZk3LN7FTZPL8FhYGWCHg1o8vBUP5d8wSoi4KexaLRYzirhpmv5+8looOCmdiJCnlGdQ2jBCIg92EJ1GHiVZl/TzLAyKB6vVgRCiheWy1pJXlMyndCIMS2sKQGpYgaEAOY/G+iz/xs3WEgKIyolq0nyEaN7QbGRZEQBySOlEhEYhTWXISFR32jxHY5cyLOHJxIxGdovpH4O5hmwZlIa/vRM8a0onwrAwVdFQqL4hIzOcsUzQV5DteBSDDzWJgkXQwFGTylITPDjN55SORFKM6oJNACSFGxlwXSSSerRmjFoJdY1tgIvkgaHIlHZPlOFcXYKUjsTZOrwUo5I3ScadwLEINhCOtG54K9yrdds/q4gCgNEKf/ZO/Huo/M8cQkpHomnMS2GUakjrGaKpzBuWBjUDxKAVMo26tfBWWBeqVAaFDi7HYsw1WkUpOxRoOaDTzdQ35Lks95gVTFB8Kwg7T4LO0mophzE6oY+3AjdI4IVqEERKR2JIF5cK5MCo3ERUlVmP5e/ArezfYoBG3lt4KwK+YEwSdkaMeQG07Y2le+hF7oL3bsBW3w+SDowshqXRrBnM6IQnQCoi3ir9xHUFFmZtE8OCYSkS5HMOJU3pTNCA9eRM7Mid7JSQmPMQ1JQ2jMtWGzfbHggG0MKwIPqMHJ4GcYeVCcHb8PFT9iRyGh5JCwWWBfxEBWZUFpDwYIzKzdbuMecHdmgRCnlPfUte0dCrsKxCzTDYoRitwn03ZGoQFFOBx9IIRrKzfYf6/7AkIbLGoQPzwguacWRMZTMPpkWtmceUHYv8BW4E+LRGAOSAYixhl1epzCTQ5icNMqAN29FQW4Q7nHkcLBQeFaoB2JRORYsGc5RhoanIp9BgGFjJdYTDAlDiSq2zQWYV4QWFX94SSCvfswOiBhs1ZU+iLyh5550KdYYCQv8+FHCqUV0mbxhB7c3LMDGsCgi7sMvI9TBbIPspOxLsBB7LvgT9QmGPQfFUQqP1TC0HGRQB9u3zlDb0MHDeMiGGzsXmZixSbRNot6avVgogVAvH7tSaXKt5EVZBDGjRQqDkXc53ENkwZeKiByifEYLQVICgvBbowUCD6rCVwMIMZMDOYGiQfaszQRqtkP2UHYlZQKg7L8VjublCIpZD6415KM1wKzhZ2VYN0th01D9lIsIr4D5pnSDWaaVYjWlVY2s2ASxMs1txwEMWDK3FbtSUHYrqziQ0INJp8ZJ14VBupSIrvcIWYg+DFZsS9VIoAGCtJ2oZelN2IDwSfrswVA5OkFcZlGhBN54VzFMNb+8L9Rd+tZQwV0tu5WdL405pIKZwlPSoKbAjN9WIPE81u9WlhVihrQotmxF5KrQYBj2LWzGqTOA7EoQ5yTqmghsLjLT3XcO5NSDp9W1S1mCW0wm7wqH3n4cX0qg6Egg3aMHkC8PSj5PXqMRq7FxYJozEiJgTMuyAh5VR3or30pdM6VQYjkZyOeBJoo45ag1Rq4SZQSEFagkxIJ7SvCCjlrQzbDhW7bnElB0JNoJ9nnIpWJWkWWPZ6RRufEuB7POSwq7w51T9M0OdaosC3Yo7n9JYeCO4FKwIXiUE+V1eozJslcsg58mbClcepCAEUywK79/VWTgp/y9uLrKc8MdTYCxInI17SdZbwQqMldFgpwJAVZ9UCATCattoJWWC3qEo103TKOvlVLyGMIh6jMjXElYQehm0qk+CjtfFqOV1EHZH77VsbKc0FAQ+WJU9CxJlHkuj96TQFgzQIiCFckIF2o1ZRKGXCoPOGZLXpbfqUC4RappG2EPeKyfc47C3nHhR3TnrmpfEBDUIC9k3H6gHKYmHYyWBr0PR3GVAiHM4TjyGMSrJsq17rYQHMphhtZGcTpEg/DIwyz0MSIA2krnQochbcKgYlBsqp1GNqcwk0i3xIsm683m8N9JgYSwwLp6TtyqHW6Z0JpBtzV0eqngqochYlemaVuK1jcYDPxmyNg2qsxyPoeF2mbjJvKpD0VhW8UnUi1Eh7LU+4pYXNE3thAveyXtaGmI0Xm6nue3smzSqDkW7xlnTDKpAC5J1XPKWIKjXxQLFTFAF8lA8pEQdVuXPWyP7KY3Ezb13KDQbYa8sKpNjGYRoGQIh64oCeJU+oBAoHCIP+kxpVB2Lm4c3DtUus4AMy4n5LQ824iXxtxg0DwXWQMHxWTScc9i0Uzk21Nk1bqKG7kdDDZrKa0ANaMetGJimaxxQyUMJeaZs0GGwJxxQmUbVqdiwZymtmypZhhlhD0iYeY/7h7YEIeFV2BHgBMYl9AmJ1k5a9ZjSoWgc2//JO7ix2iRoMNonWjZaJkc7AGAbkc+hwRgo5SU/EiqnMsls30MOmXYqSnshTrhR3oMU4EYASUZl/4E5wRZVoLAqn3NokrCnsSyvUgUa48odoR2LHQpAUOwEXkqyjpYi/MmvbN9rwVpgqOb9FARgBeEXe8EcoJ+tB1tTGooqTMjBo0IpFgIZlLYNzMpij1qnb80Ko5KMO8uGdxJ+GZYKkCFnTtW5oMEIgUp8+RRIQfjTkzMPqBdYe6UioxLi9B+Bn97Te5kF1OiWb6V0LBgB8hinSCDJgRQ0drEIDJoak2+R45QeoFyKV/Tetu6hxrTkdKXsSK4d6pCi2a13whLPZWma00drY1aYEt4XMwLz1IkV+FWgjDSqAQRmxaB4JcalAuRBsAbkOTxK7QWwAFDj7lZhm+yxVZmXhFk5SzBlALlcqDD46FDeipfirSTQmAPYojWF58ObAisIs2g4DAvXCuW4xX73lB0L3AqaLa8xsawChCGpzIQmTeaaN1qyjrpcltuqOiXr8DGrG1svC0nZkWBl4jYJQZq9wp/ZQB4LJaU20m141BApbMx7wcbsBbXEP3nqgwjvYaeCkMdTQdmFJlPEbnxtnpVNyLcLFW6NbOn/wcbkdvK8lEHEmYHCkJCnH6eFYuhTj05SXfN0CPiXPe56gN5TqJW0O/gy+38DibCDEWrXAU+FFcqgzAbyJNgFtYTXg9hrXjMqlabtxXZWOSwgZSCxRhENBhtUT5CnwiRQ8j88tGa+Yx02I8IC5akKQ8Lm4pSBhJeAVcmlzONBvP3OsISqmm0UDWs4mLBXjMpEjUq05b6slB0LtBt7AYHPflArstFiDEnwXPCsWrOBXkdeZbKHIQu5hi9yx/qAgppycqgch6fyE4fdkMTLQmvuksJKgOSb6AFf4KofH1rLcFMmIqgpbrRBT8Akg1INyq+EKAS/WiLMAUF5Ko1sGJkGc5L1BhPoOZ6Vqkz1pxoUBg1I8CjA0Fprf7wXlgRvqNpkVEKvodJWwxcpexJgpwO+MQnkUkh8jEsIhHw78LuWYKEyJK8PxbcZ5oTQRNYHE4kyb2EfqNYNiEHCXnIsFVqtZBqoKodTYX4mFB3GFpgk7A0qwhPyHPKewVNVIM4VNkEtDrukXHKuXSNv+1Qow5LX5WHegwrmgCFToYnH0hs0iOpokFrCK1lyK4fD55JbGca4TGjKgGKrsQO2bb3jSVSDci1L9WtRYlCMNZi9LoT9v0MZlUowD0UaUDAKUH3lVvqAJpol0/cLrUX/lZ9dMRT4afDCuNb/hn42FG6WleCAAvnmrfQFPx3Ka2Fq1kymcbp4Jisc5W7yKj8xQ3N5/2DCS8ih7hAqYeepGJbfjXfVYmoWzMocogZ2GYv3u+ZzouyDiTF4ACjvpAqEW1Gbjmvyn4zE427hdDEouJj3dYBAngoxmEDQDZ5KpDFCEfhgSrArG2RqJezaNmjGDkKSqDMqRgzJv2VorfdJmYiYuoGm2ykFVgAvuPFm9mrlPEIc0NUQBlhBtel9MBgQ+VouZEvZg/ASVigyKkxQSbtkWiJ9+dBaFRoDxVWHjeFZyamEQqdUAF0ztxpMTCzjP/FOkHWhiTeBftcyKij6tUIR9hgsLwV4VQlafeRwpJSBhJfA1pSwmxF0w3krOZahhVpeRLWHDYESg3Yj3Go4+2/eshZLImUiYmfoqaGASjkWzEoohC/V4loVeEEVKARK1HlFHktD29h8ymCCpSAUnRZqGFQIxNzEaqiVTHudU0Kh9+YRkfhwungs08w5HziYYCg4dgRQybjcaB4LL8o+0Rph0GvYkWX7jKQdXiXUeh/Jux1XyWUfTMztWbJhIS1vovS33IOx1YIYNJO1bhQFqMxlDpFxGcxQOKQMJLyEFY+24D0zlLcSBkEO/ryGt/Iedr7zhnaEojgLswW74hkTaR9MhEEnyLu5bnppq4AYauVWaDHWHJ0eCgDVczSQoU3kd/tDk8w3mCDSwZRUfyU8yYGwOWu1VbAhtIgYkxALyVcJqgxhWbhdKQMJ0FP/D7yAc8Vbuek4WLX2IgiDjBSSz4iEwE+GmqI2haNXmEeQDCboL0h7QpThCIbFwACVtUKT6ZoTQxmW9+GxhECcdgCp+cEERQcToCieuTyn5FZoLDXbKt7Da9r0Z102hV3xVjyY9k7KYGLrsIRdA1huBbRUCdb0IGAECbvWDcWZh7YzZrldctoHE7mPIVSMAnmVGw5PQpupJaAK3CoDEjwWYwJn8FYW0upNZhgcTORX9k4h8PEgvImwWHPi2GtB1CXoBiUYr0lqIVcVaqws0fbBRO7DQ0G+AaLyHkl2TXFiRdnExzOqBsughEZ0zdH8lImIJR9Kf4blhkPAGVtNsTobms+AYVjYDLArLApzhAmKDigPD5XraKvYyOdQo5oixNlFahufHE645RUZmKT9UqEpg4ncR95TuOZ+Yh7UFIm7ChOnnVHBrTAZIO6O0TUMmzKYODpX6BMCVWkqttprghQH9wrlobwPr8iwMBsYXMqAYuwKyc5YF09iKW1tMYL/uFDJOqPyXgxLGMwWzoDCkzimBMxg+YYw2AL9VgigycirGC8AVpP7AaGZtA8oqDDvCS1j83Kh2tUgsZkPpCAM/lcoAxYGrxSaMqCY2yvTzQwLS7S2B8GaQGnGRsVi+J9QXstm5TykckBxw+FKKjM3GoZ1q9Da4n1QZbRwGBZvBXk3VlZroUjKhETlB1cSBnkRFWHNrXxFhFcAKFqMUGiMTFhEkak1+JoyIblQqDxHGFSpYTO0aKsIrdpDQi7D0husvV05ZUICBC3JtJttZrAFUCncPSaUR2TA2jg1d8GnTESEHwMNwqA1jBTLAPOghRjQkE/JreRYPKNkPmUwcaMl6QBKuRX8CpPTYZYtxNEkLw/VI0RDNuVsyVrKYGIwwhmDwh/DEp5w0FvdbK+L0SDsQvgNwqLQpAwkWAYIdcp9uZUwWDClc4a2EMs9YFhCoT6karB2LzJlz8Kw7hiq5Nd4ZlgYDU8LlXfVFu8nxGo+85AOB7dhJvGrwcTQqQpNr86JDzhYxukfFtpiz6dCgSGX3VfWefOYLd4rZY8iccfYZFiW1ZaBBuV/C745AxL6NLkl74DRPBV1QLFsw3prLAPUYGFQvuUI3hYouFxKoVAwLB7rEqEpg4mWDdRbjuVmqwpBDVgGLbyI5Wl2YGGNMmTLQFqwJ1L2KAzHIZbG5t3oMtousb5OaAuxT8sCEN7Ke8rvah46kDIBYVhOmZC0gxrgSkbp8d3tq2ohvNObQ3lIGJaw6LCAlIGEYTloSYWGe8W4KMNiAC1CIXD03aFyOoRC/PaEGgYThnPrUJtkUGUYFQPTbhEiWxiWtZN6g7yj0frjQrP5PJio+uxnAFRqBlv+gcpi/Ao63sKwnD1oZ7tCwfs40aLGusmUCYkb6mi40iOUuMOXnhoKW2oBN8jdTFhL3OVXPGPKYMJwbOzjqRhWmZRxOBLSXwuPpdpEyWFYjw/NM50HFIZz41BtHN4KfiXfOjm01QiWnRAMGdzg5PvcfzWgMCwNYAbFg8h7gJa3DW3hrYghCoaM2WBNUoKjAwrjuWmo/Qkmc+RXeoXyq1biaF8eC3bGsPQqUwYThsWD2E2lKhSe/F5za9+8mM4RbnnJu4Qmq2FAYVg3DxWa4FfUkSOmlFuJMIvVADdTOOQ4/YDCsCTvVjS60X6CAlr27pwnLZfjIe8amoY1oJQcy0kT8h43W57VElsSCr0Hkp+qMFH3AYVh3SBUXqX5rH8HFb9uaCvRQmJYmtCYpC3ozyl7lpJjaeMg+DEuodBikFYir2JYgFinXpwjNGUwYVhwLPQVC0AcOMl7GVRtlfvI6SDv3hP92YxhymCipaNKQ0VG7jOoKrFmWC1bOowK5GAVt5O/UgYTTejbh7rJOFifPaISbD28FoalCS1xl89ZC9nqfVL2KDyWoQmhyY2GZwFJzRS2uuG49E74krw7XPOqoS1YFCl7FDcU8m4aGWiJ3YB8Z2FHq5EsBusUfL1Jw6oOgkr0fTBhOFYXCU28FeNSIT43tBWDVE71rlAeUvhFTc7x+sGE4ZS9DfjnMCz5lu0vrQzLqu0yTHFG6J1CW+2ISNmTMByhqVSEbjZ18pbpnRZi/MscI+9o4RqGw3lDUwYTByUxJAxSFSGvZYoGLNDCYxn1en6oHKscb5IHBgwoGJx2VakG9QpLiLpJaItqTT6F+mzJmzwL7/3CoSmDCaKd7TIM6lWhxrJ4LQ3iFtUaRB/iLq+D9lu6Jhwn5DCYlBvNsPTwcLL08U4KbdHWYUAIfs7QEQ7fFwrLyhGwwUQeBUtSFYIBJPESa0MPLSgt3s/iNT1JuyJQoSH9iWUNJm40aEFIen1oOZHilNBWZwbyUPI4jAqoP8ghsawBxaSMI95eG1q4UjbCOLCphdiHBRz1Xoz4saGJZQ0oIACj7wZIVWq8lv0KFw9tIajPrwhlVFTR0OJolZQ9i4TaxheeA/LuzEAY031CW1RrKlFnTMvpwA7IhS3OREyZiOC/vzEUk1QCL+9qQR1WbTJi3koCL89yvEry3weVS4YyJkApNWTRYgReBcgrWkYC3pDTodAkm3RQUZlJqnkrI/BCVIuJHYbl3GnvhaqDWfHeUMMVCZQOKKAHXCzVGgReIm/NUW1hPKZ1jPaXk1zRlREMszocVF4SKu+RZwmHeOm1wUsGjD0heWdYjBjX3mruZDoMKoYr3GwehCeRzLdYPlsOG+cVvZ9JbKH3sqEpAwrYwRiYik2eZey+BTcLo+HFoXqGDIvyWpL63EAzqNipwLiEKAZmyX9tUW2CHDS8tXZ4R+EX4p9H+A4qWi6MCkcLgPmC0NrVGs+oMoTwMyjVofeUdwnHWR0OKJrPBizADm446nLtzXsKAqwG5/ioQrEqGBbsDI2nVQM8Zc+CMsyoeC0GxghqisrQjKHigDFJ3hnW6aGo0hcJTRlQcN4h4242A5No16a2CLnoOTwWkFSFKPTylvcIzXA4oBhw4EnkP4wLmOlQgZriSLsHhkLdLdXlGbV37OoyItaKtpOyR+GdoPC8ljCF7YCuXLNR7D0eHvr+UDtJQRs8l5zuRaFXDxUyUwYSHPRHhhqHLxM1oICavCnvIXfjGW1RNmABOwNBmD3UO0xm6YByzVB7HYCY8izLPCwRqdniuUroW0LhZt7L+8DOeDEVo7nHlMEEOo7Ogi/FkwiLzwi1O6uWYJN6Dx7rnaHCobArHKoYW+5DTdmTWOMouTb4IKGWyAMwbQGs5bUQCZ2YbwyMlxJ6hV1MVhM8tfO6lAkI47ll6MtC3XQ3XFhkCLXaLiAF42DwKwn8B0J5R3kdw3p1qH0PKYOJPMsIvrAkFMp/3GyblWsNmRraUBhYEiLPcoiB/qGTX08NzXA4oDh13vQOj1KGTN1wAGatNg82g60zDj1nWMIhiANwyqD1FGtzwlL2LHAkORVcyQGZkmu5lv2h6DQ10HHvAXxFMgQ9fDCU8QqNeGG81rlDUwYThzYZsqDYCMKUqu2eobXyHyg8Gg0evDyLqg6h8W8NbXm+T8qeBHdKqHpeqN1WbjbVP7T3oQY6LtTpT6InqxD1C1GjNcFVpQ41SBR+MBHuLP7nsZ4ZCnOyKca6I6ex1uKpA0N5LYvfVKFCLgIgzyVMtqBIp+xZNKUtTAOQqgrRiFWJrwx1jEkNb4L85wgW8IYEXiKvveO9NMGh9CmDiVCldyf8nRb6oVBYkxsORGUUgMxtJ6cxGnhB1aAWEs8ogQdFPCe01VEsKXsUeBKjsq5bEs+TuOkOWwKY8ihwL0a2qTDg64XyhO8IVRkKiQzMDvqa7aSUiQiDOTH0haFvCmVYAFP4k/lDRvf00G1HuPQPecG3hao+vQ/vKO9ykGZu/xtQrDsSkoRE5DzQgwoRPACDYnAnhG5Dd2E4x4XajYpKo42kES7f8r6JaQ0o8qg7hwJMMT+FKeqmF+NSPW7rtYza3y307aEGWfUpFQuSehVqeq0B5fyhKkTVIYPSNOa1wA8wqNeF2vmwbRsGqRDZUEhEWcYuZWQ8ZostOCkTEEelPDlU3iPPoipFXkuSrb/IALcRhmkhGzapkCgcou/gbQFmc9hiQIFbyYP08QpXS6iCPfFaqjrGty2+xTPdPxTLVP9QvgWgRd3JzTSDinxLyNM0lgNR8AAvxqsY1d8GeiC8kl6litPrQuEZl/6h0zNSBhXtHEwHYUo45L3wqUAQwiHoYFsBujoJVmEgpxMWwRBCZJ6CP7A4jhdvvZx5KIlXvUHPAaY12j0AWDmdcIinxcAYl8Z1yqCizYJCg0rMa0Hj3XQhEtBZw6uAFxiRQVYkQGEX6+EpoduG25SJyhVCrTrSggELuOnAUyHLcrVa1OJzhVoYIo8DzHp9WJpDnlIGE2FOj9BOeEi55NpNN2Xjd0aggquxPcZ7XTpU2JXLeQ+JvKPpclnbgMJo0JexEoQ/0IPeXhm+wAqt5bWEXaQ/nC3vwTNaigv6qJHLpUxMgKGgh3kwU1jkVSDotSo42JaQCC/jEXkw5ytmD3FQ4TUYkP6eG46rxWvxLHCnWl6rhESMCgm8KtSImvnE7CEOKKoztJaXhsKyJNalgazdgzdfa1Ofds/1Q/UleUStJJz8TOQHFZv4AKMMC+vTUIRKEb7FazmrsFYuZOYRydAGQEtFeC58MJ4xmaYDirH800PhWpJ5gGaBIBzGVHMoQm5Xhl1hZ9B5lJ5cNTmgSNJtWuatVIQmqLFAeS7VXM2FaiXfMpZmYQmKjRCscQ33ShlMbhDqKGCMUtWbCrHAAxL8mriTfEtDGo7GkIVc84k+g405KQMJT/KQUD1DORDvpb+n3fOaUOP5tbwWkW/dKlR/ksfiGSX2zmDMrYCDia3ItsjgbCH/8VYMC0TgDOra64m8Hr49w5VrMTDMC6TATOYHEiFK41ijGDouRPFaoAdEwJoL3AgPaC7xoaH6lsDa94QaslWN1nyvlD0LXEnVBpXntcrghRAJGuDVagpiILgBeKoypbj5OPoYrQmgDiLaLDcKhTe9PBQEAeMy8CoHUr3Jj2oKz8RDqRR5SbRmjFaeLHfHDySIgBB5Y2O8h/wH5gTUtBn5GqE1E3kiYb9hqPxOQs+YVYy3CM3Vk4OIm8xrWR6CBfrhUEblZsuFnNvTooEMiHVEsBbTG0J5L17yLqF5kusgYkZQ6W/AAo+KIgEyMNCAfQ0tkmuce8yH4im1mbyvYdj0XAMI7wGwtLHG7geNY+wHVGM5kEUjFwutLZJ5++odrcJjmfSB0Mv3GHlSbQYQY/duJu+kt4f5IKnmRfx06kXtRJ6oBK2aRJ/WCfDeWj8M/DahyT7tXIQ6M4I21mi/yLEKb8vNlmRLuFtMODMua79VhowLSIvDZWEvT5oHb3YuPBLPxHsASgs3XogyPiaRbwUJqDwvGQrjEg4ZM5QexmXRSE77dC7nC9Ur5DkYF8PitTSr0Wx4tFb9vQKg6gRYB8DAdAGg9HqNuee0c7F+23SPAQzsTz1EhoUrr3qD2NfGtooIyVB4C3OFQ9uZDX1I8HHJWuR5KTsWM4m8Ba6WdZCgB14MC7Ul1oQzhmoDoIWryfc0rOV5ugFZLXYuvAfAUr6Ds6WPyMiwIo4PbXnyl5D8gFBGDIqwxUaFKv+zvTmJgp2LcS5n88h5hCSTPao22BZ2aKuQ6HVVigxJuwe2ZjcEI7OSUn8zEfrO5aKhcCUruHkNiLzfkQXPE9pKwBBwNbOJ+FsIiYoKrSYIPXji2NCUjgUhT4UmmReWcOV5D5SbllAA+vK9QssACMPGemXouPuq1DSujgXLU8sHV573wDhlXIwNYbAFcFqEV0RIhKdR3DEe61WhDE7FWGPXV8qeRMIs5wE5uLlmBRkYaKDlMKp8y/QQgJZB6V/K+eBqPKjq0bmJOZzRsWCVOk+HccG25D1+f2JoS6Iej+nkWEYkmQdB4I0hJQJSEQcZXwsWRsoORMhDsZFAu6H6iQ7g5MHkOy1XcesZajnZP8G48Lh4Ld5LWESzBlOkdCqqNWxP+JbtNSaptX54MnlYy92j2jpYGBJ4gC2PqY/JwLEibheaXqtjAY4q991gux8Yl2Qel8pu01Y3V77FKyED4osJh0BbqwJQfRQTQnIrfC1lByJZxkbQ0+M1gKeqNAl+y2RevmWPPJ4+r8WorAnQGRCShcTkcXUuoAAVmQpROFSlGaG3OHfb0y8OEgeAWo+knwiZp0KiHMxcZA7Cdi68g6qQ5+C15F5aPva/t2q7CHW4+vcOBUNI5sv6S4WFY4wdydISX0vZgQAogadyLWGJ58JI0DBuyQBlYPI9Ez9yLh7Le8v9LNbNwzkHEDdR28Wud2wI41w8GWS+dVhivMiAciwhEfyAgWpjdNJsBhAMUOi44+xQm+VAjwnFSm09Qs+4MDFUp5J6uR426jy1OSvGTuXyodB4YcmEj2RamDR10zrnUTAgAyIFet9SpUr0izCsNK4OhWfiuRgTOjO1WYYnsz255U3ltYC0rw2FzPspLAJOWwK3KTsSngkDFIAJ4/JTfw/dBUGwpWgr3Sn0CaHyvDJKduXQlAHEjZTn6CWCAfC4IOMS+tY0F5PbqlLNafmW3yXyyYAYQExXI+PBlSTyzvHR22NckuyWvHXh2BYdnkoo1Go6JXTbg9ZTJiDgB8MQkmh05s+EwrleEYpirN/XEobQUyzT1T6D7YFCZI6QdS6GIYQ9qLgtgUIhYiBGBKoLo5ut1mqLPM98pJP1tZwUDyeF2hWR0rGoDHkJJT/eFFoLnrxkHiMB89QQakHmGUJtbyLcakqj9JRWE5S+5ehaSmORzwBHEQJ5LB4DxsTA9BVNWLvh5YhfodMUdk1hrAY+CvRgAFeu1ZKQmNJYHNQkt3HMCWMyxqVpbOIHxVhCD4awSdCiNTshWixcc8QK6IO3YsjPDs0kvmNhQLyUHEtOZdAUtVjJz8BM3EDnVY0Flcezqi2lSa295PNYT6lwSMC0U9EftGtLGGQ8PBdKMyjA3ivhyZwgZN7fkey72S2QeXsoYFmgB8bsp/0QydnqUErIY1RCIg+FgcAzuaG22QiRsC1sCORA3qUFrRkvTM/QVI/iwWomJ3C0JiOmNBD73AGkeFKMSmPadmaGRUwwC0uQ8cJIuGBoCy+C3aBwYFSwNMWD+cTMtToUB4/Lq+RXZ4RiHMwaFjErqIcI3+LZeLlWYlSfUeGLlf7lY0MzHHYmjEh5D8fSM7T+CMtgNofiSdCIje0zMDe6RQJPVKkM6sxQOBqmq+UmeSJGZyIUogdjFwhzwp7tMfOC7aCXx2v5u9DyFgk8JimQVM+SYVGG5XOmdCSqLpgRLpZ8xkEBBhzmhRFpSmv5UAOpLfacqkY1pRnUx0NtKdReUqGmdCTm/uRNZaeVClGbZ5GYcBY23WhYE1CzhdeSZ/GMci0KepALpnQk9wwFJ/BUtvHJsazcXiY8hxEu4YlRtujnCXuSdvlVSeJ9zpROhLcR0oCgKkLGgi5jFnCZCH9yIB7FhA3AtPYAhkTdgl7eSq6FhOhzpnQiDAJjk6FgNviJ6XCB0GXi31g/aYTMv8GdEiJrei69SGi/PMsB66a3Hxaa0onAhh4cakoHMEo1mw/aWSq30m5hiPjxAExeppbnQqORywFk5Vf0UaEpE5X5RFtYs9lYAxoHC06FcHcQ55wBCU0SfkwE+Q8vB6WvIVil6DNCrd6lzoCFbSkTFEj6vGEBORHsCi2YB8IYXYXIh1VaGtSMwFDGlUJriCEOG3JUqDyoSR4nYaRMTBgULzNvWHp+mA1IfoXZAIlfpcHs9fCn5FnG5XkwoGkNmouczXYc3DAHqiMBtly5lLKhMILZ3l8RoetZoUIggBQXah2Em2GaCbRMDQvC2dU1SICM0/SOsIzdoMCofVp/ypbCS817qiJXDBVuhEGJO/YmY1lVvC4ajXCoz3i1UKP724qiwnolHlQYRDg8GgSSMiHhwQCcqjvJu1F7zed12zSSdobpNRAE5ULbVoc8FmOC7j8o1NKQbEJ3IhgLjwxV1TEuYXBT3hPIQkhkBLY1b3tmoeJBvxDhz5ZnGNaswS8K6ykTESU9VgNPpapjZJtSYZzjI9FWJQJMJdrbeC2fzWuBQBQTuPal+MB+EBZN8AxpYMvylh7EZ9fzY1TaOG4ilsOmxsCbWAWJ0yXhhsyjGW96jWx01r90hIrBDlRplarCQB5331BN6VacsJ2LL4d/LZfAWYLdXDi05QFILQQGhXfl5uGVQ8+h6ZsKAzJ3qDKElqswbxS6CevTawFtDcqi6agIPQSMl8H5M58X2bD7StGX5XrxsZXmuOGYlG6OygXy7EvKDTZ9SnclwsfdQ61r9F2Q9uRF21J/fW8HcmJImEVUzW2ybttDCqTV0jG1o6BgWB5guBncDeYmB4ObdStuBI63rr8uu/OPNUetl1aic/8qIs1bpbdxKl5NZePfTs3QsBHkQyo5jFEhrNYAKi/locPX8tBtsn/BA4yDL6QiHPJeKkItHS0e15vahtPtkAUP5OnW6rA76tOhjMpWFh5LK8T/8/RLgJXH8pVHhHrqXGghRjLKle872eQNhBYTOTyVG1iT8suQ4FnCKyOwV3RdgYP5fCAGFaEHledzLXHFPMxCLcztaLyxSQov4yL58OWkUp7qE6FcsC/N1dsvcGooY2JYPAAjU20xPIbo4shl8MUh3ceFSmzd5KMZWou5PZPGaMgGTxmACq5GC6YITy3/ceKYB846yHXpNBB3HomnUm0K0a6Vz659hOlgK43BVt63G1EZ2XtuKuWMUDmDL+Jp8dSgdAgdjMOFvFyoG8RLMTAX1RPFVbuBZuOEzc+GetpgMv6fVT3ARBfPa7qAJWz6b3nbOij4QWKZRzEqN11vr1YILIJuU2YUy1DGunkWD6rN5LoQD5h74roxLH1NqYcmdTdovC8ANwH2MRDeilHZuKLEnU9wGYIvrhvv6XRBPLFuHmqtUGmC2BogTMj/CWWgXr80ff0bHlBiyu0LnZ5EFZAcokaOJqR7UORVPptpYw9EbbGFhgfncfy8beg6VJpy/TEaSurg+/NYeoaunRyuHHxQ+8FoIr4U+IAxaKqaRPFk+JLc8kFfAnAnybedjkdScZl60Z1npF7Ln8ttlMrexw1wkfyEKZVhBv+fxxIWhGTeUcjyGV1oP2E4/oyxM+5lhYI/M3DqppSQLBH2GrVF4i3p5hF5LgyFdU6d8O99bw+Vz11SBTkqbEwEURh4aBkazz5p8QVUHi6GD+6EKjdCOQtGWHUflNdhgEA8ZbK9U26kRJYBceUmjoVEx30wJsamrcK4VJ4lpxNK/J0nhWqZ8GjwMwwCoCGvA9MRniW8Ln65EbPi4p8WqnynSvdtoYVlAhLgseWaUHOGxdusKtaA+56u9+x3ATt4XdfOtfGTAa7z2jsXT4bcAPWVl0Lid7M1QbdJbF0YXgyDgEFomajChD+hkKF5sgsXijfhzQCMqioh1DSMi8jY5WmMzd8xtWL7i16a12R8Qio0+lKhvJl+nXIdBOK9hEIgZoupmiJCt+/jweF51wEwbQwUGRgXmTUsfCwPnodUJJDLmphe5KEnIT4YGq7kW+w2eeInEE5iXeuDCzuMlKvHsvR+QqyT3b2XC8Vb8miUkfkcjIiByfHKZ2P8qtOPhTI4uxZ4Ov9eM5mnZUS8mZ/wNTmeMN+i0pwVeRsvK8zzsmW95CpiNXfJyeY9rweGF/SQqbY9kKLCZMXT6wlxQ5SxbiDvUdzxpnKQQbrBqiWtFU+53MxFVSAIV0JjWT7GUPwZr2PGjkeAbEvC/T/ewWdWifJq8g9hCAiqLaJa5TVbhb9Z0W/0oPj8vMyi0LxMPOClypu9fu6RlMJ39Z09eL7bpCtC5bynWshxYBEMirv1tM/SNNaVdRNjN8CN956MjaHp6EtY5VLyCR5OGe8Cy9mEPkOmvB2jknuANvxEFfZ9eDtG5jvyWC3DoO8ATIaPaR5vuvV43hg9gDBC38u98SAxtFV4+XsT7tToE2/lg5dcpFaZv60wNCHURRQihBqJO28gd2J0KkgXXogUOs376Q4AdBUhFMNTeS4v2SZvPJp4MIzG85Kgl00eTNd83rBKw5xByT/do0kn7r6E5qv8ROymkmFTK7W3AtcUXkdi7oKrlm4YCgcDbbjwchADnhJ8P42pMzRhHuzRCmqQTzFy+JXPtU4YLLLoc6nMkRA9GAorYR/wOoUHf6H4YG6KpFcIFDbcHIj05PGRGeGBVH9uqoqJ52VQwqLVjoxKWHSKPSiDR5Gf1L4xKmuYnYW0m4QphrjIGKUEXld+JbLwypNeaeTCCg2ehFKFyV9QY3oyLN8DvABKKLiZCoqHYlhG1OVcQiIYg1dWKdbmkGONglRADJt4q0X5n/Cqaa7KLPdInnnQpPbeBSLtCZajQMZVXL4IWGCyrnaBuJEwMwm6/EsCLSy6EYBF1SKPzMhQf1RWx4fWPGXLQwqvWwdiKKJKXnS9eT49QfdFNFEp6+PuosLdSoCJnl6hkAIuMRpgTZs8dfsWFxz6fbNQNwSmJCeRd4EhCh7G6OSWqs8a39NrwMo23Ze1LOfTxfDAC39nhIIy3LPJi6dcZaUkV7b7WaqanvnUQoW8C4lPGOGRhXkeTB9U/qXKgtfV8FreT1FQu1ITXnUVoO4a6IDlTVipOxdPmgTehZd7eLpdfC0dW+169FpFPDSIdrhhAGBwBK+FsGj9ou+JjAjL2zbsg0FU0jXTh5JfYZeAhDS3S3O6C1G2w67ADcJDOdqM1+ot15oXIUZryrFxQFQ3SI7FyHgApEXJ9jbf0cPHqGpDGIU/BpdThOggtD7xtaqoRuQHkGxxXGKrsQuPwQRoiVbvQtx4WJCcC1IvCYZnAR0l9tvyshjlsuR7U/FaHuzSdNZwx+LoTuA62hB6XJ5s5bkcBPUY6a7nkEjkPtgaQiKPDNsS9jE6toUdGEFNoyLaQYXyreHMW21Sbe5dtB+guXAY6C6jAjQKiRLcyeMmKwivparikeVYwEaDoFMr3T0ERvV5VqCoqr31ifpNRa4h1+J6Pc0FTNRJx+ScdNNzBVFNYV0CSuUt8pcp7pwS8oRs+aAIAh9rTfdpKp5cAJ8qSjgsgCnKii+KXtOlOz4iknjfB5PDw2PTzDYMjhZic40CSvUKYdem6oLXfpDArrAHYD6qRLiWhF5HXU+x12QeM4KHKgCpRH4dLvouhFfCIHW95VWKi1qrJychBhcQ7mBZZVoHcs2DCZU455NvKcwILjzGhpwF45QHXocyvCsxoYRnpieokAKGdh0C5wUeAxzVjGZMwqJKigcDpHratRV6qBQlwvYpMCafn+cV7mtjTtsKLNF0k2Rdp0DyPkQInBc3BLZVGJpiPrIctJpxgSF66Fnp3Z0UKrRTn3tqoVz6YRhVJV6YF93uZFhFkOlUg5JJ7AA9NmHRBWBoAFUN3ykLjMoDgs9kJYCwOCWRUjB8AyEqcYCtPHZqHrW6aCGUkMhjeeoxAxgWNsTUF1MI1zA4/UBV4ZQEqIq6w5iEP/mryrsVdXpS4snR8jAjp/z1ZMm39NrkLDhO2BFHO3tmClKbdVBDFBDPD9WzFP7wrKb4OZuJJ0gCbEpG1aIchs5LNEtoRE8xF5eymqj2EBK1mPQDGdWh8FTzokIBQaAxK9t5L8g8TIhhaY8g/NfcDjOqMCrMXe0ycI6cqveuxlYi8eW5uO8yJm/FEdBR913uBbXfZpfn6CK14J1Qp8E2qNRTQ/93LhJhuRTgDo+pLKkQDuFEOEOAVEnoFAHIfQuvjwpjQQnwWZ9yKAB0G2FcaDQGM1WE2g5osxBtVBT5l2rRxQNF1KaT9CpaM9B/k91y1a428e1KGBePBB1GCET0B5zikZvb01/0U2/OsELvRMFtpJAoYVX6f36WTX0pC4RxGc9H9C97Snks83yAPgm9MIn6YQD2MFY8vrPtfFIDe7LQX3pmh+xM5AdaD8IiZF6OZcIH1wngB+/SUGV4dg3oh40eGn0/xuO6aNMYgFABGuxIWUO0JFSLknctHx5LqwcyT/GfMDa1hRhg640v+xIeXJfCVJBlJbb12IvRS7N+ksJz2QsF6IMga1wzKEwC+ZYEv4RInC67CFBzRhHeSMhTLYNj0Io8bPPe2UNodcGhBEI3Fa0IAxkWYjAehqVCZFzYECaSIfWMS2jUFMbjHqGFYfABOdL3X+aNrS1nfAzPIO2hx67WEeAfnGt2rRBcC94lmYfWMyx5mDk/uRgOUu3lHLsWnulouaPvJxXQVzV5w7tve57hoRTuXjjgqaDywiDPxYsxLD+1Mww1wL9AFrr6I+Yi8i7GhBmi/aWKNi10mCGYrURlpLy2VgiAymMJh/AuIRKmowmrx2ifKIIbvndP65OOJjyYo108SL4vrI8Xt/B26kyQyYvQqCpSJQl/6CHvDeW9GJaLztDsUvhoqByM93JDehbFDPozjy38aXkJhfbeW1mQUkEYF/wKloP9AHpgVEIhA/M0W6vNuACqfmrQGs3qsePP454Qqq1V6NwqZeu0DzWDoZWU0KgaRBbEjGBAQFStICokWthhSpmaqTO21UPupbrVviozmYiQihP5pWbzoSLw7VokrPhavBH+uQlribynG7gqmUcgPPOIMjyVpePUpvq0MxgTTfJDOJ48klGhcsun0KJ7GpXrWoy6w7CMkmtUA1B5MSESv0vP0U+hRKgEPMJ+ptZnM13jITEGL1/ErmVceFZC/wj7LroTVRMDc7gSZqoFY26QPIunAlPoP+q3GeYQTqYSEhk4hoKCxKpvFZ9mO2yOoan65JYpexYtDug1EpyzdbAB5FvyE7/ru+17PaJwhtMPXbcFUCgH/grhFo2gxihSMuxNUNwUyboEX+JL8eqBp/vwANou9pMyKNQffc/bh6pogZ5mLrEYaq+ITGkg1wiF+zAongAGtumSXTdbcj170xnoMiMtf1+BAYfiQbWccPzlTiADCbnqDztWWyapxR0IDAh/iWcQYk4O3fToFbOQAEksCgZDJdMowfOlv9zN/8O6kNMJv2hAtugxLAcvocPYTqOyzfypM7HOGldeyY7TZUPwugk7ugqDgnQLV5JsxiWpxrxgHAyDcfGEOgNOtPD/cdGtk5SEgw/8W0h5GlLHIqxY2KHlo63DW62zbYUnAV9Y/6NNZBSNgfI4XsvsnsY4zInBGm1XFJwYKuQ5cEABwUN2sUc9ZTWBU8GBoNaatbzXqsJLyX+Aqc6YBrI6+UtvEk5W4Ay/WwfAkByMyVvxSIxyNg9LGUQkwFoh2jyAUkn7Ks1axmAhic3HQFb4F9QbDACwlK/hPjEq0zG8Fc+YkMAhEZPTWKc8DONadTEawyprxLWGhECGxWvJm+RTwhpDSo90CEV+wxh4GZ5rnWFOFBsLSfC5cO0ZVOZIKWd5JsakLcIwlPar8MHlRTjkqkjUZ/jSptBEyoACaZdUy4+AkKq3o0EMQpoGr3F1lBuDGRaqZd6UcpaUnMemYJiTvqCqUFN6mUjy4U0WatgrZTcqCCFxppTPS/FKqrbCJsVuWLYCiVHBqRiUXMyGQSNX8yh6yiEWRlUMSwVo15ZRfMS/Rcty5VPovvIwST6FjG/aQ0wZVHifEr7kS8VYtHFQT2aFR0JJEfb0D0386Ollop5yNmFYJdnGgzfNAsMS3uahBtvvUJd5NMaFnTlvfCkpZxPeyPSOvEnTeHaHqcFOW2sk9saoJO25WyplJXFGIizK+D3DsvnO4ASjkqiDIeze4rGmvE8+ZWICbhAKGY+2jNYOwBSazos5jHOEIdaUHYuVkzyWlozk3ABFGcPHdEB5QQHO1T8pa4mJFzscypG6vBQPpk1DYVe5mSVlI5Gw41NRrRoDC1o7i2jEKSkri/aOxrNwJ3FnTOtSklNSUlJSUlJSUlJSUlJSUlJSUlJSUlJSUlJSUlJSUlJSUlJSUtaTY475P3XhX2X6V17YAAAAAElFTkSuQmCC;flipH=1;" vertex="1" parent="1">
          <mxGeometry x="710" y="46" width="140" height="481" as="geometry" />
        </mxCell>
        <mxCell id="X9fpeLWt1j-jbo-fKKKr-82" value="&lt;span style=&quot;font-size:11.0pt;line-height:107%;&lt;br/&gt;font-family:&amp;quot;Calibri&amp;quot;,sans-serif;mso-ascii-theme-font:minor-latin;mso-fareast-font-family:&lt;br/&gt;Calibri;mso-fareast-theme-font:minor-latin;mso-hansi-theme-font:minor-latin;&lt;br/&gt;mso-bidi-font-family:&amp;quot;Times New Roman&amp;quot;;mso-bidi-theme-font:minor-bidi;&lt;br/&gt;mso-ansi-language:EN-US;mso-fareast-language:EN-US;mso-bidi-language:AR-SA&quot;&gt;This event is sanctioned by IGC license NO.948673&lt;/span&gt;" style="rounded=0;whiteSpace=wrap;html=1;strokeColor=none;" vertex="1" parent="1">
          <mxGeometry x="168" y="481" width="514" height="60" as="geometry" />
        </mxCell>
        <mxCell id="X9fpeLWt1j-jbo-fKKKr-146" value="&lt;font style=&quot;font-size: 28px;&quot;&gt;EVENT NAME&lt;/font&gt;" style="rounded=0;whiteSpace=wrap;html=1;strokeColor=none;" vertex="1" parent="1">
          <mxGeometry x="6" y="574" width="830" height="98" as="geometry" />
        </mxCell>
        <mxCell id="X9fpeLWt1j-jbo-fKKKr-147" value="" style="shape=table;startSize=0;container=1;collapsible=0;childLayout=tableLayout;fontSize=16;strokeColor=none;" vertex="1" parent="1">
          <mxGeometry x="132" y="676" width="581" height="321" as="geometry" />
        </mxCell>
        <mxCell id="X9fpeLWt1j-jbo-fKKKr-148" value="" style="shape=tableRow;horizontal=0;startSize=0;swimlaneHead=0;swimlaneBody=0;strokeColor=inherit;top=0;left=0;bottom=0;right=0;collapsible=0;dropTarget=0;fillColor=none;points=[[0,0.5],[1,0.5]];portConstraint=eastwest;fontSize=16;" vertex="1" parent="X9fpeLWt1j-jbo-fKKKr-147">
          <mxGeometry width="581" height="34" as="geometry" />
        </mxCell>
        <mxCell id="X9fpeLWt1j-jbo-fKKKr-149" value="Event No." style="shape=partialRectangle;html=1;whiteSpace=wrap;connectable=0;strokeColor=inherit;overflow=hidden;fillColor=none;top=0;left=0;bottom=0;right=0;pointerEvents=1;fontSize=19;" vertex="1" parent="X9fpeLWt1j-jbo-fKKKr-148">
          <mxGeometry width="144" height="34" as="geometry">
            <mxRectangle width="144" height="34" as="alternateBounds" />
          </mxGeometry>
        </mxCell>
        <mxCell id="X9fpeLWt1j-jbo-fKKKr-150" value="Race No." style="shape=partialRectangle;html=1;whiteSpace=wrap;connectable=0;strokeColor=inherit;overflow=hidden;fillColor=none;top=0;left=0;bottom=0;right=0;pointerEvents=1;fontSize=19;" vertex="1" parent="X9fpeLWt1j-jbo-fKKKr-148">
          <mxGeometry x="144" width="147" height="34" as="geometry">
            <mxRectangle width="147" height="34" as="alternateBounds" />
          </mxGeometry>
        </mxCell>
        <mxCell id="X9fpeLWt1j-jbo-fKKKr-151" value="Horse No." style="shape=partialRectangle;html=1;whiteSpace=wrap;connectable=0;strokeColor=inherit;overflow=hidden;fillColor=none;top=0;left=0;bottom=0;right=0;pointerEvents=1;fontSize=19;" vertex="1" parent="X9fpeLWt1j-jbo-fKKKr-148">
          <mxGeometry x="291" width="146" height="34" as="geometry">
            <mxRectangle width="146" height="34" as="alternateBounds" />
          </mxGeometry>
        </mxCell>
        <mxCell id="X9fpeLWt1j-jbo-fKKKr-152" value="Ref. No" style="shape=partialRectangle;html=1;whiteSpace=wrap;connectable=0;strokeColor=inherit;overflow=hidden;fillColor=none;top=0;left=0;bottom=0;right=0;pointerEvents=1;fontSize=19;" vertex="1" parent="X9fpeLWt1j-jbo-fKKKr-148">
          <mxGeometry x="437" width="144" height="34" as="geometry">
            <mxRectangle width="144" height="34" as="alternateBounds" />
          </mxGeometry>
        </mxCell>
        <mxCell id="X9fpeLWt1j-jbo-fKKKr-153" value="" style="shape=tableRow;horizontal=0;startSize=0;swimlaneHead=0;swimlaneBody=0;strokeColor=inherit;top=0;left=0;bottom=0;right=0;collapsible=0;dropTarget=0;fillColor=none;points=[[0,0.5],[1,0.5]];portConstraint=eastwest;fontSize=16;" vertex="1" parent="X9fpeLWt1j-jbo-fKKKr-147">
          <mxGeometry y="34" width="581" height="31" as="geometry" />
        </mxCell>
        <mxCell id="X9fpeLWt1j-jbo-fKKKr-154" value="1" style="shape=partialRectangle;html=1;whiteSpace=wrap;connectable=0;strokeColor=inherit;overflow=hidden;fillColor=none;top=0;left=0;bottom=0;right=0;pointerEvents=1;fontSize=19;align=center;" vertex="1" parent="X9fpeLWt1j-jbo-fKKKr-153">
          <mxGeometry width="144" height="31" as="geometry">
            <mxRectangle width="144" height="31" as="alternateBounds" />
          </mxGeometry>
        </mxCell>
        <mxCell id="X9fpeLWt1j-jbo-fKKKr-155" value="7" style="shape=partialRectangle;html=1;whiteSpace=wrap;connectable=0;strokeColor=inherit;overflow=hidden;fillColor=none;top=0;left=0;bottom=0;right=0;pointerEvents=1;fontSize=19;align=center;" vertex="1" parent="X9fpeLWt1j-jbo-fKKKr-153">
          <mxGeometry x="144" width="147" height="31" as="geometry">
            <mxRectangle width="147" height="31" as="alternateBounds" />
          </mxGeometry>
        </mxCell>
        <mxCell id="X9fpeLWt1j-jbo-fKKKr-156" value="5" style="shape=partialRectangle;html=1;whiteSpace=wrap;connectable=0;strokeColor=inherit;overflow=hidden;fillColor=none;top=0;left=0;bottom=0;right=0;pointerEvents=1;fontSize=19;align=center;" vertex="1" parent="X9fpeLWt1j-jbo-fKKKr-153">
          <mxGeometry x="291" width="146" height="31" as="geometry">
            <mxRectangle width="146" height="31" as="alternateBounds" />
          </mxGeometry>
        </mxCell>
        <mxCell id="X9fpeLWt1j-jbo-fKKKr-157" value="00023" style="shape=partialRectangle;html=1;whiteSpace=wrap;connectable=0;strokeColor=inherit;overflow=hidden;fillColor=none;top=0;left=0;bottom=0;right=0;pointerEvents=1;fontSize=19;align=center;" vertex="1" parent="X9fpeLWt1j-jbo-fKKKr-153">
          <mxGeometry x="437" width="144" height="31" as="geometry">
            <mxRectangle width="144" height="31" as="alternateBounds" />
          </mxGeometry>
        </mxCell>
        <mxCell id="X9fpeLWt1j-jbo-fKKKr-158" value="" style="shape=tableRow;horizontal=0;startSize=0;swimlaneHead=0;swimlaneBody=0;strokeColor=inherit;top=0;left=0;bottom=0;right=0;collapsible=0;dropTarget=0;fillColor=none;points=[[0,0.5],[1,0.5]];portConstraint=eastwest;fontSize=16;" vertex="1" parent="X9fpeLWt1j-jbo-fKKKr-147">
          <mxGeometry y="65" width="581" height="28" as="geometry" />
        </mxCell>
        <mxCell id="X9fpeLWt1j-jbo-fKKKr-159" value="1" style="shape=partialRectangle;html=1;whiteSpace=wrap;connectable=0;strokeColor=inherit;overflow=hidden;fillColor=none;top=0;left=0;bottom=0;right=0;pointerEvents=1;fontSize=19;align=center;" vertex="1" parent="X9fpeLWt1j-jbo-fKKKr-158">
          <mxGeometry width="144" height="28" as="geometry">
            <mxRectangle width="144" height="28" as="alternateBounds" />
          </mxGeometry>
        </mxCell>
        <mxCell id="X9fpeLWt1j-jbo-fKKKr-160" value="4" style="shape=partialRectangle;html=1;whiteSpace=wrap;connectable=0;strokeColor=inherit;overflow=hidden;fillColor=none;top=0;left=0;bottom=0;right=0;pointerEvents=1;fontSize=19;align=center;" vertex="1" parent="X9fpeLWt1j-jbo-fKKKr-158">
          <mxGeometry x="144" width="147" height="28" as="geometry">
            <mxRectangle width="147" height="28" as="alternateBounds" />
          </mxGeometry>
        </mxCell>
        <mxCell id="X9fpeLWt1j-jbo-fKKKr-161" value="11" style="shape=partialRectangle;html=1;whiteSpace=wrap;connectable=0;strokeColor=inherit;overflow=hidden;fillColor=none;top=0;left=0;bottom=0;right=0;pointerEvents=1;fontSize=19;align=center;" vertex="1" parent="X9fpeLWt1j-jbo-fKKKr-158">
          <mxGeometry x="291" width="146" height="28" as="geometry">
            <mxRectangle width="146" height="28" as="alternateBounds" />
          </mxGeometry>
        </mxCell>
        <mxCell id="X9fpeLWt1j-jbo-fKKKr-162" value="00024" style="shape=partialRectangle;html=1;whiteSpace=wrap;connectable=0;strokeColor=inherit;overflow=hidden;fillColor=none;top=0;left=0;bottom=0;right=0;pointerEvents=1;fontSize=19;align=center;" vertex="1" parent="X9fpeLWt1j-jbo-fKKKr-158">
          <mxGeometry x="437" width="144" height="28" as="geometry">
            <mxRectangle width="144" height="28" as="alternateBounds" />
          </mxGeometry>
        </mxCell>
        <mxCell id="X9fpeLWt1j-jbo-fKKKr-163" style="shape=tableRow;horizontal=0;startSize=0;swimlaneHead=0;swimlaneBody=0;strokeColor=inherit;top=0;left=0;bottom=0;right=0;collapsible=0;dropTarget=0;fillColor=none;points=[[0,0.5],[1,0.5]];portConstraint=eastwest;fontSize=16;" vertex="1" parent="X9fpeLWt1j-jbo-fKKKr-147">
          <mxGeometry y="93" width="581" height="28" as="geometry" />
        </mxCell>
        <mxCell id="X9fpeLWt1j-jbo-fKKKr-164" value="2" style="shape=partialRectangle;html=1;whiteSpace=wrap;connectable=0;strokeColor=inherit;overflow=hidden;fillColor=none;top=0;left=0;bottom=0;right=0;pointerEvents=1;fontSize=19;align=center;" vertex="1" parent="X9fpeLWt1j-jbo-fKKKr-163">
          <mxGeometry width="144" height="28" as="geometry">
            <mxRectangle width="144" height="28" as="alternateBounds" />
          </mxGeometry>
        </mxCell>
        <mxCell id="X9fpeLWt1j-jbo-fKKKr-165" value="1" style="shape=partialRectangle;html=1;whiteSpace=wrap;connectable=0;strokeColor=inherit;overflow=hidden;fillColor=none;top=0;left=0;bottom=0;right=0;pointerEvents=1;fontSize=19;align=center;" vertex="1" parent="X9fpeLWt1j-jbo-fKKKr-163">
          <mxGeometry x="144" width="147" height="28" as="geometry">
            <mxRectangle width="147" height="28" as="alternateBounds" />
          </mxGeometry>
        </mxCell>
        <mxCell id="X9fpeLWt1j-jbo-fKKKr-166" value="1" style="shape=partialRectangle;html=1;whiteSpace=wrap;connectable=0;strokeColor=inherit;overflow=hidden;fillColor=none;top=0;left=0;bottom=0;right=0;pointerEvents=1;fontSize=19;align=center;" vertex="1" parent="X9fpeLWt1j-jbo-fKKKr-163">
          <mxGeometry x="291" width="146" height="28" as="geometry">
            <mxRectangle width="146" height="28" as="alternateBounds" />
          </mxGeometry>
        </mxCell>
        <mxCell id="X9fpeLWt1j-jbo-fKKKr-167" value="00025" style="shape=partialRectangle;html=1;whiteSpace=wrap;connectable=0;strokeColor=inherit;overflow=hidden;fillColor=none;top=0;left=0;bottom=0;right=0;pointerEvents=1;fontSize=19;align=center;" vertex="1" parent="X9fpeLWt1j-jbo-fKKKr-163">
          <mxGeometry x="437" width="144" height="28" as="geometry">
            <mxRectangle width="144" height="28" as="alternateBounds" />
          </mxGeometry>
        </mxCell>
        <mxCell id="X9fpeLWt1j-jbo-fKKKr-168" style="shape=tableRow;horizontal=0;startSize=0;swimlaneHead=0;swimlaneBody=0;strokeColor=inherit;top=0;left=0;bottom=0;right=0;collapsible=0;dropTarget=0;fillColor=none;points=[[0,0.5],[1,0.5]];portConstraint=eastwest;fontSize=16;" vertex="1" parent="X9fpeLWt1j-jbo-fKKKr-147">
          <mxGeometry y="121" width="581" height="28" as="geometry" />
        </mxCell>
        <mxCell id="X9fpeLWt1j-jbo-fKKKr-169" value="1" style="shape=partialRectangle;html=1;whiteSpace=wrap;connectable=0;strokeColor=inherit;overflow=hidden;fillColor=none;top=0;left=0;bottom=0;right=0;pointerEvents=1;fontSize=19;align=center;" vertex="1" parent="X9fpeLWt1j-jbo-fKKKr-168">
          <mxGeometry width="144" height="28" as="geometry">
            <mxRectangle width="144" height="28" as="alternateBounds" />
          </mxGeometry>
        </mxCell>
        <mxCell id="X9fpeLWt1j-jbo-fKKKr-170" value="2" style="shape=partialRectangle;html=1;whiteSpace=wrap;connectable=0;strokeColor=inherit;overflow=hidden;fillColor=none;top=0;left=0;bottom=0;right=0;pointerEvents=1;fontSize=19;align=center;" vertex="1" parent="X9fpeLWt1j-jbo-fKKKr-168">
          <mxGeometry x="144" width="147" height="28" as="geometry">
            <mxRectangle width="147" height="28" as="alternateBounds" />
          </mxGeometry>
        </mxCell>
        <mxCell id="X9fpeLWt1j-jbo-fKKKr-171" value="6" style="shape=partialRectangle;html=1;whiteSpace=wrap;connectable=0;strokeColor=inherit;overflow=hidden;fillColor=none;top=0;left=0;bottom=0;right=0;pointerEvents=1;fontSize=19;align=center;" vertex="1" parent="X9fpeLWt1j-jbo-fKKKr-168">
          <mxGeometry x="291" width="146" height="28" as="geometry">
            <mxRectangle width="146" height="28" as="alternateBounds" />
          </mxGeometry>
        </mxCell>
        <mxCell id="X9fpeLWt1j-jbo-fKKKr-172" value="00026" style="shape=partialRectangle;html=1;whiteSpace=wrap;connectable=0;strokeColor=inherit;overflow=hidden;fillColor=none;top=0;left=0;bottom=0;right=0;pointerEvents=1;fontSize=19;align=center;" vertex="1" parent="X9fpeLWt1j-jbo-fKKKr-168">
          <mxGeometry x="437" width="144" height="28" as="geometry">
            <mxRectangle width="144" height="28" as="alternateBounds" />
          </mxGeometry>
        </mxCell>
        <mxCell id="X9fpeLWt1j-jbo-fKKKr-173" style="shape=tableRow;horizontal=0;startSize=0;swimlaneHead=0;swimlaneBody=0;strokeColor=inherit;top=0;left=0;bottom=0;right=0;collapsible=0;dropTarget=0;fillColor=none;points=[[0,0.5],[1,0.5]];portConstraint=eastwest;fontSize=16;" vertex="1" parent="X9fpeLWt1j-jbo-fKKKr-147">
          <mxGeometry y="149" width="581" height="31" as="geometry" />
        </mxCell>
        <mxCell id="X9fpeLWt1j-jbo-fKKKr-174" value="2" style="shape=partialRectangle;html=1;whiteSpace=wrap;connectable=0;strokeColor=inherit;overflow=hidden;fillColor=none;top=0;left=0;bottom=0;right=0;pointerEvents=1;fontSize=19;align=center;" vertex="1" parent="X9fpeLWt1j-jbo-fKKKr-173">
          <mxGeometry width="144" height="31" as="geometry">
            <mxRectangle width="144" height="31" as="alternateBounds" />
          </mxGeometry>
        </mxCell>
        <mxCell id="X9fpeLWt1j-jbo-fKKKr-175" value="2" style="shape=partialRectangle;html=1;whiteSpace=wrap;connectable=0;strokeColor=inherit;overflow=hidden;fillColor=none;top=0;left=0;bottom=0;right=0;pointerEvents=1;fontSize=19;align=center;" vertex="1" parent="X9fpeLWt1j-jbo-fKKKr-173">
          <mxGeometry x="144" width="147" height="31" as="geometry">
            <mxRectangle width="147" height="31" as="alternateBounds" />
          </mxGeometry>
        </mxCell>
        <mxCell id="X9fpeLWt1j-jbo-fKKKr-176" value="12" style="shape=partialRectangle;html=1;whiteSpace=wrap;connectable=0;strokeColor=inherit;overflow=hidden;fillColor=none;top=0;left=0;bottom=0;right=0;pointerEvents=1;fontSize=19;align=center;" vertex="1" parent="X9fpeLWt1j-jbo-fKKKr-173">
          <mxGeometry x="291" width="146" height="31" as="geometry">
            <mxRectangle width="146" height="31" as="alternateBounds" />
          </mxGeometry>
        </mxCell>
        <mxCell id="X9fpeLWt1j-jbo-fKKKr-177" value="00027" style="shape=partialRectangle;html=1;whiteSpace=wrap;connectable=0;strokeColor=inherit;overflow=hidden;fillColor=none;top=0;left=0;bottom=0;right=0;pointerEvents=1;fontSize=19;align=center;" vertex="1" parent="X9fpeLWt1j-jbo-fKKKr-173">
          <mxGeometry x="437" width="144" height="31" as="geometry">
            <mxRectangle width="144" height="31" as="alternateBounds" />
          </mxGeometry>
        </mxCell>
        <mxCell id="X9fpeLWt1j-jbo-fKKKr-178" style="shape=tableRow;horizontal=0;startSize=0;swimlaneHead=0;swimlaneBody=0;strokeColor=inherit;top=0;left=0;bottom=0;right=0;collapsible=0;dropTarget=0;fillColor=none;points=[[0,0.5],[1,0.5]];portConstraint=eastwest;fontSize=16;" vertex="1" parent="X9fpeLWt1j-jbo-fKKKr-147">
          <mxGeometry y="180" width="581" height="25" as="geometry" />
        </mxCell>
        <mxCell id="X9fpeLWt1j-jbo-fKKKr-179" value="2" style="shape=partialRectangle;html=1;whiteSpace=wrap;connectable=0;strokeColor=inherit;overflow=hidden;fillColor=none;top=0;left=0;bottom=0;right=0;pointerEvents=1;fontSize=19;align=center;" vertex="1" parent="X9fpeLWt1j-jbo-fKKKr-178">
          <mxGeometry width="144" height="25" as="geometry">
            <mxRectangle width="144" height="25" as="alternateBounds" />
          </mxGeometry>
        </mxCell>
        <mxCell id="X9fpeLWt1j-jbo-fKKKr-180" value="8" style="shape=partialRectangle;html=1;whiteSpace=wrap;connectable=0;strokeColor=inherit;overflow=hidden;fillColor=none;top=0;left=0;bottom=0;right=0;pointerEvents=1;fontSize=19;align=center;" vertex="1" parent="X9fpeLWt1j-jbo-fKKKr-178">
          <mxGeometry x="144" width="147" height="25" as="geometry">
            <mxRectangle width="147" height="25" as="alternateBounds" />
          </mxGeometry>
        </mxCell>
        <mxCell id="X9fpeLWt1j-jbo-fKKKr-181" value="3" style="shape=partialRectangle;html=1;whiteSpace=wrap;connectable=0;strokeColor=inherit;overflow=hidden;fillColor=none;top=0;left=0;bottom=0;right=0;pointerEvents=1;fontSize=19;align=center;" vertex="1" parent="X9fpeLWt1j-jbo-fKKKr-178">
          <mxGeometry x="291" width="146" height="25" as="geometry">
            <mxRectangle width="146" height="25" as="alternateBounds" />
          </mxGeometry>
        </mxCell>
        <mxCell id="X9fpeLWt1j-jbo-fKKKr-182" value="00028" style="shape=partialRectangle;html=1;whiteSpace=wrap;connectable=0;strokeColor=inherit;overflow=hidden;fillColor=none;top=0;left=0;bottom=0;right=0;pointerEvents=1;fontSize=19;align=center;" vertex="1" parent="X9fpeLWt1j-jbo-fKKKr-178">
          <mxGeometry x="437" width="144" height="25" as="geometry">
            <mxRectangle width="144" height="25" as="alternateBounds" />
          </mxGeometry>
        </mxCell>
        <mxCell id="X9fpeLWt1j-jbo-fKKKr-183" style="shape=tableRow;horizontal=0;startSize=0;swimlaneHead=0;swimlaneBody=0;strokeColor=inherit;top=0;left=0;bottom=0;right=0;collapsible=0;dropTarget=0;fillColor=none;points=[[0,0.5],[1,0.5]];portConstraint=eastwest;fontSize=16;" vertex="1" parent="X9fpeLWt1j-jbo-fKKKr-147">
          <mxGeometry y="205" width="581" height="30" as="geometry" />
        </mxCell>
        <mxCell id="X9fpeLWt1j-jbo-fKKKr-184" value="1" style="shape=partialRectangle;html=1;whiteSpace=wrap;connectable=0;strokeColor=inherit;overflow=hidden;fillColor=none;top=0;left=0;bottom=0;right=0;pointerEvents=1;fontSize=19;align=center;" vertex="1" parent="X9fpeLWt1j-jbo-fKKKr-183">
          <mxGeometry width="144" height="30" as="geometry">
            <mxRectangle width="144" height="30" as="alternateBounds" />
          </mxGeometry>
        </mxCell>
        <mxCell id="X9fpeLWt1j-jbo-fKKKr-185" value="5" style="shape=partialRectangle;html=1;whiteSpace=wrap;connectable=0;strokeColor=inherit;overflow=hidden;fillColor=none;top=0;left=0;bottom=0;right=0;pointerEvents=1;fontSize=19;align=center;" vertex="1" parent="X9fpeLWt1j-jbo-fKKKr-183">
          <mxGeometry x="144" width="147" height="30" as="geometry">
            <mxRectangle width="147" height="30" as="alternateBounds" />
          </mxGeometry>
        </mxCell>
        <mxCell id="X9fpeLWt1j-jbo-fKKKr-186" value="10" style="shape=partialRectangle;html=1;whiteSpace=wrap;connectable=0;strokeColor=inherit;overflow=hidden;fillColor=none;top=0;left=0;bottom=0;right=0;pointerEvents=1;fontSize=19;align=center;" vertex="1" parent="X9fpeLWt1j-jbo-fKKKr-183">
          <mxGeometry x="291" width="146" height="30" as="geometry">
            <mxRectangle width="146" height="30" as="alternateBounds" />
          </mxGeometry>
        </mxCell>
        <mxCell id="X9fpeLWt1j-jbo-fKKKr-187" value="00029" style="shape=partialRectangle;html=1;whiteSpace=wrap;connectable=0;strokeColor=inherit;overflow=hidden;fillColor=none;top=0;left=0;bottom=0;right=0;pointerEvents=1;fontSize=19;align=center;" vertex="1" parent="X9fpeLWt1j-jbo-fKKKr-183">
          <mxGeometry x="437" width="144" height="30" as="geometry">
            <mxRectangle width="144" height="30" as="alternateBounds" />
          </mxGeometry>
        </mxCell>
        <mxCell id="X9fpeLWt1j-jbo-fKKKr-188" style="shape=tableRow;horizontal=0;startSize=0;swimlaneHead=0;swimlaneBody=0;strokeColor=inherit;top=0;left=0;bottom=0;right=0;collapsible=0;dropTarget=0;fillColor=none;points=[[0,0.5],[1,0.5]];portConstraint=eastwest;fontSize=16;" vertex="1" parent="X9fpeLWt1j-jbo-fKKKr-147">
          <mxGeometry y="235" width="581" height="29" as="geometry" />
        </mxCell>
        <mxCell id="X9fpeLWt1j-jbo-fKKKr-189" value="1" style="shape=partialRectangle;html=1;whiteSpace=wrap;connectable=0;strokeColor=inherit;overflow=hidden;fillColor=none;top=0;left=0;bottom=0;right=0;pointerEvents=1;fontSize=19;" vertex="1" parent="X9fpeLWt1j-jbo-fKKKr-188">
          <mxGeometry width="144" height="29" as="geometry">
            <mxRectangle width="144" height="29" as="alternateBounds" />
          </mxGeometry>
        </mxCell>
        <mxCell id="X9fpeLWt1j-jbo-fKKKr-190" value="12" style="shape=partialRectangle;html=1;whiteSpace=wrap;connectable=0;strokeColor=inherit;overflow=hidden;fillColor=none;top=0;left=0;bottom=0;right=0;pointerEvents=1;fontSize=19;" vertex="1" parent="X9fpeLWt1j-jbo-fKKKr-188">
          <mxGeometry x="144" width="147" height="29" as="geometry">
            <mxRectangle width="147" height="29" as="alternateBounds" />
          </mxGeometry>
        </mxCell>
        <mxCell id="X9fpeLWt1j-jbo-fKKKr-191" value="6" style="shape=partialRectangle;html=1;whiteSpace=wrap;connectable=0;strokeColor=inherit;overflow=hidden;fillColor=none;top=0;left=0;bottom=0;right=0;pointerEvents=1;fontSize=19;" vertex="1" parent="X9fpeLWt1j-jbo-fKKKr-188">
          <mxGeometry x="291" width="146" height="29" as="geometry">
            <mxRectangle width="146" height="29" as="alternateBounds" />
          </mxGeometry>
        </mxCell>
        <mxCell id="X9fpeLWt1j-jbo-fKKKr-192" value="00030" style="shape=partialRectangle;html=1;whiteSpace=wrap;connectable=0;strokeColor=inherit;overflow=hidden;fillColor=none;top=0;left=0;bottom=0;right=0;pointerEvents=1;fontSize=19;" vertex="1" parent="X9fpeLWt1j-jbo-fKKKr-188">
          <mxGeometry x="437" width="144" height="29" as="geometry">
            <mxRectangle width="144" height="29" as="alternateBounds" />
          </mxGeometry>
        </mxCell>
        <mxCell id="X9fpeLWt1j-jbo-fKKKr-193" style="shape=tableRow;horizontal=0;startSize=0;swimlaneHead=0;swimlaneBody=0;strokeColor=inherit;top=0;left=0;bottom=0;right=0;collapsible=0;dropTarget=0;fillColor=none;points=[[0,0.5],[1,0.5]];portConstraint=eastwest;fontSize=16;" vertex="1" parent="X9fpeLWt1j-jbo-fKKKr-147">
          <mxGeometry y="264" width="581" height="28" as="geometry" />
        </mxCell>
        <mxCell id="X9fpeLWt1j-jbo-fKKKr-194" value="1" style="shape=partialRectangle;html=1;whiteSpace=wrap;connectable=0;strokeColor=inherit;overflow=hidden;fillColor=none;top=0;left=0;bottom=0;right=0;pointerEvents=1;fontSize=19;" vertex="1" parent="X9fpeLWt1j-jbo-fKKKr-193">
          <mxGeometry width="144" height="28" as="geometry">
            <mxRectangle width="144" height="28" as="alternateBounds" />
          </mxGeometry>
        </mxCell>
        <mxCell id="X9fpeLWt1j-jbo-fKKKr-195" value="3" style="shape=partialRectangle;html=1;whiteSpace=wrap;connectable=0;strokeColor=inherit;overflow=hidden;fillColor=none;top=0;left=0;bottom=0;right=0;pointerEvents=1;fontSize=19;" vertex="1" parent="X9fpeLWt1j-jbo-fKKKr-193">
          <mxGeometry x="144" width="147" height="28" as="geometry">
            <mxRectangle width="147" height="28" as="alternateBounds" />
          </mxGeometry>
        </mxCell>
        <mxCell id="X9fpeLWt1j-jbo-fKKKr-196" value="5" style="shape=partialRectangle;html=1;whiteSpace=wrap;connectable=0;strokeColor=inherit;overflow=hidden;fillColor=none;top=0;left=0;bottom=0;right=0;pointerEvents=1;fontSize=19;" vertex="1" parent="X9fpeLWt1j-jbo-fKKKr-193">
          <mxGeometry x="291" width="146" height="28" as="geometry">
            <mxRectangle width="146" height="28" as="alternateBounds" />
          </mxGeometry>
        </mxCell>
        <mxCell id="X9fpeLWt1j-jbo-fKKKr-197" value="00031" style="shape=partialRectangle;html=1;whiteSpace=wrap;connectable=0;strokeColor=inherit;overflow=hidden;fillColor=none;top=0;left=0;bottom=0;right=0;pointerEvents=1;fontSize=19;" vertex="1" parent="X9fpeLWt1j-jbo-fKKKr-193">
          <mxGeometry x="437" width="144" height="28" as="geometry">
            <mxRectangle width="144" height="28" as="alternateBounds" />
          </mxGeometry>
        </mxCell>
        <mxCell id="X9fpeLWt1j-jbo-fKKKr-198" style="shape=tableRow;horizontal=0;startSize=0;swimlaneHead=0;swimlaneBody=0;strokeColor=inherit;top=0;left=0;bottom=0;right=0;collapsible=0;dropTarget=0;fillColor=none;points=[[0,0.5],[1,0.5]];portConstraint=eastwest;fontSize=16;" vertex="1" parent="X9fpeLWt1j-jbo-fKKKr-147">
          <mxGeometry y="292" width="581" height="29" as="geometry" />
        </mxCell>
        <mxCell id="X9fpeLWt1j-jbo-fKKKr-199" value="2" style="shape=partialRectangle;html=1;whiteSpace=wrap;connectable=0;strokeColor=inherit;overflow=hidden;fillColor=none;top=0;left=0;bottom=0;right=0;pointerEvents=1;fontSize=19;" vertex="1" parent="X9fpeLWt1j-jbo-fKKKr-198">
          <mxGeometry width="144" height="29" as="geometry">
            <mxRectangle width="144" height="29" as="alternateBounds" />
          </mxGeometry>
        </mxCell>
        <mxCell id="X9fpeLWt1j-jbo-fKKKr-200" value="6" style="shape=partialRectangle;html=1;whiteSpace=wrap;connectable=0;strokeColor=inherit;overflow=hidden;fillColor=none;top=0;left=0;bottom=0;right=0;pointerEvents=1;fontSize=19;" vertex="1" parent="X9fpeLWt1j-jbo-fKKKr-198">
          <mxGeometry x="144" width="147" height="29" as="geometry">
            <mxRectangle width="147" height="29" as="alternateBounds" />
          </mxGeometry>
        </mxCell>
        <mxCell id="X9fpeLWt1j-jbo-fKKKr-201" value="8" style="shape=partialRectangle;html=1;whiteSpace=wrap;connectable=0;strokeColor=inherit;overflow=hidden;fillColor=none;top=0;left=0;bottom=0;right=0;pointerEvents=1;fontSize=19;" vertex="1" parent="X9fpeLWt1j-jbo-fKKKr-198">
          <mxGeometry x="291" width="146" height="29" as="geometry">
            <mxRectangle width="146" height="29" as="alternateBounds" />
          </mxGeometry>
        </mxCell>
        <mxCell id="X9fpeLWt1j-jbo-fKKKr-202" value="00032" style="shape=partialRectangle;html=1;whiteSpace=wrap;connectable=0;strokeColor=inherit;overflow=hidden;fillColor=none;top=0;left=0;bottom=0;right=0;pointerEvents=1;fontSize=19;" vertex="1" parent="X9fpeLWt1j-jbo-fKKKr-198">
          <mxGeometry x="437" width="144" height="29" as="geometry">
            <mxRectangle width="144" height="29" as="alternateBounds" />
          </mxGeometry>
        </mxCell>
        <mxCell id="X9fpeLWt1j-jbo-fKKKr-203" value="" style="shape=image;verticalLabelPosition=bottom;labelBackgroundColor=default;verticalAlign=top;imageAspect=0;image=data:image/png,iVBORw0KGgoAAAANSUhEUgAAAJYAAAHCCAYAAAANaTC3AAAAAXNSR0IArs4c6QAAAARnQU1BAACxjwv8YQUAAAAJcEhZcwAAD2EAAA9hAag/p2kAAEhSSURBVHhe7d0HuG1XUQfw2DtFBSFKF5AuEEAQpCMQkK7ShVBCLwEkhCoI0iGhKEi1gDQBCVIEhSCIvSsWFHtBURADqOj8wlt4ODnn3VPWOmevdWe+b7578/LeKXvPnvKf/8w6JiUlJSUlJSUlJSUlJSUlJSUlJSUlJSUlJSUlJSUlJSUlJSVlFPny0K8K/brQr/AHKSnbyvlDjw/9gdDHhD449Lah3xz6paEpKWvL14beJfTZoa8MfV3oG0JPD31G6LVD/Z2UlLXkEqGPDH1j6JtD3xLKsH469B2hLwm9WehXh6akrCyXD31B6OtD3xb6M6GPDv2J0J8MfVPoC0OvEvpFoSkpK8kVQ3koBvXk0O8MlcB/R+hLQ98ayrgYm1wsJWUluW7o00J/PPT5oUJjkW8P/dHQYnj3Cr1waErKQvni0C/73K/H3ChUHvXuUMZ12dAiQt9NQl8dKgdjZCeEni80JeVsArP6ks/9eswtQ0uO9bzQbwudFXDD7ULlWb8Z+muh1w/9ytCUlC8QHosSofBVob8Y+mOhFwmdF8Z159APhPp77wkVFhOGSDmbFMO6QehrQ38hlFf61tBFAm64Q+hPhf5uKIzrjqElpKaknCUFOpCgMyieCI6lKlwmjOgeobAu/0bovFZoovMpZ5MLhj43VHhjWDcPLd5skfh/Nw49LVQ1KSTCuORtKSmfF0n4U0IZFrzqB0PPGXqQfGOo/OwJoYzs9qFfH5qS8nn53tDfCWVYLw69VOiqIkeDc70/9NTQK4em90o5Sy4e+orQt4fCrG4RerRwOCsXC5XI/3zor4f+Uqh2EHzsAqGoOKu+Vspggn/10NCfC9V81pQ+R+hBogDg3e4fCplXAIAkfiXUawmR3xcqb1MUnDdU6E1DO0QiXwKSnhH6xFDV3qqih/iA0JeF8ly8ltCIHfH0UIYFiIWFgSh4s2uEMspzhSZkMbB8Q+jjQ+FZPA8Ptg4AyusxTo1sOdevhjJUr3PPUOFVHxKyf9NQxoZUCL5gaAwZhsZTpkcbSIQ1XuVFoYwLlOBmr3uTeS9AqlAomWcscq3vDmVccjK4F0M8T6gQie91YugpoQ8K9feuGqrhzbhL+ymlUzl36ONCoesYpE8KBSusK4wRHYdnYjyMlh4bymvNc+qFQu/j7/9wKKNG0/H+PJ4cTrUJc0vCYafCg7w8VP8Qws77bDpcwZjmoQfeZxlSzyBxwXg4OZgw+axQVScj49H82WVCLxeaRtaJ8BxyLSDpU0N/NlS1912h+whHPo9Kkvf7ntBHhP5Q6P1CMTLuE4p54e9kuJyg8CrCjJsHSQeSQuJ5LKHI9M7XhO5TGI5QjdnqM50cit3KwB4b+v2h3xKaBjYBEeKU/LcJVc2Z0BECJd54V+AD5D43jeFNpVoTAn1uHgy88d5QnhXtB5yBiJiV5R7Ejbl06K1DJerPCYW6gwjcpD8OhUO9L1QSDzCdIrlPwv+QUNx8HhYGB+LgdY2tCespOxBhwtOs9Fd5vSbUEy/kYYf+UejfHdHfCEVXZnR6ifsOhcuE1wWLwOA8BL915KcWleb6JUMVESmNhGFIgpXuenmGUz3h7wz989B/Dv2b0H8K/ctQDWl/V8jpIayoJk1za0l5ICig1yAuTCwb45WFUcCPYETaKwxJuGM4DItR/UXof4QyKE885FyPbxX6zNTEWoCHh+KW8braS/hm8kQN8ZQKIvTBhHClfiS0oOqe5F8+8vNDoZ8M/dvQPwjFDD0utGcRHu2eUIjoV8q/5F63Ck3sa0vxdF4hFOZjXpAXKmP0LjbPZfKZcf1L6O+FQt1hQiOIvOpqob43toUqVwpw39BvCk3ZQOA9QE1ApydV2GM4DIrH4q2EiD8M9ef+P6BxxDwEp1+byAP1wVAeWc6VjIo1xFOqxMbqVIa7iCZwqLzKhWVYvBVCn9AoQV808tWTHFT1XSgUZMJzowRhU6zCN0sJkU9J0u8UCjkHGMotgJ1CoN/lUJ5c4YE309jdtA84JUHFAaEAcZd9H+Hv3qG6CKrjTORXEG4dvVg4g09hcQp3fvJOfjc+D5OS0Grkan+Mgu/w0jhfDAf95jqhBjvmvx9jkkOCJlIOEEYlSUUzwUrgrfTQGBM44U9CNW7hU7Ad7IURn1bXAdTg++ko6Cf6XVWcsqagnwgDGrLQcwYlnzJxw6D8mcpPJaTnJ/SN4qWWie/HI0nQYXEa1GCGXAewosip8JJsf+GpwAa/HcqotGQk6e8K1f3XZD6MOYUEXVNaMx1oKl0YIadsJtB0PTCVjsrPGiJNY9AB5Bx8IEHXL9NHO8ztDA+UVk8hCwqT2ZxeIIwKvddC2meGFsBT4xUIyEsxKkg7DCfpI5+7BroJUgYFDCCY98prc0RcCMMIMCpeikEZEkVvkUtpz0jaLesQJkfPp9YVnorHwj0TGpEG8xqFGExQUnvygH0wKpUeWEHiDkp4VOjsuseULxTVI8xLY1q7i1c/1NtyNE89bThGPJWcCkkP65PHQtQDeuaO0INFzgl9h+0hCZpxPJTNaZUMBifIwIADKOGvQpHz/BQGJfHpqVYX1/SuoVpb8tOTQg/V+kt5laFPX9zTxVsBPvX+5FTaNMht87tDpybCzdTyGfmqIsf1pEJkjxy0jQSV2JOl0oNVlZ6f3ApDAU51pdCpCmPSXimzgFMSn821lZti1IoAWkLDY12+oP6fKkYjmWHJqdBdAKAazVMn5Rl4wEfXVtLHnBp3Xr6lHSYCfCzUDAC27bAJPaPS6zIJ7InyNAE/eSvouj+/eujUsRh4kSRZBashrs0yNY8Aoef5RQD5qwcY1WY4KXmVp1zlV2AF1R9+uj9jVD0MZ+rRCS9COa/A41oCMrUHAifNA/xnofLYu4UiTA4lOvLCh0pPI9kX5a1gVZaZSTJ7atOgSBvZ94AYcMBqhR9NTfC0NPF5LJ8RYbKHh3cl8YTbSixJV/XxTryVJ15I8WV7bCiXRbhuGkDXbqypHfrEi1qhVOYtgdAGe4cQTeOHhQobmsp+Yi0ARnmqnoE8HsFgg+KDZzBJMzXsqEAQPieMy4ab7k89EwKxO4VAhD2V3++Hiv2azr1jLFpSynqjZoZjhfupgbq81vVCFRrUfTCT2G2VqIdlFxUQtIyKF3gB5HBsaO/i0E3DDEL8maG+o9J+alUiSAQgraGvSsQi6XbgRFluQSwU3cmmXLEnRv+Pe546rHCQKDZUWuW7CfPaUQxtk62Bs9IC0Xe8ns8J22JcWLhT3V+xVFz0a4ZKGiW2qkBfyloesELvSLCHwrEoKloe+K9D/y2UR5A7bpsgM6zaLSOvhZ0L2/rTUMUUmk1Xws0qx3krs388lZAor7KuusUTuStxw30/84sowvhjsKKPhiImWoArRG7zHf1bmFNtry5SGHZFnnRP0Gy6mfBxMVBnYVSoL/IqT4knuZdNL8tExWeXKAp1YWb4broHknc3TCgEBm/78DBOo12bvM6yfyNSWEfp3nggDPjyWl3cEw1aLlcFqFUjBLrgSvHuYvqMyJvgcUp3bFdAL+jEDi5ww0dCMQrkLjWmklXUqrnawLFcS09WnuWhMPDaBSKv6+9pFhLw17VtAHOewB5RX6GPUd0wVEuKF2ZAwjzoxCGaknaVoaa0zXs1Snlex74K09CbeK1l1xq7hKdyX4RwQxkKrcmLYVMgnCYzwh6P5b/LfvReRHiAs2FbqP48KFiuFrp9IlT3wC4uBiUZ9t8a0nLIWnL3UJ5+ExAZ3LNIfD5eV0HF43pAfO5Jt9QYjgshVHgi9NE84UDSngYsfY+y4cYEskkYXkouZffWx0N5KUbmp1CPCiQ5rikeUgaN97VJHrTIWORZknZh0HcSxjFLJr3uyQ0BimpvqAYZlR4VNkBPhqV3KaRJxCXovgtvxTMxKtCCKhAzw1Mv1GtM1w718lXvz3Ntkp/6PIsM0iS1dKXkibyWFGay4ktoehrXEiY8yXIQrnfKQ5VugFB90VDeQWjwHWBwjEm4k0/9a+h/hjKqT4VK2C0/g7a3CCWMyUg9EHZTCGNRvqfHia+lOhQS/TSAMelURTmOteBptg6bmmB2w6bwwRkR2AB+w9hBA8BOs41G+1F7/a6fyUsxKknuh0MZlt2mNgZa8Y0F65CCVo10YUtfDyPE9plNWCCu+bzXsmyEYancgbruEQhl0sMXqg4hRN+MCodcrkO8lyWUq8gmOYanVQjWzceXQnVRXqO4oO0IYZqy8hjNZGGnzDQqPORUcii7I/y0LFdOIn8Ejlov1PJmMAqGzgBsS960vzd/7RQlqkE93FLl6iVOelTfhQaQyrPcJFgW1F0CvE3j+SBvxxMxIuGMEUm85Xs4U8IVUh7aiFaGnIJX5aH87qktW5ZVs1TuQT0cwMRyjK82lSpXYr2L1hQA07XTDrMMZZ0HjIcr1fjsv/OAm5z2gOhxwrU0pic9w+lLKGklnG4MRFpIscBCn7CWuFDyGtWbhSLAS+/pgunfCWW8jqeRx5TvwdX8rlpVVPACvBR+mGqPcbnQQE/GxSsVg7T6W7jwPbRFhCb4T+2EfV6kEL6PXEiFuk449CALpXC4+QdT9S5vFOoZGLhEf3fS4ktYZagE5wVUVW40JHmTkFbEv5UbCQk8kjWS2BK8jzyO8kBCGe8ihEh8vTdDEc7kE7wPfI3BUMYnjyorvP0bSbNcS0UrB3NzIOq+g7DhKWdg/rul51JtMnyfkedfx6u4VpJyn9E9mTUuBQeDcj2Ed4bLCLe5PzsRHxCu46b74KpDLl1F4klaFUj0OnICrQgnprqpXgdWhsfNKzEgPyXTnm6hj8G4WHqVtPwdeYXEFSmPUQovUHV5FsV2tUdeFSZfXOSRGLb8jAFjOJjqbuW5tHbKg+E7aeSv6rVcO/u0tNjmm9pCLAKmNIA396DIP3cR3rcWF9tFd7PlKryBL6D14UschG2ptrhnp2IxFnuyGItwJkQJZ4zFfzMyCbgciMeRP3kvN4NxWzyCHybvEl4k9N5fvuGCC6s8khLfxfXnPv98CCH+vqdbGBXuQRO82qK/u63wlEIw78IQXLd1knhpgsJJte7zFeNSGVp/5Hry3vJhLauanYOm4obxCkpmT4Z8yxdxkZad0eyG8lIWXciDGJR/Kw9wIfzOA6lo/D8GJfmElwm/LhDP45R5lRvPqeemqBBaahgAI3TDeUCey3u7ibWFp1HB8VoeEPAGT7qqeEA8TCp1D2q53ryez+9aMioPvZySIXcjjEucZyS+iEpRziCZdqN9Sd6DMSl5PZGMgJHwTCVf8m/dRH/mJ0/B+wlrLpKn2b9DtPM6PE8JUVoWDLxm64IhCYU+n89j5VLtUyIYlocQ1wtEAjVf16somlyr0mx2TdwTE9NAXgWW12bA3Q228hLyJB9evoV1KSlVoem2y5uc+K7y4XGEMt6AMblxjFA4hDupzBDtuHh5F+OUtzHQYkiLxMWsLTcJ5Y2FZQYvP6uZpzBU18I1cx3kWEf7jovEghV5pYevnNoKFlJBy7HK9JQ2T7dro3glwxS+EOBR303lqCrzZwyIQblRjMp/S9RVYG6apBNhUI4kHwKCtshtVhVGpAgQlqnKVL5VS4Txksu5Jkbm1v2+cD0PJCzMw2vbtGvnoVRFl0qZ9+167lCcd/HlS3qK/xj6D6EqH3/GLcubbKlz0zSEPbnFI+3TkBYJQy8rmTwMYAoPUA2RIypQXCfXZZNQJXR6WBU51npjN8jT/M7g5LyoynK47gdaGZfKBFVW8uhAAF/QEy8Xgx8JcZLkRQn+lMTnw9niWRgBD6t9tG7ImhcPkIY4g1BVA2kPqqQXic9RoAUPKRqTvIuR8mBgFkWQbomKeQiR93hKIOcPPvKTd9qmr7gPgTfxsDAzuZa2jz/bVBiVsFdaL4wCWr5J/ua1dAq8hkqZus4iQOGc4WSpCj3Mw8nUQtw64rMDIxkVSEVodPM2pSlLrnkoMIPiQP4jfG16jXhQOaAEXmVZcjVVMnReeHRW9qQJf4dVVFQqK9WbkCg/3BRwBA1ICwC+wuy225AVAUIdg5e0WywshFMGy1NpWG8bvlMaiDBlzK1QUVRhIJZNpIRA0ApIY1vOl74hSEeVDe+T286yUtOgJiyefpCISst4lZaSvGhdzpYck9dTJfv32jHb3nj5FARe6wv+J+dSPKVMSOQmy3IdRgBvwuhgHLzEukm8niZvBWOSXNdY6sa4Je3CIY6afHDqm6kPpfAgi2AQ7SgJN8xJONRVWAcw1dP0b1GhrSkACEPLtxWGJUFHCIBX8VpT3k59aIXHYljznksCDBficbBV4UNC0CqJN2PlSRgkQNTNV1nW2K+giDClrcLU3sFsmPRkzmGWRYalXC9JMuAX6Is0uEqeJWTqOGix8Fo8HShgkWdcV7TAFBOAUgUGtkPN1lNKZZk3LN7FTZPL8FhYGWCHg1o8vBUP5d8wSoi4KexaLRYzirhpmv5+8looOCmdiJCnlGdQ2jBCIg92EJ1GHiVZl/TzLAyKB6vVgRCiheWy1pJXlMyndCIMS2sKQGpYgaEAOY/G+iz/xs3WEgKIyolq0nyEaN7QbGRZEQBySOlEhEYhTWXISFR32jxHY5cyLOHJxIxGdovpH4O5hmwZlIa/vRM8a0onwrAwVdFQqL4hIzOcsUzQV5DteBSDDzWJgkXQwFGTylITPDjN55SORFKM6oJNACSFGxlwXSSSerRmjFoJdY1tgIvkgaHIlHZPlOFcXYKUjsTZOrwUo5I3ScadwLEINhCOtG54K9yrdds/q4gCgNEKf/ZO/Huo/M8cQkpHomnMS2GUakjrGaKpzBuWBjUDxKAVMo26tfBWWBeqVAaFDi7HYsw1WkUpOxRoOaDTzdQ35Lks95gVTFB8Kwg7T4LO0mophzE6oY+3AjdI4IVqEERKR2JIF5cK5MCo3ERUlVmP5e/ArezfYoBG3lt4KwK+YEwSdkaMeQG07Y2le+hF7oL3bsBW3w+SDowshqXRrBnM6IQnQCoi3ir9xHUFFmZtE8OCYSkS5HMOJU3pTNCA9eRM7Mid7JSQmPMQ1JQ2jMtWGzfbHggG0MKwIPqMHJ4GcYeVCcHb8PFT9iRyGh5JCwWWBfxEBWZUFpDwYIzKzdbuMecHdmgRCnlPfUte0dCrsKxCzTDYoRitwn03ZGoQFFOBx9IIRrKzfYf6/7AkIbLGoQPzwguacWRMZTMPpkWtmceUHYv8BW4E+LRGAOSAYixhl1epzCTQ5icNMqAN29FQW4Q7nHkcLBQeFaoB2JRORYsGc5RhoanIp9BgGFjJdYTDAlDiSq2zQWYV4QWFX94SSCvfswOiBhs1ZU+iLyh5550KdYYCQv8+FHCqUV0mbxhB7c3LMDGsCgi7sMvI9TBbIPspOxLsBB7LvgT9QmGPQfFUQqP1TC0HGRQB9u3zlDb0MHDeMiGGzsXmZixSbRNot6avVgogVAvH7tSaXKt5EVZBDGjRQqDkXc53ENkwZeKiByifEYLQVICgvBbowUCD6rCVwMIMZMDOYGiQfaszQRqtkP2UHYlZQKg7L8VjublCIpZD6415KM1wKzhZ2VYN0th01D9lIsIr4D5pnSDWaaVYjWlVY2s2ASxMs1txwEMWDK3FbtSUHYrqziQ0INJp8ZJ14VBupSIrvcIWYg+DFZsS9VIoAGCtJ2oZelN2IDwSfrswVA5OkFcZlGhBN54VzFMNb+8L9Rd+tZQwV0tu5WdL405pIKZwlPSoKbAjN9WIPE81u9WlhVihrQotmxF5KrQYBj2LWzGqTOA7EoQ5yTqmghsLjLT3XcO5NSDp9W1S1mCW0wm7wqH3n4cX0qg6Egg3aMHkC8PSj5PXqMRq7FxYJozEiJgTMuyAh5VR3or30pdM6VQYjkZyOeBJoo45ag1Rq4SZQSEFagkxIJ7SvCCjlrQzbDhW7bnElB0JNoJ9nnIpWJWkWWPZ6RRufEuB7POSwq7w51T9M0OdaosC3Yo7n9JYeCO4FKwIXiUE+V1eozJslcsg58mbClcepCAEUywK79/VWTgp/y9uLrKc8MdTYCxInI17SdZbwQqMldFgpwJAVZ9UCATCattoJWWC3qEo103TKOvlVLyGMIh6jMjXElYQehm0qk+CjtfFqOV1EHZH77VsbKc0FAQ+WJU9CxJlHkuj96TQFgzQIiCFckIF2o1ZRKGXCoPOGZLXpbfqUC4RappG2EPeKyfc47C3nHhR3TnrmpfEBDUIC9k3H6gHKYmHYyWBr0PR3GVAiHM4TjyGMSrJsq17rYQHMphhtZGcTpEg/DIwyz0MSIA2krnQochbcKgYlBsqp1GNqcwk0i3xIsm683m8N9JgYSwwLp6TtyqHW6Z0JpBtzV0eqngqochYlemaVuK1jcYDPxmyNg2qsxyPoeF2mbjJvKpD0VhW8UnUi1Eh7LU+4pYXNE3thAveyXtaGmI0Xm6nue3smzSqDkW7xlnTDKpAC5J1XPKWIKjXxQLFTFAF8lA8pEQdVuXPWyP7KY3Ezb13KDQbYa8sKpNjGYRoGQIh64oCeJU+oBAoHCIP+kxpVB2Lm4c3DtUus4AMy4n5LQ824iXxtxg0DwXWQMHxWTScc9i0Uzk21Nk1bqKG7kdDDZrKa0ANaMetGJimaxxQyUMJeaZs0GGwJxxQmUbVqdiwZymtmypZhhlhD0iYeY/7h7YEIeFV2BHgBMYl9AmJ1k5a9ZjSoWgc2//JO7ix2iRoMNonWjZaJkc7AGAbkc+hwRgo5SU/EiqnMsls30MOmXYqSnshTrhR3oMU4EYASUZl/4E5wRZVoLAqn3NokrCnsSyvUgUa48odoR2LHQpAUOwEXkqyjpYi/MmvbN9rwVpgqOb9FARgBeEXe8EcoJ+tB1tTGooqTMjBo0IpFgIZlLYNzMpij1qnb80Ko5KMO8uGdxJ+GZYKkCFnTtW5oMEIgUp8+RRIQfjTkzMPqBdYe6UioxLi9B+Bn97Te5kF1OiWb6V0LBgB8hinSCDJgRQ0drEIDJoak2+R45QeoFyKV/Tetu6hxrTkdKXsSK4d6pCi2a13whLPZWma00drY1aYEt4XMwLz1IkV+FWgjDSqAQRmxaB4JcalAuRBsAbkOTxK7QWwAFDj7lZhm+yxVZmXhFk5SzBlALlcqDD46FDeipfirSTQmAPYojWF58ObAisIs2g4DAvXCuW4xX73lB0L3AqaLa8xsawChCGpzIQmTeaaN1qyjrpcltuqOiXr8DGrG1svC0nZkWBl4jYJQZq9wp/ZQB4LJaU20m141BApbMx7wcbsBbXEP3nqgwjvYaeCkMdTQdmFJlPEbnxtnpVNyLcLFW6NbOn/wcbkdvK8lEHEmYHCkJCnH6eFYuhTj05SXfN0CPiXPe56gN5TqJW0O/gy+38DibCDEWrXAU+FFcqgzAbyJNgFtYTXg9hrXjMqlabtxXZWOSwgZSCxRhENBhtUT5CnwiRQ8j88tGa+Yx02I8IC5akKQ8Lm4pSBhJeAVcmlzONBvP3OsISqmm0UDWs4mLBXjMpEjUq05b6slB0LtBt7AYHPflArstFiDEnwXPCsWrOBXkdeZbKHIQu5hi9yx/qAgppycqgch6fyE4fdkMTLQmvuksJKgOSb6AFf4KofH1rLcFMmIqgpbrRBT8Akg1INyq+EKAS/WiLMAUF5Ko1sGJkGc5L1BhPoOZ6Vqkz1pxoUBg1I8CjA0Fprf7wXlgRvqNpkVEKvodJWwxcpexJgpwO+MQnkUkh8jEsIhHw78LuWYKEyJK8PxbcZ5oTQRNYHE4kyb2EfqNYNiEHCXnIsFVqtZBqoKodTYX4mFB3GFpgk7A0qwhPyHPKewVNVIM4VNkEtDrukXHKuXSNv+1Qow5LX5WHegwrmgCFToYnH0hs0iOpokFrCK1lyK4fD55JbGca4TGjKgGKrsQO2bb3jSVSDci1L9WtRYlCMNZi9LoT9v0MZlUowD0UaUDAKUH3lVvqAJpol0/cLrUX/lZ9dMRT4afDCuNb/hn42FG6WleCAAvnmrfQFPx3Ka2Fq1kymcbp4Jisc5W7yKj8xQ3N5/2DCS8ih7hAqYeepGJbfjXfVYmoWzMocogZ2GYv3u+ZzouyDiTF4ACjvpAqEW1Gbjmvyn4zE427hdDEouJj3dYBAngoxmEDQDZ5KpDFCEfhgSrArG2RqJezaNmjGDkKSqDMqRgzJv2VorfdJmYiYuoGm2ykFVgAvuPFm9mrlPEIc0NUQBlhBtel9MBgQ+VouZEvZg/ASVigyKkxQSbtkWiJ9+dBaFRoDxVWHjeFZyamEQqdUAF0ztxpMTCzjP/FOkHWhiTeBftcyKij6tUIR9hgsLwV4VQlafeRwpJSBhJfA1pSwmxF0w3krOZahhVpeRLWHDYESg3Yj3Go4+2/eshZLImUiYmfoqaGASjkWzEoohC/V4loVeEEVKARK1HlFHktD29h8ymCCpSAUnRZqGFQIxNzEaqiVTHudU0Kh9+YRkfhwungs08w5HziYYCg4dgRQybjcaB4LL8o+0Rph0GvYkWX7jKQdXiXUeh/Jux1XyWUfTMztWbJhIS1vovS33IOx1YIYNJO1bhQFqMxlDpFxGcxQOKQMJLyEFY+24D0zlLcSBkEO/ryGt/Iedr7zhnaEojgLswW74hkTaR9MhEEnyLu5bnppq4AYauVWaDHWHJ0eCgDVczSQoU3kd/tDk8w3mCDSwZRUfyU8yYGwOWu1VbAhtIgYkxALyVcJqgxhWbhdKQMJ0FP/D7yAc8Vbuek4WLX2IgiDjBSSz4iEwE+GmqI2haNXmEeQDCboL0h7QpThCIbFwACVtUKT6ZoTQxmW9+GxhECcdgCp+cEERQcToCieuTyn5FZoLDXbKt7Da9r0Z102hV3xVjyY9k7KYGLrsIRdA1huBbRUCdb0IGAECbvWDcWZh7YzZrldctoHE7mPIVSMAnmVGw5PQpupJaAK3CoDEjwWYwJn8FYW0upNZhgcTORX9k4h8PEgvImwWHPi2GtB1CXoBiUYr0lqIVcVaqws0fbBRO7DQ0G+AaLyHkl2TXFiRdnExzOqBsughEZ0zdH8lImIJR9Kf4blhkPAGVtNsTobms+AYVjYDLArLApzhAmKDigPD5XraKvYyOdQo5oixNlFahufHE645RUZmKT9UqEpg4ncR95TuOZ+Yh7UFIm7ChOnnVHBrTAZIO6O0TUMmzKYODpX6BMCVWkqttprghQH9wrlobwPr8iwMBsYXMqAYuwKyc5YF09iKW1tMYL/uFDJOqPyXgxLGMwWzoDCkzimBMxg+YYw2AL9VgigycirGC8AVpP7AaGZtA8oqDDvCS1j83Kh2tUgsZkPpCAM/lcoAxYGrxSaMqCY2yvTzQwLS7S2B8GaQGnGRsVi+J9QXstm5TykckBxw+FKKjM3GoZ1q9Da4n1QZbRwGBZvBXk3VlZroUjKhETlB1cSBnkRFWHNrXxFhFcAKFqMUGiMTFhEkak1+JoyIblQqDxHGFSpYTO0aKsIrdpDQi7D0husvV05ZUICBC3JtJttZrAFUCncPSaUR2TA2jg1d8GnTESEHwMNwqA1jBTLAPOghRjQkE/JreRYPKNkPmUwcaMl6QBKuRX8CpPTYZYtxNEkLw/VI0RDNuVsyVrKYGIwwhmDwh/DEp5w0FvdbK+L0SDsQvgNwqLQpAwkWAYIdcp9uZUwWDClc4a2EMs9YFhCoT6karB2LzJlz8Kw7hiq5Nd4ZlgYDU8LlXfVFu8nxGo+85AOB7dhJvGrwcTQqQpNr86JDzhYxukfFtpiz6dCgSGX3VfWefOYLd4rZY8iccfYZFiW1ZaBBuV/C745AxL6NLkl74DRPBV1QLFsw3prLAPUYGFQvuUI3hYouFxKoVAwLB7rEqEpg4mWDdRbjuVmqwpBDVgGLbyI5Wl2YGGNMmTLQFqwJ1L2KAzHIZbG5t3oMtousb5OaAuxT8sCEN7Ke8rvah46kDIBYVhOmZC0gxrgSkbp8d3tq2ohvNObQ3lIGJaw6LCAlIGEYTloSYWGe8W4KMNiAC1CIXD03aFyOoRC/PaEGgYThnPrUJtkUGUYFQPTbhEiWxiWtZN6g7yj0frjQrP5PJio+uxnAFRqBlv+gcpi/Ao63sKwnD1oZ7tCwfs40aLGusmUCYkb6mi40iOUuMOXnhoKW2oBN8jdTFhL3OVXPGPKYMJwbOzjqRhWmZRxOBLSXwuPpdpEyWFYjw/NM50HFIZz41BtHN4KfiXfOjm01QiWnRAMGdzg5PvcfzWgMCwNYAbFg8h7gJa3DW3hrYghCoaM2WBNUoKjAwrjuWmo/Qkmc+RXeoXyq1biaF8eC3bGsPQqUwYThsWD2E2lKhSe/F5za9+8mM4RbnnJu4Qmq2FAYVg3DxWa4FfUkSOmlFuJMIvVADdTOOQ4/YDCsCTvVjS60X6CAlr27pwnLZfjIe8amoY1oJQcy0kT8h43W57VElsSCr0Hkp+qMFH3AYVh3SBUXqX5rH8HFb9uaCvRQmJYmtCYpC3ozyl7lpJjaeMg+DEuodBikFYir2JYgFinXpwjNGUwYVhwLPQVC0AcOMl7GVRtlfvI6SDv3hP92YxhymCipaNKQ0VG7jOoKrFmWC1bOowK5GAVt5O/UgYTTejbh7rJOFifPaISbD28FoalCS1xl89ZC9nqfVL2KDyWoQmhyY2GZwFJzRS2uuG49E74krw7XPOqoS1YFCl7FDcU8m4aGWiJ3YB8Z2FHq5EsBusUfL1Jw6oOgkr0fTBhOFYXCU28FeNSIT43tBWDVE71rlAeUvhFTc7x+sGE4ZS9DfjnMCz5lu0vrQzLqu0yTHFG6J1CW+2ISNmTMByhqVSEbjZ18pbpnRZi/MscI+9o4RqGw3lDUwYTByUxJAxSFSGvZYoGLNDCYxn1en6oHKscb5IHBgwoGJx2VakG9QpLiLpJaItqTT6F+mzJmzwL7/3CoSmDCaKd7TIM6lWhxrJ4LQ3iFtUaRB/iLq+D9lu6Jhwn5DCYlBvNsPTwcLL08U4KbdHWYUAIfs7QEQ7fFwrLyhGwwUQeBUtSFYIBJPESa0MPLSgt3s/iNT1JuyJQoSH9iWUNJm40aEFIen1oOZHilNBWZwbyUPI4jAqoP8ghsawBxaSMI95eG1q4UjbCOLCphdiHBRz1Xoz4saGJZQ0oIACj7wZIVWq8lv0KFw9tIajPrwhlVFTR0OJolZQ9i4TaxheeA/LuzEAY031CW1RrKlFnTMvpwA7IhS3OREyZiOC/vzEUk1QCL+9qQR1WbTJi3koCL89yvEry3weVS4YyJkApNWTRYgReBcgrWkYC3pDTodAkm3RQUZlJqnkrI/BCVIuJHYbl3GnvhaqDWfHeUMMVCZQOKKAHXCzVGgReIm/NUW1hPKZ1jPaXk1zRlREMszocVF4SKu+RZwmHeOm1wUsGjD0heWdYjBjX3mruZDoMKoYr3GwehCeRzLdYPlsOG+cVvZ9JbKH3sqEpAwrYwRiYik2eZey+BTcLo+HFoXqGDIvyWpL63EAzqNipwLiEKAZmyX9tUW2CHDS8tXZ4R+EX4p9H+A4qWi6MCkcLgPmC0NrVGs+oMoTwMyjVofeUdwnHWR0OKJrPBizADm446nLtzXsKAqwG5/ioQrEqGBbsDI2nVQM8Zc+CMsyoeC0GxghqisrQjKHigDFJ3hnW6aGo0hcJTRlQcN4h4242A5No16a2CLnoOTwWkFSFKPTylvcIzXA4oBhw4EnkP4wLmOlQgZriSLsHhkLdLdXlGbV37OoyItaKtpOyR+GdoPC8ljCF7YCuXLNR7D0eHvr+UDtJQRs8l5zuRaFXDxUyUwYSHPRHhhqHLxM1oICavCnvIXfjGW1RNmABOwNBmD3UO0xm6YByzVB7HYCY8izLPCwRqdniuUroW0LhZt7L+8DOeDEVo7nHlMEEOo7Ogi/FkwiLzwi1O6uWYJN6Dx7rnaHCobArHKoYW+5DTdmTWOMouTb4IKGWyAMwbQGs5bUQCZ2YbwyMlxJ6hV1MVhM8tfO6lAkI47ll6MtC3XQ3XFhkCLXaLiAF42DwKwn8B0J5R3kdw3p1qH0PKYOJPMsIvrAkFMp/3GyblWsNmRraUBhYEiLPcoiB/qGTX08NzXA4oDh13vQOj1KGTN1wAGatNg82g60zDj1nWMIhiANwyqD1FGtzwlL2LHAkORVcyQGZkmu5lv2h6DQ10HHvAXxFMgQ9fDCU8QqNeGG81rlDUwYThzYZsqDYCMKUqu2eobXyHyg8Gg0evDyLqg6h8W8NbXm+T8qeBHdKqHpeqN1WbjbVP7T3oQY6LtTpT6InqxD1C1GjNcFVpQ41SBR+MBHuLP7nsZ4ZCnOyKca6I6ex1uKpA0N5LYvfVKFCLgIgzyVMtqBIp+xZNKUtTAOQqgrRiFWJrwx1jEkNb4L85wgW8IYEXiKvveO9NMGh9CmDiVCldyf8nRb6oVBYkxsORGUUgMxtJ6cxGnhB1aAWEs8ogQdFPCe01VEsKXsUeBKjsq5bEs+TuOkOWwKY8ihwL0a2qTDg64XyhO8IVRkKiQzMDvqa7aSUiQiDOTH0haFvCmVYAFP4k/lDRvf00G1HuPQPecG3hao+vQ/vKO9ykGZu/xtQrDsSkoRE5DzQgwoRPACDYnAnhG5Dd2E4x4XajYpKo42kES7f8r6JaQ0o8qg7hwJMMT+FKeqmF+NSPW7rtYza3y307aEGWfUpFQuSehVqeq0B5fyhKkTVIYPSNOa1wA8wqNeF2vmwbRsGqRDZUEhEWcYuZWQ8ZostOCkTEEelPDlU3iPPoipFXkuSrb/IALcRhmkhGzapkCgcou/gbQFmc9hiQIFbyYP08QpXS6iCPfFaqjrGty2+xTPdPxTLVP9QvgWgRd3JzTSDinxLyNM0lgNR8AAvxqsY1d8GeiC8kl6litPrQuEZl/6h0zNSBhXtHEwHYUo45L3wqUAQwiHoYFsBujoJVmEgpxMWwRBCZJ6CP7A4jhdvvZx5KIlXvUHPAaY12j0AWDmdcIinxcAYl8Z1yqCizYJCg0rMa0Hj3XQhEtBZw6uAFxiRQVYkQGEX6+EpoduG25SJyhVCrTrSggELuOnAUyHLcrVa1OJzhVoYIo8DzHp9WJpDnlIGE2FOj9BOeEi55NpNN2Xjd0aggquxPcZ7XTpU2JXLeQ+JvKPpclnbgMJo0JexEoQ/0IPeXhm+wAqt5bWEXaQ/nC3vwTNaigv6qJHLpUxMgKGgh3kwU1jkVSDotSo42JaQCC/jEXkw5ytmD3FQ4TUYkP6eG46rxWvxLHCnWl6rhESMCgm8KtSImvnE7CEOKKoztJaXhsKyJNalgazdgzdfa1Ofds/1Q/UleUStJJz8TOQHFZv4AKMMC+vTUIRKEb7FazmrsFYuZOYRydAGQEtFeC58MJ4xmaYDirH800PhWpJ5gGaBIBzGVHMoQm5Xhl1hZ9B5lJ5cNTmgSNJtWuatVIQmqLFAeS7VXM2FaiXfMpZmYQmKjRCscQ33ShlMbhDqKGCMUtWbCrHAAxL8mriTfEtDGo7GkIVc84k+g405KQMJT/KQUD1DORDvpb+n3fOaUOP5tbwWkW/dKlR/ksfiGSX2zmDMrYCDia3ItsjgbCH/8VYMC0TgDOra64m8Hr49w5VrMTDMC6TATOYHEiFK41ijGDouRPFaoAdEwJoL3AgPaC7xoaH6lsDa94QaslWN1nyvlD0LXEnVBpXntcrghRAJGuDVagpiILgBeKoypbj5OPoYrQmgDiLaLDcKhTe9PBQEAeMy8CoHUr3Jj2oKz8RDqRR5SbRmjFaeLHfHDySIgBB5Y2O8h/wH5gTUtBn5GqE1E3kiYb9hqPxOQs+YVYy3CM3Vk4OIm8xrWR6CBfrhUEblZsuFnNvTooEMiHVEsBbTG0J5L17yLqF5kusgYkZQ6W/AAo+KIgEyMNCAfQ0tkmuce8yH4im1mbyvYdj0XAMI7wGwtLHG7geNY+wHVGM5kEUjFwutLZJ5++odrcJjmfSB0Mv3GHlSbQYQY/duJu+kt4f5IKnmRfx06kXtRJ6oBK2aRJ/WCfDeWj8M/DahyT7tXIQ6M4I21mi/yLEKb8vNlmRLuFtMODMua79VhowLSIvDZWEvT5oHb3YuPBLPxHsASgs3XogyPiaRbwUJqDwvGQrjEg4ZM5QexmXRSE77dC7nC9Ur5DkYF8PitTSr0Wx4tFb9vQKg6gRYB8DAdAGg9HqNuee0c7F+23SPAQzsTz1EhoUrr3qD2NfGtooIyVB4C3OFQ9uZDX1I8HHJWuR5KTsWM4m8Ba6WdZCgB14MC7Ul1oQzhmoDoIWryfc0rOV5ugFZLXYuvAfAUr6Ds6WPyMiwIo4PbXnyl5D8gFBGDIqwxUaFKv+zvTmJgp2LcS5n88h5hCSTPao22BZ2aKuQ6HVVigxJuwe2ZjcEI7OSUn8zEfrO5aKhcCUruHkNiLzfkQXPE9pKwBBwNbOJ+FsIiYoKrSYIPXji2NCUjgUhT4UmmReWcOV5D5SbllAA+vK9QssACMPGemXouPuq1DSujgXLU8sHV573wDhlXIwNYbAFcFqEV0RIhKdR3DEe61WhDE7FWGPXV8qeRMIs5wE5uLlmBRkYaKDlMKp8y/QQgJZB6V/K+eBqPKjq0bmJOZzRsWCVOk+HccG25D1+f2JoS6Iej+nkWEYkmQdB4I0hJQJSEQcZXwsWRsoORMhDsZFAu6H6iQ7g5MHkOy1XcesZajnZP8G48Lh4Ld5LWESzBlOkdCqqNWxP+JbtNSaptX54MnlYy92j2jpYGBJ4gC2PqY/JwLEibheaXqtjAY4q991gux8Yl2Qel8pu01Y3V77FKyED4osJh0BbqwJQfRQTQnIrfC1lByJZxkbQ0+M1gKeqNAl+y2RevmWPPJ4+r8WorAnQGRCShcTkcXUuoAAVmQpROFSlGaG3OHfb0y8OEgeAWo+knwiZp0KiHMxcZA7Cdi68g6qQ5+C15F5aPva/t2q7CHW4+vcOBUNI5sv6S4WFY4wdydISX0vZgQAogadyLWGJ58JI0DBuyQBlYPI9Ez9yLh7Le8v9LNbNwzkHEDdR28Wud2wI41w8GWS+dVhivMiAciwhEfyAgWpjdNJsBhAMUOi44+xQm+VAjwnFSm09Qs+4MDFUp5J6uR426jy1OSvGTuXyodB4YcmEj2RamDR10zrnUTAgAyIFet9SpUr0izCsNK4OhWfiuRgTOjO1WYYnsz255U3ltYC0rw2FzPspLAJOWwK3KTsSngkDFIAJ4/JTfw/dBUGwpWgr3Sn0CaHyvDJKduXQlAHEjZTn6CWCAfC4IOMS+tY0F5PbqlLNafmW3yXyyYAYQExXI+PBlSTyzvHR22NckuyWvHXh2BYdnkoo1Go6JXTbg9ZTJiDgB8MQkmh05s+EwrleEYpirN/XEobQUyzT1T6D7YFCZI6QdS6GIYQ9qLgtgUIhYiBGBKoLo5ut1mqLPM98pJP1tZwUDyeF2hWR0rGoDHkJJT/eFFoLnrxkHiMB89QQakHmGUJtbyLcakqj9JRWE5S+5ehaSmORzwBHEQJ5LB4DxsTA9BVNWLvh5YhfodMUdk1hrAY+CvRgAFeu1ZKQmNJYHNQkt3HMCWMyxqVpbOIHxVhCD4awSdCiNTshWixcc8QK6IO3YsjPDs0kvmNhQLyUHEtOZdAUtVjJz8BM3EDnVY0Flcezqi2lSa295PNYT6lwSMC0U9EftGtLGGQ8PBdKMyjA3ivhyZwgZN7fkey72S2QeXsoYFmgB8bsp/0QydnqUErIY1RCIg+FgcAzuaG22QiRsC1sCORA3qUFrRkvTM/QVI/iwWomJ3C0JiOmNBD73AGkeFKMSmPadmaGRUwwC0uQ8cJIuGBoCy+C3aBwYFSwNMWD+cTMtToUB4/Lq+RXZ4RiHMwaFjErqIcI3+LZeLlWYlSfUeGLlf7lY0MzHHYmjEh5D8fSM7T+CMtgNofiSdCIje0zMDe6RQJPVKkM6sxQOBqmq+UmeSJGZyIUogdjFwhzwp7tMfOC7aCXx2v5u9DyFgk8JimQVM+SYVGG5XOmdCSqLpgRLpZ8xkEBBhzmhRFpSmv5UAOpLfacqkY1pRnUx0NtKdReUqGmdCTm/uRNZaeVClGbZ5GYcBY23WhYE1CzhdeSZ/GMci0KepALpnQk9wwFJ/BUtvHJsazcXiY8hxEu4YlRtujnCXuSdvlVSeJ9zpROhLcR0oCgKkLGgi5jFnCZCH9yIB7FhA3AtPYAhkTdgl7eSq6FhOhzpnQiDAJjk6FgNviJ6XCB0GXi31g/aYTMv8GdEiJrei69SGi/PMsB66a3Hxaa0onAhh4cakoHMEo1mw/aWSq30m5hiPjxAExeppbnQqORywFk5Vf0UaEpE5X5RFtYs9lYAxoHC06FcHcQ55wBCU0SfkwE+Q8vB6WvIVil6DNCrd6lzoCFbSkTFEj6vGEBORHsCi2YB8IYXYXIh1VaGtSMwFDGlUJriCEOG3JUqDyoSR4nYaRMTBgULzNvWHp+mA1IfoXZAIlfpcHs9fCn5FnG5XkwoGkNmouczXYc3DAHqiMBtly5lLKhMILZ3l8RoetZoUIggBQXah2Em2GaCbRMDQvC2dU1SICM0/SOsIzdoMCofVp/ypbCS817qiJXDBVuhEGJO/YmY1lVvC4ajXCoz3i1UKP724qiwnolHlQYRDg8GgSSMiHhwQCcqjvJu1F7zed12zSSdobpNRAE5ULbVoc8FmOC7j8o1NKQbEJ3IhgLjwxV1TEuYXBT3hPIQkhkBLY1b3tmoeJBvxDhz5ZnGNaswS8K6ykTESU9VgNPpapjZJtSYZzjI9FWJQJMJdrbeC2fzWuBQBQTuPal+MB+EBZN8AxpYMvylh7EZ9fzY1TaOG4ilsOmxsCbWAWJ0yXhhsyjGW96jWx01r90hIrBDlRplarCQB5331BN6VacsJ2LL4d/LZfAWYLdXDi05QFILQQGhXfl5uGVQ8+h6ZsKAzJ3qDKElqswbxS6CevTawFtDcqi6agIPQSMl8H5M58X2bD7StGX5XrxsZXmuOGYlG6OygXy7EvKDTZ9SnclwsfdQ61r9F2Q9uRF21J/fW8HcmJImEVUzW2ybttDCqTV0jG1o6BgWB5guBncDeYmB4ObdStuBI63rr8uu/OPNUetl1aic/8qIs1bpbdxKl5NZePfTs3QsBHkQyo5jFEhrNYAKi/locPX8tBtsn/BA4yDL6QiHPJeKkItHS0e15vahtPtkAUP5OnW6rA76tOhjMpWFh5LK8T/8/RLgJXH8pVHhHrqXGghRjLKle872eQNhBYTOTyVG1iT8suQ4FnCKyOwV3RdgYP5fCAGFaEHledzLXHFPMxCLcztaLyxSQov4yL58OWkUp7qE6FcsC/N1dsvcGooY2JYPAAjU20xPIbo4shl8MUh3ceFSmzd5KMZWou5PZPGaMgGTxmACq5GC6YITy3/ceKYB846yHXpNBB3HomnUm0K0a6Vz659hOlgK43BVt63G1EZ2XtuKuWMUDmDL+Jp8dSgdAgdjMOFvFyoG8RLMTAX1RPFVbuBZuOEzc+GetpgMv6fVT3ARBfPa7qAJWz6b3nbOij4QWKZRzEqN11vr1YILIJuU2YUy1DGunkWD6rN5LoQD5h74roxLH1NqYcmdTdovC8ANwH2MRDeilHZuKLEnU9wGYIvrhvv6XRBPLFuHmqtUGmC2BogTMj/CWWgXr80ff0bHlBiyu0LnZ5EFZAcokaOJqR7UORVPptpYw9EbbGFhgfncfy8beg6VJpy/TEaSurg+/NYeoaunRyuHHxQ+8FoIr4U+IAxaKqaRPFk+JLc8kFfAnAnybedjkdScZl60Z1npF7Ln8ttlMrexw1wkfyEKZVhBv+fxxIWhGTeUcjyGV1oP2E4/oyxM+5lhYI/M3DqppSQLBH2GrVF4i3p5hF5LgyFdU6d8O99bw+Vz11SBTkqbEwEURh4aBkazz5p8QVUHi6GD+6EKjdCOQtGWHUflNdhgEA8ZbK9U26kRJYBceUmjoVEx30wJsamrcK4VJ4lpxNK/J0nhWqZ8GjwMwwCoCGvA9MRniW8Ln65EbPi4p8WqnynSvdtoYVlAhLgseWaUHOGxdusKtaA+56u9+x3ATt4XdfOtfGTAa7z2jsXT4bcAPWVl0Lid7M1QbdJbF0YXgyDgEFomajChD+hkKF5sgsXijfhzQCMqioh1DSMi8jY5WmMzd8xtWL7i16a12R8Qio0+lKhvJl+nXIdBOK9hEIgZoupmiJCt+/jweF51wEwbQwUGRgXmTUsfCwPnodUJJDLmphe5KEnIT4YGq7kW+w2eeInEE5iXeuDCzuMlKvHsvR+QqyT3b2XC8Vb8miUkfkcjIiByfHKZ2P8qtOPhTI4uxZ4Ov9eM5mnZUS8mZ/wNTmeMN+i0pwVeRsvK8zzsmW95CpiNXfJyeY9rweGF/SQqbY9kKLCZMXT6wlxQ5SxbiDvUdzxpnKQQbrBqiWtFU+53MxFVSAIV0JjWT7GUPwZr2PGjkeAbEvC/T/ewWdWifJq8g9hCAiqLaJa5TVbhb9Z0W/0oPj8vMyi0LxMPOClypu9fu6RlMJ39Z09eL7bpCtC5bynWshxYBEMirv1tM/SNNaVdRNjN8CN956MjaHp6EtY5VLyCR5OGe8Cy9mEPkOmvB2jknuANvxEFfZ9eDtG5jvyWC3DoO8ATIaPaR5vuvV43hg9gDBC38u98SAxtFV4+XsT7tToE2/lg5dcpFaZv60wNCHURRQihBqJO28gd2J0KkgXXogUOs376Q4AdBUhFMNTeS4v2SZvPJp4MIzG85Kgl00eTNd83rBKw5xByT/do0kn7r6E5qv8ROymkmFTK7W3AtcUXkdi7oKrlm4YCgcDbbjwchADnhJ8P42pMzRhHuzRCmqQTzFy+JXPtU4YLLLoc6nMkRA9GAorYR/wOoUHf6H4YG6KpFcIFDbcHIj05PGRGeGBVH9uqoqJ52VQwqLVjoxKWHSKPSiDR5Gf1L4xKmuYnYW0m4QphrjIGKUEXld+JbLwypNeaeTCCg2ehFKFyV9QY3oyLN8DvABKKLiZCoqHYlhG1OVcQiIYg1dWKdbmkGONglRADJt4q0X5n/Cqaa7KLPdInnnQpPbeBSLtCZajQMZVXL4IWGCyrnaBuJEwMwm6/EsCLSy6EYBF1SKPzMhQf1RWx4fWPGXLQwqvWwdiKKJKXnS9eT49QfdFNFEp6+PuosLdSoCJnl6hkAIuMRpgTZs8dfsWFxz6fbNQNwSmJCeRd4EhCh7G6OSWqs8a39NrwMo23Ze1LOfTxfDAC39nhIIy3LPJi6dcZaUkV7b7WaqanvnUQoW8C4lPGOGRhXkeTB9U/qXKgtfV8FreT1FQu1ITXnUVoO4a6IDlTVipOxdPmgTehZd7eLpdfC0dW+169FpFPDSIdrhhAGBwBK+FsGj9ou+JjAjL2zbsg0FU0jXTh5JfYZeAhDS3S3O6C1G2w67ADcJDOdqM1+ot15oXIUZryrFxQFQ3SI7FyHgApEXJ9jbf0cPHqGpDGIU/BpdThOggtD7xtaqoRuQHkGxxXGKrsQuPwQRoiVbvQtx4WJCcC1IvCYZnAR0l9tvyshjlsuR7U/FaHuzSdNZwx+LoTuA62hB6XJ5s5bkcBPUY6a7nkEjkPtgaQiKPDNsS9jE6toUdGEFNoyLaQYXyreHMW21Sbe5dtB+guXAY6C6jAjQKiRLcyeMmKwivparikeVYwEaDoFMr3T0ERvV5VqCoqr31ifpNRa4h1+J6Pc0FTNRJx+ScdNNzBVFNYV0CSuUt8pcp7pwS8oRs+aAIAh9rTfdpKp5cAJ8qSjgsgCnKii+KXtOlOz4iknjfB5PDw2PTzDYMjhZic40CSvUKYdem6oLXfpDArrAHYD6qRLiWhF5HXU+x12QeM4KHKgCpRH4dLvouhFfCIHW95VWKi1qrJychBhcQ7mBZZVoHcs2DCZU455NvKcwILjzGhpwF45QHXocyvCsxoYRnpieokAKGdh0C5wUeAxzVjGZMwqJKigcDpHratRV6qBQlwvYpMCafn+cV7mtjTtsKLNF0k2Rdp0DyPkQInBc3BLZVGJpiPrIctJpxgSF66Fnp3Z0UKrRTn3tqoVz6YRhVJV6YF93uZFhFkOlUg5JJ7AA9NmHRBWBoAFUN3ykLjMoDgs9kJYCwOCWRUjB8AyEqcYCtPHZqHrW6aCGUkMhjeeoxAxgWNsTUF1MI1zA4/UBV4ZQEqIq6w5iEP/mryrsVdXpS4snR8jAjp/z1ZMm39NrkLDhO2BFHO3tmClKbdVBDFBDPD9WzFP7wrKb4OZuJJ0gCbEpG1aIchs5LNEtoRE8xF5eymqj2EBK1mPQDGdWh8FTzokIBQaAxK9t5L8g8TIhhaY8g/NfcDjOqMCrMXe0ycI6cqveuxlYi8eW5uO8yJm/FEdBR913uBbXfZpfn6CK14J1Qp8E2qNRTQ/93LhJhuRTgDo+pLKkQDuFEOEOAVEnoFAHIfQuvjwpjQQnwWZ9yKAB0G2FcaDQGM1WE2g5osxBtVBT5l2rRxQNF1KaT9CpaM9B/k91y1a428e1KGBePBB1GCET0B5zikZvb01/0U2/OsELvRMFtpJAoYVX6f36WTX0pC4RxGc9H9C97Snks83yAPgm9MIn6YQD2MFY8vrPtfFIDe7LQX3pmh+xM5AdaD8IiZF6OZcIH1wngB+/SUGV4dg3oh40eGn0/xuO6aNMYgFABGuxIWUO0JFSLknctHx5LqwcyT/GfMDa1hRhg640v+xIeXJfCVJBlJbb12IvRS7N+ksJz2QsF6IMga1wzKEwC+ZYEv4RInC67CFBzRhHeSMhTLYNj0Io8bPPe2UNodcGhBEI3Fa0IAxkWYjAehqVCZFzYECaSIfWMS2jUFMbjHqGFYfABOdL3X+aNrS1nfAzPIO2hx67WEeAfnGt2rRBcC94lmYfWMyx5mDk/uRgOUu3lHLsWnulouaPvJxXQVzV5w7tve57hoRTuXjjgqaDywiDPxYsxLD+1Mww1wL9AFrr6I+Yi8i7GhBmi/aWKNi10mCGYrURlpLy2VgiAymMJh/AuIRKmowmrx2ifKIIbvndP65OOJjyYo108SL4vrI8Xt/B26kyQyYvQqCpSJQl/6CHvDeW9GJaLztDsUvhoqByM93JDehbFDPozjy38aXkJhfbeW1mQUkEYF/wKloP9AHpgVEIhA/M0W6vNuACqfmrQGs3qsePP454Qqq1V6NwqZeu0DzWDoZWU0KgaRBbEjGBAQFStICokWthhSpmaqTO21UPupbrVviozmYiQihP5pWbzoSLw7VokrPhavBH+uQlribynG7gqmUcgPPOIMjyVpePUpvq0MxgTTfJDOJ48klGhcsun0KJ7GpXrWoy6w7CMkmtUA1B5MSESv0vP0U+hRKgEPMJ+ptZnM13jITEGL1/ErmVceFZC/wj7LroTVRMDc7gSZqoFY26QPIunAlPoP+q3GeYQTqYSEhk4hoKCxKpvFZ9mO2yOoan65JYpexYtDug1EpyzdbAB5FvyE7/ru+17PaJwhtMPXbcFUCgH/grhFo2gxihSMuxNUNwUyboEX+JL8eqBp/vwANou9pMyKNQffc/bh6pogZ5mLrEYaq+ITGkg1wiF+zAongAGtumSXTdbcj170xnoMiMtf1+BAYfiQbWccPzlTiADCbnqDztWWyapxR0IDAh/iWcQYk4O3fToFbOQAEksCgZDJdMowfOlv9zN/8O6kNMJv2hAtugxLAcvocPYTqOyzfypM7HOGldeyY7TZUPwugk7ugqDgnQLV5JsxiWpxrxgHAyDcfGEOgNOtPD/cdGtk5SEgw/8W0h5GlLHIqxY2KHlo63DW62zbYUnAV9Y/6NNZBSNgfI4XsvsnsY4zInBGm1XFJwYKuQ5cEABwUN2sUc9ZTWBU8GBoNaatbzXqsJLyX+Aqc6YBrI6+UtvEk5W4Ay/WwfAkByMyVvxSIxyNg9LGUQkwFoh2jyAUkn7Ks1axmAhic3HQFb4F9QbDACwlK/hPjEq0zG8Fc+YkMAhEZPTWKc8DONadTEawyprxLWGhECGxWvJm+RTwhpDSo90CEV+wxh4GZ5rnWFOFBsLSfC5cO0ZVOZIKWd5JsakLcIwlPar8MHlRTjkqkjUZ/jSptBEyoACaZdUy4+AkKq3o0EMQpoGr3F1lBuDGRaqZd6UcpaUnMemYJiTvqCqUFN6mUjy4U0WatgrZTcqCCFxppTPS/FKqrbCJsVuWLYCiVHBqRiUXMyGQSNX8yh6yiEWRlUMSwVo15ZRfMS/Rcty5VPovvIwST6FjG/aQ0wZVHifEr7kS8VYtHFQT2aFR0JJEfb0D0386Ollop5yNmFYJdnGgzfNAsMS3uahBtvvUJd5NMaFnTlvfCkpZxPeyPSOvEnTeHaHqcFOW2sk9saoJO25WyplJXFGIizK+D3DsvnO4ASjkqiDIeze4rGmvE8+ZWICbhAKGY+2jNYOwBSazos5jHOEIdaUHYuVkzyWlozk3ABFGcPHdEB5QQHO1T8pa4mJFzscypG6vBQPpk1DYVe5mSVlI5Gw41NRrRoDC1o7i2jEKSkri/aOxrNwJ3FnTOtSklNSUlJSUlJSUlJSUlJSUlJSUlJSUlJSUlJSUlJSUlJSUlJSUtaTY475P3XhX2X6V17YAAAAAElFTkSuQmCC;" vertex="1" parent="1">
          <mxGeometry y="596" width="140" height="481" as="geometry" />
        </mxCell>
        <mxCell id="X9fpeLWt1j-jbo-fKKKr-204" value="" style="shape=image;verticalLabelPosition=bottom;labelBackgroundColor=default;verticalAlign=top;imageAspect=0;image=data:image/png,iVBORw0KGgoAAAANSUhEUgAAAJYAAAHCCAYAAAANaTC3AAAAAXNSR0IArs4c6QAAAARnQU1BAACxjwv8YQUAAAAJcEhZcwAAD2EAAA9hAag/p2kAAEhSSURBVHhe7d0HuG1XUQfw2DtFBSFKF5AuEEAQpCMQkK7ShVBCLwEkhCoI0iGhKEi1gDQBCVIEhSCIvSsWFHtBURADqOj8wlt4ODnn3VPWOmevdWe+b7578/LeKXvPnvKf/8w6JiUlJSUlJSUlJSUlJSUlJSUlJSUlJSUlJSUlJSUlJSUlJSVlFPny0K8K/brQr/AHKSnbyvlDjw/9gdDHhD449Lah3xz6paEpKWvL14beJfTZoa8MfV3oG0JPD31G6LVD/Z2UlLXkEqGPDH1j6JtD3xLKsH469B2hLwm9WehXh6akrCyXD31B6OtD3xb6M6GPDv2J0J8MfVPoC0OvEvpFoSkpK8kVQ3koBvXk0O8MlcB/R+hLQ98ayrgYm1wsJWUluW7o00J/PPT5oUJjkW8P/dHQYnj3Cr1waErKQvni0C/73K/H3ChUHvXuUMZ12dAiQt9NQl8dKgdjZCeEni80JeVsArP6ks/9eswtQ0uO9bzQbwudFXDD7ULlWb8Z+muh1w/9ytCUlC8QHosSofBVob8Y+mOhFwmdF8Z159APhPp77wkVFhOGSDmbFMO6QehrQ38hlFf61tBFAm64Q+hPhf5uKIzrjqElpKaknCUFOpCgMyieCI6lKlwmjOgeobAu/0bovFZoovMpZ5MLhj43VHhjWDcPLd5skfh/Nw49LVQ1KSTCuORtKSmfF0n4U0IZFrzqB0PPGXqQfGOo/OwJoYzs9qFfH5qS8nn53tDfCWVYLw69VOiqIkeDc70/9NTQK4em90o5Sy4e+orQt4fCrG4RerRwOCsXC5XI/3zor4f+Uqh2EHzsAqGoOKu+Vspggn/10NCfC9V81pQ+R+hBogDg3e4fCplXAIAkfiXUawmR3xcqb1MUnDdU6E1DO0QiXwKSnhH6xFDV3qqih/iA0JeF8ly8ltCIHfH0UIYFiIWFgSh4s2uEMspzhSZkMbB8Q+jjQ+FZPA8Ptg4AyusxTo1sOdevhjJUr3PPUOFVHxKyf9NQxoZUCL5gaAwZhsZTpkcbSIQ1XuVFoYwLlOBmr3uTeS9AqlAomWcscq3vDmVccjK4F0M8T6gQie91YugpoQ8K9feuGqrhzbhL+ymlUzl36ONCoesYpE8KBSusK4wRHYdnYjyMlh4bymvNc+qFQu/j7/9wKKNG0/H+PJ4cTrUJc0vCYafCg7w8VP8Qws77bDpcwZjmoQfeZxlSzyBxwXg4OZgw+axQVScj49H82WVCLxeaRtaJ8BxyLSDpU0N/NlS1912h+whHPo9Kkvf7ntBHhP5Q6P1CMTLuE4p54e9kuJyg8CrCjJsHSQeSQuJ5LKHI9M7XhO5TGI5QjdnqM50cit3KwB4b+v2h3xKaBjYBEeKU/LcJVc2Z0BECJd54V+AD5D43jeFNpVoTAn1uHgy88d5QnhXtB5yBiJiV5R7Ejbl06K1DJerPCYW6gwjcpD8OhUO9L1QSDzCdIrlPwv+QUNx8HhYGB+LgdY2tCespOxBhwtOs9Fd5vSbUEy/kYYf+UejfHdHfCEVXZnR6ifsOhcuE1wWLwOA8BL915KcWleb6JUMVESmNhGFIgpXuenmGUz3h7wz989B/Dv2b0H8K/ctQDWl/V8jpIayoJk1za0l5ICig1yAuTCwb45WFUcCPYETaKwxJuGM4DItR/UXof4QyKE885FyPbxX6zNTEWoCHh+KW8braS/hm8kQN8ZQKIvTBhHClfiS0oOqe5F8+8vNDoZ8M/dvQPwjFDD0utGcRHu2eUIjoV8q/5F63Ck3sa0vxdF4hFOZjXpAXKmP0LjbPZfKZcf1L6O+FQt1hQiOIvOpqob43toUqVwpw39BvCk3ZQOA9QE1ApydV2GM4DIrH4q2EiD8M9ef+P6BxxDwEp1+byAP1wVAeWc6VjIo1xFOqxMbqVIa7iCZwqLzKhWVYvBVCn9AoQV808tWTHFT1XSgUZMJzowRhU6zCN0sJkU9J0u8UCjkHGMotgJ1CoN/lUJ5c4YE309jdtA84JUHFAaEAcZd9H+Hv3qG6CKrjTORXEG4dvVg4g09hcQp3fvJOfjc+D5OS0Grkan+Mgu/w0jhfDAf95jqhBjvmvx9jkkOCJlIOEEYlSUUzwUrgrfTQGBM44U9CNW7hU7Ad7IURn1bXAdTg++ko6Cf6XVWcsqagnwgDGrLQcwYlnzJxw6D8mcpPJaTnJ/SN4qWWie/HI0nQYXEa1GCGXAewosip8JJsf+GpwAa/HcqotGQk6e8K1f3XZD6MOYUEXVNaMx1oKl0YIadsJtB0PTCVjsrPGiJNY9AB5Bx8IEHXL9NHO8ztDA+UVk8hCwqT2ZxeIIwKvddC2meGFsBT4xUIyEsxKkg7DCfpI5+7BroJUgYFDCCY98prc0RcCMMIMCpeikEZEkVvkUtpz0jaLesQJkfPp9YVnorHwj0TGpEG8xqFGExQUnvygH0wKpUeWEHiDkp4VOjsuseULxTVI8xLY1q7i1c/1NtyNE89bThGPJWcCkkP65PHQtQDeuaO0INFzgl9h+0hCZpxPJTNaZUMBifIwIADKOGvQpHz/BQGJfHpqVYX1/SuoVpb8tOTQg/V+kt5laFPX9zTxVsBPvX+5FTaNMht87tDpybCzdTyGfmqIsf1pEJkjxy0jQSV2JOl0oNVlZ6f3ApDAU51pdCpCmPSXimzgFMSn821lZti1IoAWkLDY12+oP6fKkYjmWHJqdBdAKAazVMn5Rl4wEfXVtLHnBp3Xr6lHSYCfCzUDAC27bAJPaPS6zIJ7InyNAE/eSvouj+/eujUsRh4kSRZBashrs0yNY8Aoef5RQD5qwcY1WY4KXmVp1zlV2AF1R9+uj9jVD0MZ+rRCS9COa/A41oCMrUHAifNA/xnofLYu4UiTA4lOvLCh0pPI9kX5a1gVZaZSTJ7atOgSBvZ94AYcMBqhR9NTfC0NPF5LJ8RYbKHh3cl8YTbSixJV/XxTryVJ15I8WV7bCiXRbhuGkDXbqypHfrEi1qhVOYtgdAGe4cQTeOHhQobmsp+Yi0ARnmqnoE8HsFgg+KDZzBJMzXsqEAQPieMy4ab7k89EwKxO4VAhD2V3++Hiv2azr1jLFpSynqjZoZjhfupgbq81vVCFRrUfTCT2G2VqIdlFxUQtIyKF3gB5HBsaO/i0E3DDEL8maG+o9J+alUiSAQgraGvSsQi6XbgRFluQSwU3cmmXLEnRv+Pe546rHCQKDZUWuW7CfPaUQxtk62Bs9IC0Xe8ns8J22JcWLhT3V+xVFz0a4ZKGiW2qkBfyloesELvSLCHwrEoKloe+K9D/y2UR5A7bpsgM6zaLSOvhZ0L2/rTUMUUmk1Xws0qx3krs388lZAor7KuusUTuStxw30/84sowvhjsKKPhiImWoArRG7zHf1bmFNtry5SGHZFnnRP0Gy6mfBxMVBnYVSoL/IqT4knuZdNL8tExWeXKAp1YWb4broHknc3TCgEBm/78DBOo12bvM6yfyNSWEfp3nggDPjyWl3cEw1aLlcFqFUjBLrgSvHuYvqMyJvgcUp3bFdAL+jEDi5ww0dCMQrkLjWmklXUqrnawLFcS09WnuWhMPDaBSKv6+9pFhLw17VtAHOewB5RX6GPUd0wVEuKF2ZAwjzoxCGaknaVoaa0zXs1Snlex74K09CbeK1l1xq7hKdyX4RwQxkKrcmLYVMgnCYzwh6P5b/LfvReRHiAs2FbqP48KFiuFrp9IlT3wC4uBiUZ9t8a0nLIWnL3UJ5+ExAZ3LNIfD5eV0HF43pAfO5Jt9QYjgshVHgi9NE84UDSngYsfY+y4cYEskkYXkouZffWx0N5KUbmp1CPCiQ5rikeUgaN97VJHrTIWORZknZh0HcSxjFLJr3uyQ0BimpvqAYZlR4VNkBPhqV3KaRJxCXovgtvxTMxKtCCKhAzw1Mv1GtM1w718lXvz3Ntkp/6PIsM0iS1dKXkibyWFGay4ktoehrXEiY8yXIQrnfKQ5VugFB90VDeQWjwHWBwjEm4k0/9a+h/hjKqT4VK2C0/g7a3CCWMyUg9EHZTCGNRvqfHia+lOhQS/TSAMelURTmOteBptg6bmmB2w6bwwRkR2AB+w9hBA8BOs41G+1F7/a6fyUsxKknuh0MZlt2mNgZa8Y0F65CCVo10YUtfDyPE9plNWCCu+bzXsmyEYancgbruEQhl0sMXqg4hRN+MCodcrkO8lyWUq8gmOYanVQjWzceXQnVRXqO4oO0IYZqy8hjNZGGnzDQqPORUcii7I/y0LFdOIn8Ejlov1PJmMAqGzgBsS960vzd/7RQlqkE93FLl6iVOelTfhQaQyrPcJFgW1F0CvE3j+SBvxxMxIuGMEUm85Xs4U8IVUh7aiFaGnIJX5aH87qktW5ZVs1TuQT0cwMRyjK82lSpXYr2L1hQA07XTDrMMZZ0HjIcr1fjsv/OAm5z2gOhxwrU0pic9w+lLKGklnG4MRFpIscBCn7CWuFDyGtWbhSLAS+/pgunfCWW8jqeRx5TvwdX8rlpVVPACvBR+mGqPcbnQQE/GxSsVg7T6W7jwPbRFhCb4T+2EfV6kEL6PXEiFuk449CALpXC4+QdT9S5vFOoZGLhEf3fS4ktYZagE5wVUVW40JHmTkFbEv5UbCQk8kjWS2BK8jzyO8kBCGe8ihEh8vTdDEc7kE7wPfI3BUMYnjyorvP0bSbNcS0UrB3NzIOq+g7DhKWdg/rul51JtMnyfkedfx6u4VpJyn9E9mTUuBQeDcj2Ed4bLCLe5PzsRHxCu46b74KpDLl1F4klaFUj0OnICrQgnprqpXgdWhsfNKzEgPyXTnm6hj8G4WHqVtPwdeYXEFSmPUQovUHV5FsV2tUdeFSZfXOSRGLb8jAFjOJjqbuW5tHbKg+E7aeSv6rVcO/u0tNjmm9pCLAKmNIA396DIP3cR3rcWF9tFd7PlKryBL6D14UschG2ptrhnp2IxFnuyGItwJkQJZ4zFfzMyCbgciMeRP3kvN4NxWzyCHybvEl4k9N5fvuGCC6s8khLfxfXnPv98CCH+vqdbGBXuQRO82qK/u63wlEIw78IQXLd1knhpgsJJte7zFeNSGVp/5Hry3vJhLauanYOm4obxCkpmT4Z8yxdxkZad0eyG8lIWXciDGJR/Kw9wIfzOA6lo/D8GJfmElwm/LhDP45R5lRvPqeemqBBaahgAI3TDeUCey3u7ibWFp1HB8VoeEPAGT7qqeEA8TCp1D2q53ryez+9aMioPvZySIXcjjEucZyS+iEpRziCZdqN9Sd6DMSl5PZGMgJHwTCVf8m/dRH/mJ0/B+wlrLpKn2b9DtPM6PE8JUVoWDLxm64IhCYU+n89j5VLtUyIYlocQ1wtEAjVf16somlyr0mx2TdwTE9NAXgWW12bA3Q228hLyJB9evoV1KSlVoem2y5uc+K7y4XGEMt6AMblxjFA4hDupzBDtuHh5F+OUtzHQYkiLxMWsLTcJ5Y2FZQYvP6uZpzBU18I1cx3kWEf7jovEghV5pYevnNoKFlJBy7HK9JQ2T7dro3glwxS+EOBR303lqCrzZwyIQblRjMp/S9RVYG6apBNhUI4kHwKCtshtVhVGpAgQlqnKVL5VS4Txksu5Jkbm1v2+cD0PJCzMw2vbtGvnoVRFl0qZ9+167lCcd/HlS3qK/xj6D6EqH3/GLcubbKlz0zSEPbnFI+3TkBYJQy8rmTwMYAoPUA2RIypQXCfXZZNQJXR6WBU51npjN8jT/M7g5LyoynK47gdaGZfKBFVW8uhAAF/QEy8Xgx8JcZLkRQn+lMTnw9niWRgBD6t9tG7ImhcPkIY4g1BVA2kPqqQXic9RoAUPKRqTvIuR8mBgFkWQbomKeQiR93hKIOcPPvKTd9qmr7gPgTfxsDAzuZa2jz/bVBiVsFdaL4wCWr5J/ua1dAq8hkqZus4iQOGc4WSpCj3Mw8nUQtw64rMDIxkVSEVodPM2pSlLrnkoMIPiQP4jfG16jXhQOaAEXmVZcjVVMnReeHRW9qQJf4dVVFQqK9WbkCg/3BRwBA1ICwC+wuy225AVAUIdg5e0WywshFMGy1NpWG8bvlMaiDBlzK1QUVRhIJZNpIRA0ApIY1vOl74hSEeVDe+T286yUtOgJiyefpCISst4lZaSvGhdzpYck9dTJfv32jHb3nj5FARe6wv+J+dSPKVMSOQmy3IdRgBvwuhgHLzEukm8niZvBWOSXNdY6sa4Je3CIY6afHDqm6kPpfAgi2AQ7SgJN8xJONRVWAcw1dP0b1GhrSkACEPLtxWGJUFHCIBX8VpT3k59aIXHYljznksCDBficbBV4UNC0CqJN2PlSRgkQNTNV1nW2K+giDClrcLU3sFsmPRkzmGWRYalXC9JMuAX6Is0uEqeJWTqOGix8Fo8HShgkWdcV7TAFBOAUgUGtkPN1lNKZZk3LN7FTZPL8FhYGWCHg1o8vBUP5d8wSoi4KexaLRYzirhpmv5+8looOCmdiJCnlGdQ2jBCIg92EJ1GHiVZl/TzLAyKB6vVgRCiheWy1pJXlMyndCIMS2sKQGpYgaEAOY/G+iz/xs3WEgKIyolq0nyEaN7QbGRZEQBySOlEhEYhTWXISFR32jxHY5cyLOHJxIxGdovpH4O5hmwZlIa/vRM8a0onwrAwVdFQqL4hIzOcsUzQV5DteBSDDzWJgkXQwFGTylITPDjN55SORFKM6oJNACSFGxlwXSSSerRmjFoJdY1tgIvkgaHIlHZPlOFcXYKUjsTZOrwUo5I3ScadwLEINhCOtG54K9yrdds/q4gCgNEKf/ZO/Huo/M8cQkpHomnMS2GUakjrGaKpzBuWBjUDxKAVMo26tfBWWBeqVAaFDi7HYsw1WkUpOxRoOaDTzdQ35Lks95gVTFB8Kwg7T4LO0mophzE6oY+3AjdI4IVqEERKR2JIF5cK5MCo3ERUlVmP5e/ArezfYoBG3lt4KwK+YEwSdkaMeQG07Y2le+hF7oL3bsBW3w+SDowshqXRrBnM6IQnQCoi3ir9xHUFFmZtE8OCYSkS5HMOJU3pTNCA9eRM7Mid7JSQmPMQ1JQ2jMtWGzfbHggG0MKwIPqMHJ4GcYeVCcHb8PFT9iRyGh5JCwWWBfxEBWZUFpDwYIzKzdbuMecHdmgRCnlPfUte0dCrsKxCzTDYoRitwn03ZGoQFFOBx9IIRrKzfYf6/7AkIbLGoQPzwguacWRMZTMPpkWtmceUHYv8BW4E+LRGAOSAYixhl1epzCTQ5icNMqAN29FQW4Q7nHkcLBQeFaoB2JRORYsGc5RhoanIp9BgGFjJdYTDAlDiSq2zQWYV4QWFX94SSCvfswOiBhs1ZU+iLyh5550KdYYCQv8+FHCqUV0mbxhB7c3LMDGsCgi7sMvI9TBbIPspOxLsBB7LvgT9QmGPQfFUQqP1TC0HGRQB9u3zlDb0MHDeMiGGzsXmZixSbRNot6avVgogVAvH7tSaXKt5EVZBDGjRQqDkXc53ENkwZeKiByifEYLQVICgvBbowUCD6rCVwMIMZMDOYGiQfaszQRqtkP2UHYlZQKg7L8VjublCIpZD6415KM1wKzhZ2VYN0th01D9lIsIr4D5pnSDWaaVYjWlVY2s2ASxMs1txwEMWDK3FbtSUHYrqziQ0INJp8ZJ14VBupSIrvcIWYg+DFZsS9VIoAGCtJ2oZelN2IDwSfrswVA5OkFcZlGhBN54VzFMNb+8L9Rd+tZQwV0tu5WdL405pIKZwlPSoKbAjN9WIPE81u9WlhVihrQotmxF5KrQYBj2LWzGqTOA7EoQ5yTqmghsLjLT3XcO5NSDp9W1S1mCW0wm7wqH3n4cX0qg6Egg3aMHkC8PSj5PXqMRq7FxYJozEiJgTMuyAh5VR3or30pdM6VQYjkZyOeBJoo45ag1Rq4SZQSEFagkxIJ7SvCCjlrQzbDhW7bnElB0JNoJ9nnIpWJWkWWPZ6RRufEuB7POSwq7w51T9M0OdaosC3Yo7n9JYeCO4FKwIXiUE+V1eozJslcsg58mbClcepCAEUywK79/VWTgp/y9uLrKc8MdTYCxInI17SdZbwQqMldFgpwJAVZ9UCATCattoJWWC3qEo103TKOvlVLyGMIh6jMjXElYQehm0qk+CjtfFqOV1EHZH77VsbKc0FAQ+WJU9CxJlHkuj96TQFgzQIiCFckIF2o1ZRKGXCoPOGZLXpbfqUC4RappG2EPeKyfc47C3nHhR3TnrmpfEBDUIC9k3H6gHKYmHYyWBr0PR3GVAiHM4TjyGMSrJsq17rYQHMphhtZGcTpEg/DIwyz0MSIA2krnQochbcKgYlBsqp1GNqcwk0i3xIsm683m8N9JgYSwwLp6TtyqHW6Z0JpBtzV0eqngqochYlemaVuK1jcYDPxmyNg2qsxyPoeF2mbjJvKpD0VhW8UnUi1Eh7LU+4pYXNE3thAveyXtaGmI0Xm6nue3smzSqDkW7xlnTDKpAC5J1XPKWIKjXxQLFTFAF8lA8pEQdVuXPWyP7KY3Ezb13KDQbYa8sKpNjGYRoGQIh64oCeJU+oBAoHCIP+kxpVB2Lm4c3DtUus4AMy4n5LQ824iXxtxg0DwXWQMHxWTScc9i0Uzk21Nk1bqKG7kdDDZrKa0ANaMetGJimaxxQyUMJeaZs0GGwJxxQmUbVqdiwZymtmypZhhlhD0iYeY/7h7YEIeFV2BHgBMYl9AmJ1k5a9ZjSoWgc2//JO7ix2iRoMNonWjZaJkc7AGAbkc+hwRgo5SU/EiqnMsls30MOmXYqSnshTrhR3oMU4EYASUZl/4E5wRZVoLAqn3NokrCnsSyvUgUa48odoR2LHQpAUOwEXkqyjpYi/MmvbN9rwVpgqOb9FARgBeEXe8EcoJ+tB1tTGooqTMjBo0IpFgIZlLYNzMpij1qnb80Ko5KMO8uGdxJ+GZYKkCFnTtW5oMEIgUp8+RRIQfjTkzMPqBdYe6UioxLi9B+Bn97Te5kF1OiWb6V0LBgB8hinSCDJgRQ0drEIDJoak2+R45QeoFyKV/Tetu6hxrTkdKXsSK4d6pCi2a13whLPZWma00drY1aYEt4XMwLz1IkV+FWgjDSqAQRmxaB4JcalAuRBsAbkOTxK7QWwAFDj7lZhm+yxVZmXhFk5SzBlALlcqDD46FDeipfirSTQmAPYojWF58ObAisIs2g4DAvXCuW4xX73lB0L3AqaLa8xsawChCGpzIQmTeaaN1qyjrpcltuqOiXr8DGrG1svC0nZkWBl4jYJQZq9wp/ZQB4LJaU20m141BApbMx7wcbsBbXEP3nqgwjvYaeCkMdTQdmFJlPEbnxtnpVNyLcLFW6NbOn/wcbkdvK8lEHEmYHCkJCnH6eFYuhTj05SXfN0CPiXPe56gN5TqJW0O/gy+38DibCDEWrXAU+FFcqgzAbyJNgFtYTXg9hrXjMqlabtxXZWOSwgZSCxRhENBhtUT5CnwiRQ8j88tGa+Yx02I8IC5akKQ8Lm4pSBhJeAVcmlzONBvP3OsISqmm0UDWs4mLBXjMpEjUq05b6slB0LtBt7AYHPflArstFiDEnwXPCsWrOBXkdeZbKHIQu5hi9yx/qAgppycqgch6fyE4fdkMTLQmvuksJKgOSb6AFf4KofH1rLcFMmIqgpbrRBT8Akg1INyq+EKAS/WiLMAUF5Ko1sGJkGc5L1BhPoOZ6Vqkz1pxoUBg1I8CjA0Fprf7wXlgRvqNpkVEKvodJWwxcpexJgpwO+MQnkUkh8jEsIhHw78LuWYKEyJK8PxbcZ5oTQRNYHE4kyb2EfqNYNiEHCXnIsFVqtZBqoKodTYX4mFB3GFpgk7A0qwhPyHPKewVNVIM4VNkEtDrukXHKuXSNv+1Qow5LX5WHegwrmgCFToYnH0hs0iOpokFrCK1lyK4fD55JbGca4TGjKgGKrsQO2bb3jSVSDci1L9WtRYlCMNZi9LoT9v0MZlUowD0UaUDAKUH3lVvqAJpol0/cLrUX/lZ9dMRT4afDCuNb/hn42FG6WleCAAvnmrfQFPx3Ka2Fq1kymcbp4Jisc5W7yKj8xQ3N5/2DCS8ih7hAqYeepGJbfjXfVYmoWzMocogZ2GYv3u+ZzouyDiTF4ACjvpAqEW1Gbjmvyn4zE427hdDEouJj3dYBAngoxmEDQDZ5KpDFCEfhgSrArG2RqJezaNmjGDkKSqDMqRgzJv2VorfdJmYiYuoGm2ykFVgAvuPFm9mrlPEIc0NUQBlhBtel9MBgQ+VouZEvZg/ASVigyKkxQSbtkWiJ9+dBaFRoDxVWHjeFZyamEQqdUAF0ztxpMTCzjP/FOkHWhiTeBftcyKij6tUIR9hgsLwV4VQlafeRwpJSBhJfA1pSwmxF0w3krOZahhVpeRLWHDYESg3Yj3Go4+2/eshZLImUiYmfoqaGASjkWzEoohC/V4loVeEEVKARK1HlFHktD29h8ymCCpSAUnRZqGFQIxNzEaqiVTHudU0Kh9+YRkfhwungs08w5HziYYCg4dgRQybjcaB4LL8o+0Rph0GvYkWX7jKQdXiXUeh/Jux1XyWUfTMztWbJhIS1vovS33IOx1YIYNJO1bhQFqMxlDpFxGcxQOKQMJLyEFY+24D0zlLcSBkEO/ryGt/Iedr7zhnaEojgLswW74hkTaR9MhEEnyLu5bnppq4AYauVWaDHWHJ0eCgDVczSQoU3kd/tDk8w3mCDSwZRUfyU8yYGwOWu1VbAhtIgYkxALyVcJqgxhWbhdKQMJ0FP/D7yAc8Vbuek4WLX2IgiDjBSSz4iEwE+GmqI2haNXmEeQDCboL0h7QpThCIbFwACVtUKT6ZoTQxmW9+GxhECcdgCp+cEERQcToCieuTyn5FZoLDXbKt7Da9r0Z102hV3xVjyY9k7KYGLrsIRdA1huBbRUCdb0IGAECbvWDcWZh7YzZrldctoHE7mPIVSMAnmVGw5PQpupJaAK3CoDEjwWYwJn8FYW0upNZhgcTORX9k4h8PEgvImwWHPi2GtB1CXoBiUYr0lqIVcVaqws0fbBRO7DQ0G+AaLyHkl2TXFiRdnExzOqBsughEZ0zdH8lImIJR9Kf4blhkPAGVtNsTobms+AYVjYDLArLApzhAmKDigPD5XraKvYyOdQo5oixNlFahufHE645RUZmKT9UqEpg4ncR95TuOZ+Yh7UFIm7ChOnnVHBrTAZIO6O0TUMmzKYODpX6BMCVWkqttprghQH9wrlobwPr8iwMBsYXMqAYuwKyc5YF09iKW1tMYL/uFDJOqPyXgxLGMwWzoDCkzimBMxg+YYw2AL9VgigycirGC8AVpP7AaGZtA8oqDDvCS1j83Kh2tUgsZkPpCAM/lcoAxYGrxSaMqCY2yvTzQwLS7S2B8GaQGnGRsVi+J9QXstm5TykckBxw+FKKjM3GoZ1q9Da4n1QZbRwGBZvBXk3VlZroUjKhETlB1cSBnkRFWHNrXxFhFcAKFqMUGiMTFhEkak1+JoyIblQqDxHGFSpYTO0aKsIrdpDQi7D0husvV05ZUICBC3JtJttZrAFUCncPSaUR2TA2jg1d8GnTESEHwMNwqA1jBTLAPOghRjQkE/JreRYPKNkPmUwcaMl6QBKuRX8CpPTYZYtxNEkLw/VI0RDNuVsyVrKYGIwwhmDwh/DEp5w0FvdbK+L0SDsQvgNwqLQpAwkWAYIdcp9uZUwWDClc4a2EMs9YFhCoT6karB2LzJlz8Kw7hiq5Nd4ZlgYDU8LlXfVFu8nxGo+85AOB7dhJvGrwcTQqQpNr86JDzhYxukfFtpiz6dCgSGX3VfWefOYLd4rZY8iccfYZFiW1ZaBBuV/C745AxL6NLkl74DRPBV1QLFsw3prLAPUYGFQvuUI3hYouFxKoVAwLB7rEqEpg4mWDdRbjuVmqwpBDVgGLbyI5Wl2YGGNMmTLQFqwJ1L2KAzHIZbG5t3oMtousb5OaAuxT8sCEN7Ke8rvah46kDIBYVhOmZC0gxrgSkbp8d3tq2ohvNObQ3lIGJaw6LCAlIGEYTloSYWGe8W4KMNiAC1CIXD03aFyOoRC/PaEGgYThnPrUJtkUGUYFQPTbhEiWxiWtZN6g7yj0frjQrP5PJio+uxnAFRqBlv+gcpi/Ao63sKwnD1oZ7tCwfs40aLGusmUCYkb6mi40iOUuMOXnhoKW2oBN8jdTFhL3OVXPGPKYMJwbOzjqRhWmZRxOBLSXwuPpdpEyWFYjw/NM50HFIZz41BtHN4KfiXfOjm01QiWnRAMGdzg5PvcfzWgMCwNYAbFg8h7gJa3DW3hrYghCoaM2WBNUoKjAwrjuWmo/Qkmc+RXeoXyq1biaF8eC3bGsPQqUwYThsWD2E2lKhSe/F5za9+8mM4RbnnJu4Qmq2FAYVg3DxWa4FfUkSOmlFuJMIvVADdTOOQ4/YDCsCTvVjS60X6CAlr27pwnLZfjIe8amoY1oJQcy0kT8h43W57VElsSCr0Hkp+qMFH3AYVh3SBUXqX5rH8HFb9uaCvRQmJYmtCYpC3ozyl7lpJjaeMg+DEuodBikFYir2JYgFinXpwjNGUwYVhwLPQVC0AcOMl7GVRtlfvI6SDv3hP92YxhymCipaNKQ0VG7jOoKrFmWC1bOowK5GAVt5O/UgYTTejbh7rJOFifPaISbD28FoalCS1xl89ZC9nqfVL2KDyWoQmhyY2GZwFJzRS2uuG49E74krw7XPOqoS1YFCl7FDcU8m4aGWiJ3YB8Z2FHq5EsBusUfL1Jw6oOgkr0fTBhOFYXCU28FeNSIT43tBWDVE71rlAeUvhFTc7x+sGE4ZS9DfjnMCz5lu0vrQzLqu0yTHFG6J1CW+2ISNmTMByhqVSEbjZ18pbpnRZi/MscI+9o4RqGw3lDUwYTByUxJAxSFSGvZYoGLNDCYxn1en6oHKscb5IHBgwoGJx2VakG9QpLiLpJaItqTT6F+mzJmzwL7/3CoSmDCaKd7TIM6lWhxrJ4LQ3iFtUaRB/iLq+D9lu6Jhwn5DCYlBvNsPTwcLL08U4KbdHWYUAIfs7QEQ7fFwrLyhGwwUQeBUtSFYIBJPESa0MPLSgt3s/iNT1JuyJQoSH9iWUNJm40aEFIen1oOZHilNBWZwbyUPI4jAqoP8ghsawBxaSMI95eG1q4UjbCOLCphdiHBRz1Xoz4saGJZQ0oIACj7wZIVWq8lv0KFw9tIajPrwhlVFTR0OJolZQ9i4TaxheeA/LuzEAY031CW1RrKlFnTMvpwA7IhS3OREyZiOC/vzEUk1QCL+9qQR1WbTJi3koCL89yvEry3weVS4YyJkApNWTRYgReBcgrWkYC3pDTodAkm3RQUZlJqnkrI/BCVIuJHYbl3GnvhaqDWfHeUMMVCZQOKKAHXCzVGgReIm/NUW1hPKZ1jPaXk1zRlREMszocVF4SKu+RZwmHeOm1wUsGjD0heWdYjBjX3mruZDoMKoYr3GwehCeRzLdYPlsOG+cVvZ9JbKH3sqEpAwrYwRiYik2eZey+BTcLo+HFoXqGDIvyWpL63EAzqNipwLiEKAZmyX9tUW2CHDS8tXZ4R+EX4p9H+A4qWi6MCkcLgPmC0NrVGs+oMoTwMyjVofeUdwnHWR0OKJrPBizADm446nLtzXsKAqwG5/ioQrEqGBbsDI2nVQM8Zc+CMsyoeC0GxghqisrQjKHigDFJ3hnW6aGo0hcJTRlQcN4h4242A5No16a2CLnoOTwWkFSFKPTylvcIzXA4oBhw4EnkP4wLmOlQgZriSLsHhkLdLdXlGbV37OoyItaKtpOyR+GdoPC8ljCF7YCuXLNR7D0eHvr+UDtJQRs8l5zuRaFXDxUyUwYSHPRHhhqHLxM1oICavCnvIXfjGW1RNmABOwNBmD3UO0xm6YByzVB7HYCY8izLPCwRqdniuUroW0LhZt7L+8DOeDEVo7nHlMEEOo7Ogi/FkwiLzwi1O6uWYJN6Dx7rnaHCobArHKoYW+5DTdmTWOMouTb4IKGWyAMwbQGs5bUQCZ2YbwyMlxJ6hV1MVhM8tfO6lAkI47ll6MtC3XQ3XFhkCLXaLiAF42DwKwn8B0J5R3kdw3p1qH0PKYOJPMsIvrAkFMp/3GyblWsNmRraUBhYEiLPcoiB/qGTX08NzXA4oDh13vQOj1KGTN1wAGatNg82g60zDj1nWMIhiANwyqD1FGtzwlL2LHAkORVcyQGZkmu5lv2h6DQ10HHvAXxFMgQ9fDCU8QqNeGG81rlDUwYThzYZsqDYCMKUqu2eobXyHyg8Gg0evDyLqg6h8W8NbXm+T8qeBHdKqHpeqN1WbjbVP7T3oQY6LtTpT6InqxD1C1GjNcFVpQ41SBR+MBHuLP7nsZ4ZCnOyKca6I6ex1uKpA0N5LYvfVKFCLgIgzyVMtqBIp+xZNKUtTAOQqgrRiFWJrwx1jEkNb4L85wgW8IYEXiKvveO9NMGh9CmDiVCldyf8nRb6oVBYkxsORGUUgMxtJ6cxGnhB1aAWEs8ogQdFPCe01VEsKXsUeBKjsq5bEs+TuOkOWwKY8ihwL0a2qTDg64XyhO8IVRkKiQzMDvqa7aSUiQiDOTH0haFvCmVYAFP4k/lDRvf00G1HuPQPecG3hao+vQ/vKO9ykGZu/xtQrDsSkoRE5DzQgwoRPACDYnAnhG5Dd2E4x4XajYpKo42kES7f8r6JaQ0o8qg7hwJMMT+FKeqmF+NSPW7rtYza3y307aEGWfUpFQuSehVqeq0B5fyhKkTVIYPSNOa1wA8wqNeF2vmwbRsGqRDZUEhEWcYuZWQ8ZostOCkTEEelPDlU3iPPoipFXkuSrb/IALcRhmkhGzapkCgcou/gbQFmc9hiQIFbyYP08QpXS6iCPfFaqjrGty2+xTPdPxTLVP9QvgWgRd3JzTSDinxLyNM0lgNR8AAvxqsY1d8GeiC8kl6litPrQuEZl/6h0zNSBhXtHEwHYUo45L3wqUAQwiHoYFsBujoJVmEgpxMWwRBCZJ6CP7A4jhdvvZx5KIlXvUHPAaY12j0AWDmdcIinxcAYl8Z1yqCizYJCg0rMa0Hj3XQhEtBZw6uAFxiRQVYkQGEX6+EpoduG25SJyhVCrTrSggELuOnAUyHLcrVa1OJzhVoYIo8DzHp9WJpDnlIGE2FOj9BOeEi55NpNN2Xjd0aggquxPcZ7XTpU2JXLeQ+JvKPpclnbgMJo0JexEoQ/0IPeXhm+wAqt5bWEXaQ/nC3vwTNaigv6qJHLpUxMgKGgh3kwU1jkVSDotSo42JaQCC/jEXkw5ytmD3FQ4TUYkP6eG46rxWvxLHCnWl6rhESMCgm8KtSImvnE7CEOKKoztJaXhsKyJNalgazdgzdfa1Ofds/1Q/UleUStJJz8TOQHFZv4AKMMC+vTUIRKEb7FazmrsFYuZOYRydAGQEtFeC58MJ4xmaYDirH800PhWpJ5gGaBIBzGVHMoQm5Xhl1hZ9B5lJ5cNTmgSNJtWuatVIQmqLFAeS7VXM2FaiXfMpZmYQmKjRCscQ33ShlMbhDqKGCMUtWbCrHAAxL8mriTfEtDGo7GkIVc84k+g405KQMJT/KQUD1DORDvpb+n3fOaUOP5tbwWkW/dKlR/ksfiGSX2zmDMrYCDia3ItsjgbCH/8VYMC0TgDOra64m8Hr49w5VrMTDMC6TATOYHEiFK41ijGDouRPFaoAdEwJoL3AgPaC7xoaH6lsDa94QaslWN1nyvlD0LXEnVBpXntcrghRAJGuDVagpiILgBeKoypbj5OPoYrQmgDiLaLDcKhTe9PBQEAeMy8CoHUr3Jj2oKz8RDqRR5SbRmjFaeLHfHDySIgBB5Y2O8h/wH5gTUtBn5GqE1E3kiYb9hqPxOQs+YVYy3CM3Vk4OIm8xrWR6CBfrhUEblZsuFnNvTooEMiHVEsBbTG0J5L17yLqF5kusgYkZQ6W/AAo+KIgEyMNCAfQ0tkmuce8yH4im1mbyvYdj0XAMI7wGwtLHG7geNY+wHVGM5kEUjFwutLZJ5++odrcJjmfSB0Mv3GHlSbQYQY/duJu+kt4f5IKnmRfx06kXtRJ6oBK2aRJ/WCfDeWj8M/DahyT7tXIQ6M4I21mi/yLEKb8vNlmRLuFtMODMua79VhowLSIvDZWEvT5oHb3YuPBLPxHsASgs3XogyPiaRbwUJqDwvGQrjEg4ZM5QexmXRSE77dC7nC9Ur5DkYF8PitTSr0Wx4tFb9vQKg6gRYB8DAdAGg9HqNuee0c7F+23SPAQzsTz1EhoUrr3qD2NfGtooIyVB4C3OFQ9uZDX1I8HHJWuR5KTsWM4m8Ba6WdZCgB14MC7Ul1oQzhmoDoIWryfc0rOV5ugFZLXYuvAfAUr6Ds6WPyMiwIo4PbXnyl5D8gFBGDIqwxUaFKv+zvTmJgp2LcS5n88h5hCSTPao22BZ2aKuQ6HVVigxJuwe2ZjcEI7OSUn8zEfrO5aKhcCUruHkNiLzfkQXPE9pKwBBwNbOJ+FsIiYoKrSYIPXji2NCUjgUhT4UmmReWcOV5D5SbllAA+vK9QssACMPGemXouPuq1DSujgXLU8sHV573wDhlXIwNYbAFcFqEV0RIhKdR3DEe61WhDE7FWGPXV8qeRMIs5wE5uLlmBRkYaKDlMKp8y/QQgJZB6V/K+eBqPKjq0bmJOZzRsWCVOk+HccG25D1+f2JoS6Iej+nkWEYkmQdB4I0hJQJSEQcZXwsWRsoORMhDsZFAu6H6iQ7g5MHkOy1XcesZajnZP8G48Lh4Ld5LWESzBlOkdCqqNWxP+JbtNSaptX54MnlYy92j2jpYGBJ4gC2PqY/JwLEibheaXqtjAY4q991gux8Yl2Qel8pu01Y3V77FKyED4osJh0BbqwJQfRQTQnIrfC1lByJZxkbQ0+M1gKeqNAl+y2RevmWPPJ4+r8WorAnQGRCShcTkcXUuoAAVmQpROFSlGaG3OHfb0y8OEgeAWo+knwiZp0KiHMxcZA7Cdi68g6qQ5+C15F5aPva/t2q7CHW4+vcOBUNI5sv6S4WFY4wdydISX0vZgQAogadyLWGJ58JI0DBuyQBlYPI9Ez9yLh7Le8v9LNbNwzkHEDdR28Wud2wI41w8GWS+dVhivMiAciwhEfyAgWpjdNJsBhAMUOi44+xQm+VAjwnFSm09Qs+4MDFUp5J6uR426jy1OSvGTuXyodB4YcmEj2RamDR10zrnUTAgAyIFet9SpUr0izCsNK4OhWfiuRgTOjO1WYYnsz255U3ltYC0rw2FzPspLAJOWwK3KTsSngkDFIAJ4/JTfw/dBUGwpWgr3Sn0CaHyvDJKduXQlAHEjZTn6CWCAfC4IOMS+tY0F5PbqlLNafmW3yXyyYAYQExXI+PBlSTyzvHR22NckuyWvHXh2BYdnkoo1Go6JXTbg9ZTJiDgB8MQkmh05s+EwrleEYpirN/XEobQUyzT1T6D7YFCZI6QdS6GIYQ9qLgtgUIhYiBGBKoLo5ut1mqLPM98pJP1tZwUDyeF2hWR0rGoDHkJJT/eFFoLnrxkHiMB89QQakHmGUJtbyLcakqj9JRWE5S+5ehaSmORzwBHEQJ5LB4DxsTA9BVNWLvh5YhfodMUdk1hrAY+CvRgAFeu1ZKQmNJYHNQkt3HMCWMyxqVpbOIHxVhCD4awSdCiNTshWixcc8QK6IO3YsjPDs0kvmNhQLyUHEtOZdAUtVjJz8BM3EDnVY0Flcezqi2lSa295PNYT6lwSMC0U9EftGtLGGQ8PBdKMyjA3ivhyZwgZN7fkey72S2QeXsoYFmgB8bsp/0QydnqUErIY1RCIg+FgcAzuaG22QiRsC1sCORA3qUFrRkvTM/QVI/iwWomJ3C0JiOmNBD73AGkeFKMSmPadmaGRUwwC0uQ8cJIuGBoCy+C3aBwYFSwNMWD+cTMtToUB4/Lq+RXZ4RiHMwaFjErqIcI3+LZeLlWYlSfUeGLlf7lY0MzHHYmjEh5D8fSM7T+CMtgNofiSdCIje0zMDe6RQJPVKkM6sxQOBqmq+UmeSJGZyIUogdjFwhzwp7tMfOC7aCXx2v5u9DyFgk8JimQVM+SYVGG5XOmdCSqLpgRLpZ8xkEBBhzmhRFpSmv5UAOpLfacqkY1pRnUx0NtKdReUqGmdCTm/uRNZaeVClGbZ5GYcBY23WhYE1CzhdeSZ/GMci0KepALpnQk9wwFJ/BUtvHJsazcXiY8hxEu4YlRtujnCXuSdvlVSeJ9zpROhLcR0oCgKkLGgi5jFnCZCH9yIB7FhA3AtPYAhkTdgl7eSq6FhOhzpnQiDAJjk6FgNviJ6XCB0GXi31g/aYTMv8GdEiJrei69SGi/PMsB66a3Hxaa0onAhh4cakoHMEo1mw/aWSq30m5hiPjxAExeppbnQqORywFk5Vf0UaEpE5X5RFtYs9lYAxoHC06FcHcQ55wBCU0SfkwE+Q8vB6WvIVil6DNCrd6lzoCFbSkTFEj6vGEBORHsCi2YB8IYXYXIh1VaGtSMwFDGlUJriCEOG3JUqDyoSR4nYaRMTBgULzNvWHp+mA1IfoXZAIlfpcHs9fCn5FnG5XkwoGkNmouczXYc3DAHqiMBtly5lLKhMILZ3l8RoetZoUIggBQXah2Em2GaCbRMDQvC2dU1SICM0/SOsIzdoMCofVp/ypbCS817qiJXDBVuhEGJO/YmY1lVvC4ajXCoz3i1UKP724qiwnolHlQYRDg8GgSSMiHhwQCcqjvJu1F7zed12zSSdobpNRAE5ULbVoc8FmOC7j8o1NKQbEJ3IhgLjwxV1TEuYXBT3hPIQkhkBLY1b3tmoeJBvxDhz5ZnGNaswS8K6ykTESU9VgNPpapjZJtSYZzjI9FWJQJMJdrbeC2fzWuBQBQTuPal+MB+EBZN8AxpYMvylh7EZ9fzY1TaOG4ilsOmxsCbWAWJ0yXhhsyjGW96jWx01r90hIrBDlRplarCQB5331BN6VacsJ2LL4d/LZfAWYLdXDi05QFILQQGhXfl5uGVQ8+h6ZsKAzJ3qDKElqswbxS6CevTawFtDcqi6agIPQSMl8H5M58X2bD7StGX5XrxsZXmuOGYlG6OygXy7EvKDTZ9SnclwsfdQ61r9F2Q9uRF21J/fW8HcmJImEVUzW2ybttDCqTV0jG1o6BgWB5guBncDeYmB4ObdStuBI63rr8uu/OPNUetl1aic/8qIs1bpbdxKl5NZePfTs3QsBHkQyo5jFEhrNYAKi/locPX8tBtsn/BA4yDL6QiHPJeKkItHS0e15vahtPtkAUP5OnW6rA76tOhjMpWFh5LK8T/8/RLgJXH8pVHhHrqXGghRjLKle872eQNhBYTOTyVG1iT8suQ4FnCKyOwV3RdgYP5fCAGFaEHledzLXHFPMxCLcztaLyxSQov4yL58OWkUp7qE6FcsC/N1dsvcGooY2JYPAAjU20xPIbo4shl8MUh3ceFSmzd5KMZWou5PZPGaMgGTxmACq5GC6YITy3/ceKYB846yHXpNBB3HomnUm0K0a6Vz659hOlgK43BVt63G1EZ2XtuKuWMUDmDL+Jp8dSgdAgdjMOFvFyoG8RLMTAX1RPFVbuBZuOEzc+GetpgMv6fVT3ARBfPa7qAJWz6b3nbOij4QWKZRzEqN11vr1YILIJuU2YUy1DGunkWD6rN5LoQD5h74roxLH1NqYcmdTdovC8ANwH2MRDeilHZuKLEnU9wGYIvrhvv6XRBPLFuHmqtUGmC2BogTMj/CWWgXr80ff0bHlBiyu0LnZ5EFZAcokaOJqR7UORVPptpYw9EbbGFhgfncfy8beg6VJpy/TEaSurg+/NYeoaunRyuHHxQ+8FoIr4U+IAxaKqaRPFk+JLc8kFfAnAnybedjkdScZl60Z1npF7Ln8ttlMrexw1wkfyEKZVhBv+fxxIWhGTeUcjyGV1oP2E4/oyxM+5lhYI/M3DqppSQLBH2GrVF4i3p5hF5LgyFdU6d8O99bw+Vz11SBTkqbEwEURh4aBkazz5p8QVUHi6GD+6EKjdCOQtGWHUflNdhgEA8ZbK9U26kRJYBceUmjoVEx30wJsamrcK4VJ4lpxNK/J0nhWqZ8GjwMwwCoCGvA9MRniW8Ln65EbPi4p8WqnynSvdtoYVlAhLgseWaUHOGxdusKtaA+56u9+x3ATt4XdfOtfGTAa7z2jsXT4bcAPWVl0Lid7M1QbdJbF0YXgyDgEFomajChD+hkKF5sgsXijfhzQCMqioh1DSMi8jY5WmMzd8xtWL7i16a12R8Qio0+lKhvJl+nXIdBOK9hEIgZoupmiJCt+/jweF51wEwbQwUGRgXmTUsfCwPnodUJJDLmphe5KEnIT4YGq7kW+w2eeInEE5iXeuDCzuMlKvHsvR+QqyT3b2XC8Vb8miUkfkcjIiByfHKZ2P8qtOPhTI4uxZ4Ov9eM5mnZUS8mZ/wNTmeMN+i0pwVeRsvK8zzsmW95CpiNXfJyeY9rweGF/SQqbY9kKLCZMXT6wlxQ5SxbiDvUdzxpnKQQbrBqiWtFU+53MxFVSAIV0JjWT7GUPwZr2PGjkeAbEvC/T/ewWdWifJq8g9hCAiqLaJa5TVbhb9Z0W/0oPj8vMyi0LxMPOClypu9fu6RlMJ39Z09eL7bpCtC5bynWshxYBEMirv1tM/SNNaVdRNjN8CN956MjaHp6EtY5VLyCR5OGe8Cy9mEPkOmvB2jknuANvxEFfZ9eDtG5jvyWC3DoO8ATIaPaR5vuvV43hg9gDBC38u98SAxtFV4+XsT7tToE2/lg5dcpFaZv60wNCHURRQihBqJO28gd2J0KkgXXogUOs376Q4AdBUhFMNTeS4v2SZvPJp4MIzG85Kgl00eTNd83rBKw5xByT/do0kn7r6E5qv8ROymkmFTK7W3AtcUXkdi7oKrlm4YCgcDbbjwchADnhJ8P42pMzRhHuzRCmqQTzFy+JXPtU4YLLLoc6nMkRA9GAorYR/wOoUHf6H4YG6KpFcIFDbcHIj05PGRGeGBVH9uqoqJ52VQwqLVjoxKWHSKPSiDR5Gf1L4xKmuYnYW0m4QphrjIGKUEXld+JbLwypNeaeTCCg2ehFKFyV9QY3oyLN8DvABKKLiZCoqHYlhG1OVcQiIYg1dWKdbmkGONglRADJt4q0X5n/Cqaa7KLPdInnnQpPbeBSLtCZajQMZVXL4IWGCyrnaBuJEwMwm6/EsCLSy6EYBF1SKPzMhQf1RWx4fWPGXLQwqvWwdiKKJKXnS9eT49QfdFNFEp6+PuosLdSoCJnl6hkAIuMRpgTZs8dfsWFxz6fbNQNwSmJCeRd4EhCh7G6OSWqs8a39NrwMo23Ze1LOfTxfDAC39nhIIy3LPJi6dcZaUkV7b7WaqanvnUQoW8C4lPGOGRhXkeTB9U/qXKgtfV8FreT1FQu1ITXnUVoO4a6IDlTVipOxdPmgTehZd7eLpdfC0dW+169FpFPDSIdrhhAGBwBK+FsGj9ou+JjAjL2zbsg0FU0jXTh5JfYZeAhDS3S3O6C1G2w67ADcJDOdqM1+ot15oXIUZryrFxQFQ3SI7FyHgApEXJ9jbf0cPHqGpDGIU/BpdThOggtD7xtaqoRuQHkGxxXGKrsQuPwQRoiVbvQtx4WJCcC1IvCYZnAR0l9tvyshjlsuR7U/FaHuzSdNZwx+LoTuA62hB6XJ5s5bkcBPUY6a7nkEjkPtgaQiKPDNsS9jE6toUdGEFNoyLaQYXyreHMW21Sbe5dtB+guXAY6C6jAjQKiRLcyeMmKwivparikeVYwEaDoFMr3T0ERvV5VqCoqr31ifpNRa4h1+J6Pc0FTNRJx+ScdNNzBVFNYV0CSuUt8pcp7pwS8oRs+aAIAh9rTfdpKp5cAJ8qSjgsgCnKii+KXtOlOz4iknjfB5PDw2PTzDYMjhZic40CSvUKYdem6oLXfpDArrAHYD6qRLiWhF5HXU+x12QeM4KHKgCpRH4dLvouhFfCIHW95VWKi1qrJychBhcQ7mBZZVoHcs2DCZU455NvKcwILjzGhpwF45QHXocyvCsxoYRnpieokAKGdh0C5wUeAxzVjGZMwqJKigcDpHratRV6qBQlwvYpMCafn+cV7mtjTtsKLNF0k2Rdp0DyPkQInBc3BLZVGJpiPrIctJpxgSF66Fnp3Z0UKrRTn3tqoVz6YRhVJV6YF93uZFhFkOlUg5JJ7AA9NmHRBWBoAFUN3ykLjMoDgs9kJYCwOCWRUjB8AyEqcYCtPHZqHrW6aCGUkMhjeeoxAxgWNsTUF1MI1zA4/UBV4ZQEqIq6w5iEP/mryrsVdXpS4snR8jAjp/z1ZMm39NrkLDhO2BFHO3tmClKbdVBDFBDPD9WzFP7wrKb4OZuJJ0gCbEpG1aIchs5LNEtoRE8xF5eymqj2EBK1mPQDGdWh8FTzokIBQaAxK9t5L8g8TIhhaY8g/NfcDjOqMCrMXe0ycI6cqveuxlYi8eW5uO8yJm/FEdBR913uBbXfZpfn6CK14J1Qp8E2qNRTQ/93LhJhuRTgDo+pLKkQDuFEOEOAVEnoFAHIfQuvjwpjQQnwWZ9yKAB0G2FcaDQGM1WE2g5osxBtVBT5l2rRxQNF1KaT9CpaM9B/k91y1a428e1KGBePBB1GCET0B5zikZvb01/0U2/OsELvRMFtpJAoYVX6f36WTX0pC4RxGc9H9C97Snks83yAPgm9MIn6YQD2MFY8vrPtfFIDe7LQX3pmh+xM5AdaD8IiZF6OZcIH1wngB+/SUGV4dg3oh40eGn0/xuO6aNMYgFABGuxIWUO0JFSLknctHx5LqwcyT/GfMDa1hRhg640v+xIeXJfCVJBlJbb12IvRS7N+ksJz2QsF6IMga1wzKEwC+ZYEv4RInC67CFBzRhHeSMhTLYNj0Io8bPPe2UNodcGhBEI3Fa0IAxkWYjAehqVCZFzYECaSIfWMS2jUFMbjHqGFYfABOdL3X+aNrS1nfAzPIO2hx67WEeAfnGt2rRBcC94lmYfWMyx5mDk/uRgOUu3lHLsWnulouaPvJxXQVzV5w7tve57hoRTuXjjgqaDywiDPxYsxLD+1Mww1wL9AFrr6I+Yi8i7GhBmi/aWKNi10mCGYrURlpLy2VgiAymMJh/AuIRKmowmrx2ifKIIbvndP65OOJjyYo108SL4vrI8Xt/B26kyQyYvQqCpSJQl/6CHvDeW9GJaLztDsUvhoqByM93JDehbFDPozjy38aXkJhfbeW1mQUkEYF/wKloP9AHpgVEIhA/M0W6vNuACqfmrQGs3qsePP454Qqq1V6NwqZeu0DzWDoZWU0KgaRBbEjGBAQFStICokWthhSpmaqTO21UPupbrVviozmYiQihP5pWbzoSLw7VokrPhavBH+uQlribynG7gqmUcgPPOIMjyVpePUpvq0MxgTTfJDOJ48klGhcsun0KJ7GpXrWoy6w7CMkmtUA1B5MSESv0vP0U+hRKgEPMJ+ptZnM13jITEGL1/ErmVceFZC/wj7LroTVRMDc7gSZqoFY26QPIunAlPoP+q3GeYQTqYSEhk4hoKCxKpvFZ9mO2yOoan65JYpexYtDug1EpyzdbAB5FvyE7/ru+17PaJwhtMPXbcFUCgH/grhFo2gxihSMuxNUNwUyboEX+JL8eqBp/vwANou9pMyKNQffc/bh6pogZ5mLrEYaq+ITGkg1wiF+zAongAGtumSXTdbcj170xnoMiMtf1+BAYfiQbWccPzlTiADCbnqDztWWyapxR0IDAh/iWcQYk4O3fToFbOQAEksCgZDJdMowfOlv9zN/8O6kNMJv2hAtugxLAcvocPYTqOyzfypM7HOGldeyY7TZUPwugk7ugqDgnQLV5JsxiWpxrxgHAyDcfGEOgNOtPD/cdGtk5SEgw/8W0h5GlLHIqxY2KHlo63DW62zbYUnAV9Y/6NNZBSNgfI4XsvsnsY4zInBGm1XFJwYKuQ5cEABwUN2sUc9ZTWBU8GBoNaatbzXqsJLyX+Aqc6YBrI6+UtvEk5W4Ay/WwfAkByMyVvxSIxyNg9LGUQkwFoh2jyAUkn7Ks1axmAhic3HQFb4F9QbDACwlK/hPjEq0zG8Fc+YkMAhEZPTWKc8DONadTEawyprxLWGhECGxWvJm+RTwhpDSo90CEV+wxh4GZ5rnWFOFBsLSfC5cO0ZVOZIKWd5JsakLcIwlPar8MHlRTjkqkjUZ/jSptBEyoACaZdUy4+AkKq3o0EMQpoGr3F1lBuDGRaqZd6UcpaUnMemYJiTvqCqUFN6mUjy4U0WatgrZTcqCCFxppTPS/FKqrbCJsVuWLYCiVHBqRiUXMyGQSNX8yh6yiEWRlUMSwVo15ZRfMS/Rcty5VPovvIwST6FjG/aQ0wZVHifEr7kS8VYtHFQT2aFR0JJEfb0D0386Ollop5yNmFYJdnGgzfNAsMS3uahBtvvUJd5NMaFnTlvfCkpZxPeyPSOvEnTeHaHqcFOW2sk9saoJO25WyplJXFGIizK+D3DsvnO4ASjkqiDIeze4rGmvE8+ZWICbhAKGY+2jNYOwBSazos5jHOEIdaUHYuVkzyWlozk3ABFGcPHdEB5QQHO1T8pa4mJFzscypG6vBQPpk1DYVe5mSVlI5Gw41NRrRoDC1o7i2jEKSkri/aOxrNwJ3FnTOtSklNSUlJSUlJSUlJSUlJSUlJSUlJSUlJSUlJSUlJSUlJSUlJSUtaTY475P3XhX2X6V17YAAAAAElFTkSuQmCC;flipH=1;" vertex="1" parent="1">
          <mxGeometry x="710" y="596" width="140" height="481" as="geometry" />
        </mxCell>
        <mxCell id="X9fpeLWt1j-jbo-fKKKr-205" value="&lt;span style=&quot;font-size:11.0pt;line-height:107%;&lt;br/&gt;font-family:&amp;quot;Calibri&amp;quot;,sans-serif;mso-ascii-theme-font:minor-latin;mso-fareast-font-family:&lt;br/&gt;Calibri;mso-fareast-theme-font:minor-latin;mso-hansi-theme-font:minor-latin;&lt;br/&gt;mso-bidi-font-family:&amp;quot;Times New Roman&amp;quot;;mso-bidi-theme-font:minor-bidi;&lt;br/&gt;mso-ansi-language:EN-US;mso-fareast-language:EN-US;mso-bidi-language:AR-SA&quot;&gt;This event is sanctioned by IGC license NO.948673&lt;/span&gt;" style="rounded=0;whiteSpace=wrap;html=1;strokeColor=none;" vertex="1" parent="1">
          <mxGeometry x="168" y="1028" width="514" height="60" as="geometry" />
        </mxCell>
      </root>
    </mxGraphModel>
  </diagram>
</mxfile>
